{
.appVersion = "3151";
.formatVersion = 3;
DisplayStrings = (
TJLT
);
axes = (
{
name = Weight;
tag = wght;
},
{
name = Width;
tag = wdth;
},
{
name = "Optical Size";
tag = opsz;
}
);
classes = (
{
automatic = 1;

glyphs = (
{
glyphname = A;
kernLeft = KO_A;
kernRight = KO_A;
lastChange = "2023-01-20 19:21:54 +0000";
layers = (
{
anchors = (
{
name = bottom;
pos = (361,0);
},
{
name = ogonek;
pos = (718,0);
},
{
name = top;
pos = (361,700);
}
);
layerId = "CE731A6E-4225-469A-B727-F6A72D46F429";
shapes = (
{
closed = 1;
nodes = (
(4,0,l),
(304,0,l),
(359,522,l),
(363,522,l),
(418,0,l),
(718,0,l),
(625,700,l),
(97,700,l)
);
},
{
closed = 1;
nodes = (
(252,113,l),
(470,113,l),
(470,313,l),
(252,313,l)
);
}
);
width = 722;
},
{
anchors = (
{
name = bottom;
pos = (336,0);
},
{
name = ogonek;
pos = (667,0);
},
{
name = top;
pos = (336,700);
}
);
layerId = "044BBB63-5120-4E70-970B-668628603B6C";
shapes = (
{
closed = 1;
nodes = (
(5,0,l),
(225,0,l),
(334,569,l),
(337,569,l),
(446,0,l),
(667,0,l),
(524,700,l),
(148,700,l)
);
},
{
closed = 1;
nodes = (
(207,140,l),
(464,140,l),
(464,287,l),
(207,287,l)
);
}
);
width = 672;
},
{
anchors = (
{
name = bottom;
pos = (456,0);
},
{
name = ogonek;
pos = (908,0);
},
{
name = top;
pos = (456,700);
}
);
layerId = "2486E969-71F9-4F3C-B4C5-6F2EF4A28847";
shapes = (
{
closed = 1;
nodes = (
(4,0,l),
(307,0,l),
(454,522,l),
(458,522,l),
(605,0,l),
(908,0,l),
(696,700,l),
(216,700,l)
);
},
{
closed = 1;
nodes = (
(281,113,l),
(631,113,l),
(631,313,l),
(281,313,l)
);
}
);
width = 912;
},
{
anchors = (
{
name = bottom;
pos = (426,0);
},
{
name = ogonek;
pos = (847,0);
},
{
name = top;
pos = (426,700);
}
);
layerId = "FE1E8944-1FC7-442F-ADEB-BCCAD8BD5749";
shapes = (
{
closed = 1;
nodes = (
(5,0,l),
(258,0,l),
(424,552,l),
(428,552,l),
(594,0,l),
(847,0,l),
(626,700,l),
(226,700,l)
);
},
{
closed = 1;
nodes = (
(249,130,l),
(603,130,l),
(603,297,l),
(249,297,l)
);
}
);
width = 852;
},
{
anchors = (
{
name = bottom;
pos = (127,0);
},
{
name = ogonek;
pos = (238,0);
},
{
name = top;
pos = (126,700);
}
);
layerId = "48FF9396-4D7D-4D4D-86EB-84D256671726";
shapes = (
{
closed = 1;
nodes = (
(15,0,l),
(19,0,l),
(126,696,l),
(127,696,l),
(234,0,l),
(238,0,l),
(130,700,l),
(123,700,l)
);
},
{
closed = 1;
nodes = (
(50,211,l),
(203,211,l),
(203,215,l),
(50,215,l)
);
}
);
width = 253;
},
{
anchors = (
{
name = bottom;
pos = (216,0);
},
{
name = ogonek;
pos = (424,0);
},
{
name = top;
pos = (216,700);
}
);
layerId = "486D3314-9C11-443C-84EF-BC26BC6EF4F4";
shapes = (
{
closed = 1;
nodes = (
(8,0,l),
(69,0,l),
(214,653,l),
(218,653,l),
(363,0,l),
(424,0,l),
(266,700,l),
(166,700,l)
);
},
{
closed = 1;
nodes = (
(99,189,l),
(334,189,l),
(334,239,l),
(99,239,l)
);
}
);
width = 432;
},
{
anchors = (
{
name = bottom;
pos = (280,0);
},
{
name = ogonek;
pos = (546,0);
},
{
name = top;
pos = (279,700);
}
);
layerId = "7F19C139-BC3E-4459-8995-898EF937B41C";
shapes = (
{
closed = 1;
nodes = (
(11,0,l),
(15,0,l),
(278,697,l),
(279,697,l),
(542,0,l),
(546,0,l),
(282,700,l),
(275,700,l)
);
},
{
closed = 1;
nodes = (
(94,212,l),
(463,212,l),
(463,216,l),
(94,216,l)
);
}
);
width = 557;
},
{
anchors = (
{
name = bottom;
pos = (301,0);
},
{
name = ogonek;
pos = (593,0);
},
{
name = top;
pos = (301,700);
}
);
layerId = "C8B4B1A0-F191-4142-9AA6-B9AE3C7BFB7E";
shapes = (
{
closed = 1;
nodes = (
(9,0,l),
(71,0,l),
(299,650,l),
(303,650,l),
(531,0,l),
(593,0,l),
(345,700,l),
(257,700,l)
);
},
{
closed = 1;
nodes = (
(125,192,l),
(476,192,l),
(476,242,l),
(125,242,l)
);
}
);
width = 602;
}
);
metricRight = "=|";
unicode = 65;
userData = {
KernOnName = A;
};
},
{
glyphname = AE;
kernRight = KO_E;
layers = (
{
anchors = (
{
name = bottom;
pos = (568,0);
},
{
name = top;
pos = (568,700);
}
);
guides = (
{
angle = 160.056;
pos = (32,555);
}
);
layerId = "CE731A6E-4225-469A-B727-F6A72D46F429";
shapes = (
{
closed = 1;
nodes = (
(4,0,l),
(304,0,l),
(468,700,l),
(171,700,l)
);
},
{
closed = 1;
nodes = (
(239,190,l),
(940,257,l),
(940,458,l),
(239,391,l)
);
},
{
closed = 1;
nodes = (
(458,0,l),
(966,0,l),
(966,200,l),
(693,200,l),
(758,46,l),
(758,654,l),
(693,500,l),
(961,500,l),
(961,700,l),
(458,700,l)
);
},
{
closed = 1;
nodes = (
(329,700,l),
(329,501,l),
(693,500,l),
(693,700,l)
);
}
);
width = 988;
},
{
anchors = (
{
name = bottom;
pos = (531,0);
},
{
name = top;
pos = (555,700);
}
);
layerId = "044BBB63-5120-4E70-970B-668628603B6C";
shapes = (
{
closed = 1;
nodes = (
(5,0,l),
(229,0,l),
(424,700,l),
(202,700,l)
);
},
{
closed = 1;
nodes = (
(211,215,l),
(881,281,l),
(881,429,l),
(211,362,l)
);
},
{
closed = 1;
nodes = (
(444,0,l),
(907,0,l),
(907,147,l),
(616,147,l),
(664,34,l),
(664,666,l),
(616,553,l),
(902,553,l),
(902,700,l),
(444,700,l)
);
},
{
closed = 1;
nodes = (
(314,700,l),
(314,554,l),
(616,553,l),
(616,700,l)
);
}
);
width = 935;
},
{
anchors = (
{
name = bottom;
pos = (688,0);
},
{
name = top;
pos = (688,700);
}
);
guides = (
{
angle = 160.056;
pos = (442,555);
}
);
layerId = "2486E969-71F9-4F3C-B4C5-6F2EF4A28847";
shapes = (
{
closed = 1;
nodes = (
(4,0,l),
(310,0,l),
(524,700,l),
(221,700,l)
);
},
{
closed = 1;
nodes = (
(319,190,l),
(1140,257,l),
(1140,458,l),
(319,391,l)
);
},
{
closed = 1;
nodes = (
(538,0,l),
(1166,0,l),
(1166,200,l),
(773,200,l),
(838,46,l),
(838,654,l),
(773,500,l),
(1161,500,l),
(1161,700,l),
(538,700,l)
);
},
{
closed = 1;
nodes = (
(409,700,l),
(409,501,l),
(773,500,l),
(773,700,l)
);
}
);
width = 1188;
},
{
anchors = (
{
name = bottom;
pos = (639,0);
},
{
name = top;
pos = (656,700);
}
);
layerId = "FE1E8944-1FC7-442F-ADEB-BCCAD8BD5749";
shapes = (
{
closed = 1;
nodes = (
(5,0,l),
(258,0,l),
(479,700,l),
(228,700,l)
);
},
{
closed = 1;
nodes = (
(285,207,l),
(1073,272,l),
(1073,440,l),
(285,375,l)
);
},
{
closed = 1;
nodes = (
(516,0,l),
(1099,0,l),
(1099,167,l),
(712,167,l),
(766,39,l),
(766,661,l),
(712,533,l),
(1094,533,l),
(1094,700,l),
(516,700,l)
);
},
{
closed = 1;
nodes = (
(385,700,l),
(385,534,l),
(712,533,l),
(712,700,l)
);
}
);
width = 1128;
},
{
anchors = (
{
name = bottom;
pos = (200,0);
},
{
name = top;
pos = (271,700);
}
);
guides = (
{
angle = 158.836;
pos = (-79,127);
},
{
angle = 158.836;
pos = (-79,627);
}
);
layerId = "48FF9396-4D7D-4D4D-86EB-84D256671726";
shapes = (
{
closed = 1;
nodes = (
(5,0,l),
(9,0,l),
(191,700,l),
(187,700,l)
);
},
{
closed = 1;
nodes = (
(83,290,l),
(333,346,l),
(333,350,l),
(83,294,l)
);
},
{
closed = 1;
nodes = (
(212,0,l),
(353,0,l),
(353,4,l),
(214,4,l),
(216,2,l),
(216,698,l),
(214,696,l),
(349,696,l),
(349,700,l),
(212,700,l)
);
},
{
closed = 1;
nodes = (
(189,700,l),
(188,696,l),
(214,696,l),
(214,700,l)
);
}
);
width = 376;
},
{
anchors = (
{
name = bottom;
pos = (362,0);
},
{
name = top;
pos = (432,700);
}
);
layerId = "486D3314-9C11-443C-84EF-BC26BC6EF4F4";
shapes = (
{
closed = 1;
nodes = (
(8,0,l),
(69,0,l),
(293,700,l),
(233,700,l)
);
},
{
closed = 1;
nodes = (
(138,264,l),
(623,321,l),
(623,371,l),
(138,314,l)
);
},
{
closed = 1;
nodes = (
(346,0,l),
(641,0,l),
(641,54,l),
(396,54,l),
(406,13,l),
(406,687,l),
(396,646,l),
(638,646,l),
(638,700,l),
(346,700,l)
);
},
{
closed = 1;
nodes = (
(267,700,l),
(266,646,l),
(396,646,l),
(396,700,l)
);
}
);
width = 683;
},
{
anchors = (
{
name = bottom;
pos = (421,0);
},
{
name = top;
pos = (520,700);
}
);
guides = (
{
angle = 158.836;
pos = (107,127);
},
{
angle = 158.836;
pos = (107,627);
}
);
layerId = "7F19C139-BC3E-4459-8995-898EF937B41C";
shapes = (
{
closed = 1;
nodes = (
(11,0,l),
(15,0,l),
(289,700,l),
(285,700,l)
);
},
{
closed = 1;
nodes = (
(127,290,l),
(744,347,l),
(744,351,l),
(127,294,l)
);
},
{
closed = 1;
nodes = (
(428,0,l),
(770,0,l),
(770,4,l),
(430,4,l),
(432,2,l),
(432,698,l),
(430,696,l),
(765,696,l),
(765,700,l),
(428,700,l)
);
},
{
closed = 1;
nodes = (
(286,700,l),
(286,696,l),
(430,696,l),
(430,700,l)
);
}
);
width = 832;
},
{
anchors = (
{
name = bottom;
pos = (467,0);
},
{
name = top;
pos = (543,700);
}
);
layerId = "C8B4B1A0-F191-4142-9AA6-B9AE3C7BFB7E";
shapes = (
{
closed = 1;
nodes = (
(9,0,l),
(71,0,l),
(320,700,l),
(259,700,l)
);
},
{
closed = 1;
nodes = (
(158,260,l),
(807,321,l),
(807,371,l),
(158,310,l)
);
},
{
closed = 1;
nodes = (
(438,0,l),
(832,0,l),
(832,54,l),
(485,54,l),
(498,14,l),
(498,686,l),
(485,646,l),
(827,646,l),
(827,700,l),
(438,700,l)
);
},
{
closed = 1;
nodes = (
(302,700,l),
(301,646,l),
(485,646,l),
(485,700,l)
);
}
);
width = 882;
}
);
unicode = 198;
},
{
glyphname = B;
kernLeft = KO_H;
kernRight = KO_B;
layers = (
{
layerId = "CE731A6E-4225-469A-B727-F6A72D46F429";
shapes = (
{
closed = 1;
nodes = (
(40,0,l),
(479,0,ls),
(612,0,o),
(699,71,o),
(699,180,c),
(699,182,l),
(699,309,o),
(606,375,o),
(427,375,c),
(430,343,l),
(590,343,o),
(679,410,o),
(679,530,c),
(679,532,l),
(679,645,o),
(607,700,o),
(460,700,cs),
(40,700,l)
);
},
{
closed = 1;
nodes = (
(340,190,l),
(340,270,l),
(373,270,ls),
(397,270,o),
(409,258,o),
(409,234,cs),
(409,226,ls),
(409,202,o),
(397,190,o),
(373,190,cs)
);
},
{
closed = 1;
nodes = (
(340,430,l),
(340,510,l),
(366,510,ls),
(391,510,o),
(401,499,o),
(401,474,cs),
(401,466,ls),
(401,441,o),
(391,430,o),
(366,430,cs)
);
}
);
width = 721;
},
{
layerId = "044BBB63-5120-4E70-970B-668628603B6C";
shapes = (
{
closed = 1;
nodes = (
(50,0,l),
(421,0,ls),
(547,0,o),
(622,64,o),
(623,182,c),
(623,185,l),
(622,307,o),
(546,369,o),
(393,371,c),
(395,348,l),
(528,351,o),
(604,419,o),
(605,530,c),
(605,533,l),
(604,647,o),
(536,700,o),
(402,700,cs),
(50,700,l)
);
},
{
closed = 1;
nodes = (
(270,140,l),
(270,294,l),
(349,294,ls),
(388,294,o),
(408,269,o),
(408,222,cs),
(408,214,ls),
(408,161,o),
(386,140,o),
(344,140,cs)
);
},
{
closed = 1;
nodes = (
(270,412,l),
(270,560,l),
(333,560,ls),
(379,560,o),
(398,536,o),
(398,490,cs),
(398,482,ls),
(398,438,o),
(379,412,o),
(344,412,cs)
);
}
);
width = 651;
},
{
guides = (
{
angle = 8.246;
pos = (546,487);
}
);
layerId = "2486E969-71F9-4F3C-B4C5-6F2EF4A28847";
shapes = (
{
closed = 1;
nodes = (
(40,0,l),
(536,0,ls),
(685,0,o),
(769,66,o),
(769,183,c),
(769,185,l),
(769,316,o),
(679,375,o),
(480,375,c),
(484,343,l),
(649,343,o),
(747,413,o),
(748,533,c),
(748,535,l),
(748,645,o),
(670,700,o),
(515,700,cs),
(40,700,l)
);
},
{
closed = 1;
nodes = (
(340,190,l),
(340,270,l),
(432,270,ls),
(457,270,o),
(469,258,o),
(469,234,cs),
(469,226,ls),
(469,202,o),
(457,190,o),
(432,190,cs)
);
},
{
closed = 1;
nodes = (
(340,430,l),
(340,510,l),
(421,510,ls),
(447,510,o),
(458,499,o),
(458,474,cs),
(458,466,ls),
(458,441,o),
(447,430,o),
(421,430,cs)
);
}
);
width = 791;
},
{
layerId = "FE1E8944-1FC7-442F-ADEB-BCCAD8BD5749";
shapes = (
{
closed = 1;
nodes = (
(52,0,l),
(500,0,ls),
(649,0,o),
(730,64,o),
(730,183,cs),
(730,186,l),
(729,313,o),
(646,371,o),
(464,372,c),
(467,346,l),
(618,347,o),
(709,416,o),
(710,531,c),
(710,534,l),
(709,645,o),
(633,700,o),
(479,700,cs),
(52,700,l)
);
},
{
closed = 1;
nodes = (
(302,159,l),
(302,285,l),
(419,285,ls),
(459,285,o),
(480,265,o),
(480,227,cs),
(480,219,ls),
(480,178,o),
(459,159,o),
(414,159,cs)
);
},
{
closed = 1;
nodes = (
(302,419,l),
(302,541,l),
(401,541,ls),
(447,541,o),
(468,523,o),
(468,483,cs),
(468,476,ls),
(468,439,o),
(448,419,o),
(411,419,cs)
);
}
);
width = 759;
},
{
layerId = "48FF9396-4D7D-4D4D-86EB-84D256671726";
shapes = (
{
closed = 1;
nodes = (
(50,0,l),
(126,0,ls),
(179,0,o),
(212,45,o),
(213,182,c),
(213,188,ls),
(213,293,o),
(192,353,o),
(152,360,c),
(152,362,l),
(187,375,o),
(205,444,o),
(205,527,cs),
(205,533,l),
(204,661,o),
(167,700,o),
(116,700,cs),
(50,700,l)
);
},
{
closed = 1;
nodes = (
(54,4,l),
(54,359,l),
(140,359,ls),
(186,359,o),
(209,300,o),
(209,188,cs),
(209,182,ls),
(209,45,o),
(175,4,o),
(126,4,cs)
);
},
{
closed = 1;
nodes = (
(54,363,l),
(54,696,l),
(115,696,ls),
(180,696,o),
(201,630,o),
(201,533,cs),
(201,527,ls),
(201,433,o),
(177,363,o),
(143,363,cs)
);
}
);
width = 241;
},
{
layerId = "486D3314-9C11-443C-84EF-BC26BC6EF4F4";
shapes = (
{
closed = 1;
nodes = (
(75,0,l),
(242,0,ls),
(359,0,o),
(410,56,o),
(411,186,c),
(411,198,l),
(410,303,o),
(367,358,o),
(282,363,c),
(283,359,l),
(353,367,o),
(397,428,o),
(397,518,cs),
(397,526,l),
(396,643,o),
(341,700,o),
(229,700,cs),
(75,700,l)
);
},
{
closed = 1;
nodes = (
(135,50,l),
(135,334,l),
(242,334,ls),
(316,334,o),
(351,291,o),
(351,198,cs),
(351,186,ls),
(351,88,o),
(320,50,o),
(242,50,cs)
);
},
{
closed = 1;
nodes = (
(135,384,l),
(135,650,l),
(229,650,ls),
(301,650,o),
(337,609,o),
(337,526,cs),
(337,518,ls),
(337,432,o),
(298,384,o),
(229,384,cs)
);
}
);
width = 452;
},
{
guides = (
{
angle = 8.246;
pos = (424,504);
}
);
layerId = "7F19C139-BC3E-4459-8995-898EF937B41C";
shapes = (
{
closed = 1;
nodes = (
(110,0,l),
(324,0,ls),
(471,0,o),
(537,57,o),
(537,185,cs),
(537,191,l),
(535,297,o),
(484,353,o),
(383,360,c),
(383,362,l),
(466,369,o),
(521,433,o),
(521,524,cs),
(521,530,l),
(519,646,o),
(449,700,o),
(302,700,cs),
(110,700,l)
);
},
{
closed = 1;
nodes = (
(114,4,l),
(114,359,l),
(354,359,ls),
(471,359,o),
(533,301,o),
(533,191,cs),
(533,185,ls),
(533,60,o),
(468,4,o),
(324,4,cs)
);
},
{
closed = 1;
nodes = (
(114,363,l),
(114,696,l),
(302,696,ls),
(449,696,o),
(517,643,o),
(517,530,cs),
(517,524,ls),
(517,430,o),
(451,363,o),
(360,363,cs)
);
}
);
width = 598;
},
{
layerId = "C8B4B1A0-F191-4142-9AA6-B9AE3C7BFB7E";
shapes = (
{
closed = 1;
nodes = (
(90,0,l),
(333,0,ls),
(474,0,o),
(537,57,o),
(537,186,cs),
(537,199,l),
(535,305,o),
(483,357,o),
(373,363,c),
(374,358,l),
(464,365,o),
(522,428,o),
(522,520,cs),
(522,529,l),
(521,644,o),
(452,700,o),
(314,700,cs),
(90,700,l)
);
},
{
closed = 1;
nodes = (
(150,50,l),
(150,334,l),
(338,334,ls),
(430,334,o),
(477,289,o),
(477,199,cs),
(477,186,ls),
(477,87,o),
(435,50,o),
(323,50,cs)
);
},
{
closed = 1;
nodes = (
(150,384,l),
(150,650,l),
(305,650,ls),
(414,650,o),
(462,613,o),
(462,529,cs),
(462,520,ls),
(462,437,o),
(412,384,o),
(332,384,cs)
);
}
);
width = 587;
}
);
metricLeft = H;
unicode = 66;
},
{
glyphname = C;
kernLeft = KO_O;
kernRight = KO_C;
layers = (
{
anchors = (
{
name = bottom;
pos = (355,0);
},
{
name = top;
pos = (355,700);
}
);
guides = (
{
angle = 266.121;
pos = (675,246);
}
);
layerId = "CE731A6E-4225-469A-B727-F6A72D46F429";
shapes = (
{
closed = 1;
nodes = (
(546,-15,o),
(664,71,o),
(675,236,c),
(385,265,l),
(382,211,o),
(373,185,o),
(351,185,cs),
(334,185,o),
(325,196,o),
(325,220,cs),
(325,480,ls),
(325,504,o),
(334,515,o),
(351,515,cs),
(373,515,o),
(382,491,o),
(385,435,c),
(675,464,l),
(664,629,o),
(546,715,o),
(355,715,cs),
(151,715,o),
(25,611,o),
(25,444,cs),
(25,256,ls),
(25,89,o),
(151,-15,o),
(355,-15,cs)
);
}
);
width = 694;
},
{
anchors = (
{
name = bottom;
pos = (334,-1);
},
{
name = top;
pos = (333,700);
}
);
layerId = "044BBB63-5120-4E70-970B-668628603B6C";
shapes = (
{
closed = 1;
nodes = (
(503,-12,o),
(604,70,o),
(618,223,c),
(405,244,l),
(399,170,o),
(377,135,o),
(331,135,cs),
(284,135,o),
(257,170,o),
(257,243,cs),
(257,458,ls),
(257,529,o),
(285,565,o),
(331,565,cs),
(376,565,o),
(397,533,o),
(405,460,c),
(618,481,l),
(603,631,o),
(502,712,o),
(327,712,cs),
(146,712,o),
(37,615,o),
(37,454,cs),
(37,248,ls),
(37,84,o),
(146,-12,o),
(327,-12,cs)
);
}
);
width = 646;
},
{
anchors = (
{
name = bottom;
pos = (421,0);
},
{
name = top;
pos = (413,700);
}
);
guides = (
{
angle = 99.7;
pos = (529,502);
},
{
angle = 83.946;
pos = (530,204);
},
{
angle = 355.101;
pos = (251,223);
},
{
angle = 4.899;
pos = (251,477);
},
{
angle = 262.161;
pos = (495,285);
},
{
angle = 262.161;
pos = (785,256);
},
{
angle = 278.13;
pos = (773,528);
}
);
layerId = "2486E969-71F9-4F3C-B4C5-6F2EF4A28847";
shapes = (
{
closed = 1;
nodes = (
(637,-15,o),
(761,88,o),
(785,256,c),
(495,285,l),
(486,217,o),
(465,185,o),
(413,185,cs),
(363,185,o),
(330,218,o),
(330,286,cs),
(330,414,ls),
(330,482,o),
(363,515,o),
(413,515,cs),
(465,515,o),
(486,485,o),
(495,415,c),
(785,444,l),
(761,612,o),
(637,715,o),
(395,715,cs),
(169,715,o),
(30,600,o),
(30,414,cs),
(30,286,ls),
(30,100,o),
(169,-15,o),
(395,-15,cs)
);
}
);
width = 808;
},
{
anchors = (
{
name = bottom;
pos = (406,0);
},
{
name = top;
pos = (401,700);
}
);
layerId = "FE1E8944-1FC7-442F-ADEB-BCCAD8BD5749";
shapes = (
{
closed = 1;
nodes = (
(608,-13,o),
(725,85,o),
(748,248,c),
(507,272,l),
(496,192,o),
(465,154,o),
(399,154,cs),
(331,154,o),
(290,200,o),
(290,295,cs),
(290,407,ls),
(290,500,o),
(332,546,o),
(399,546,cs),
(464,546,o),
(494,511,o),
(506,432,c),
(748,456,l),
(723,617,o),
(607,713,o),
(385,713,cs),
(170,713,o),
(40,601,o),
(40,414,cs),
(40,288,ls),
(40,99,o),
(169,-13,o),
(384,-13,cs)
);
}
);
width = 778;
},
{
anchors = (
{
name = bottom;
pos = (127,-2);
},
{
name = top;
pos = (128,700);
}
);
guides = (
{
angle = 4.086;
pos = (312,98);
},
{
angle = 4.086;
pos = (256,565);
},
{
angle = 355.914;
pos = (256,136);
},
{
angle = 266.121;
pos = (304,113);
}
);
layerId = "48FF9396-4D7D-4D4D-86EB-84D256671726";
shapes = (
{
closed = 1;
nodes = (
(181,-5,o),
(209,41,o),
(214,138,c),
(210,138,l),
(205,42,o),
(179,-1,o),
(127,-1,cs),
(75,-1,o),
(49,40,o),
(49,122,cs),
(49,578,ls),
(49,659,o),
(76,701,o),
(127,701,cs),
(178,701,o),
(205,658,o),
(210,568,c),
(214,568,l),
(209,661,o),
(181,705,o),
(127,705,cs),
(73,705,o),
(45,661,o),
(45,578,cs),
(45,122,ls),
(45,38,o),
(73,-5,o),
(127,-5,cs)
);
}
);
width = 232;
},
{
anchors = (
{
name = bottom;
pos = (239,-2);
},
{
name = top;
pos = (240,700);
}
);
layerId = "486D3314-9C11-443C-84EF-BC26BC6EF4F4";
shapes = (
{
closed = 1;
nodes = (
(343,-7,o),
(402,56,o),
(412,178,c),
(354,183,l),
(346,92,o),
(307,47,o),
(236,47,cs),
(159,47,o),
(120,97,o),
(120,196,cs),
(120,506,ls),
(120,602,o),
(161,653,o),
(237,653,cs),
(305,653,o),
(342,612,o),
(353,526,c),
(411,532,l),
(398,648,o),
(340,707,o),
(237,707,cs),
(122,707,o),
(60,635,o),
(60,506,cs),
(60,197,ls),
(60,64,o),
(123,-7,o),
(236,-7,cs)
);
}
);
width = 457;
},
{
anchors = (
{
name = bottom;
pos = (331,-2);
},
{
name = top;
pos = (342,700);
}
);
guides = (
{
pos = (0,194);
},
{
angle = 4.899;
pos = (98,515);
},
{
angle = 262.161;
pos = (564,209);
}
);
layerId = "7F19C139-BC3E-4459-8995-898EF937B41C";
shapes = (
{
closed = 1;
nodes = (
(468,-5,o),
(549,68,o),
(568,208,c),
(564,209,l),
(545,71,o),
(466,-1,o),
(331,-1,cs),
(172,-1,o),
(94,97,o),
(94,296,cs),
(94,414,ls),
(94,602,o),
(177,701,o),
(333,701,cs),
(459,701,o),
(533,640,o),
(559,514,c),
(563,515,l),
(537,642,o),
(461,705,o),
(333,705,cs),
(174,705,o),
(90,604,o),
(90,414,cs),
(90,296,ls),
(90,94,o),
(170,-5,o),
(331,-5,cs)
);
}
);
width = 636;
},
{
anchors = (
{
name = bottom;
pos = (328,-1);
},
{
name = top;
pos = (331,700);
}
);
layerId = "C8B4B1A0-F191-4142-9AA6-B9AE3C7BFB7E";
shapes = (
{
closed = 1;
nodes = (
(465,-7,o),
(548,66,o),
(568,208,c),
(511,213,l),
(495,102,o),
(432,47,o),
(324,47,cs),
(195,47,o),
(135,117,o),
(135,268,cs),
(135,438,ls),
(135,583,o),
(198,653,o),
(325,653,cs),
(429,653,o),
(488,605,o),
(507,502,c),
(566,508,l),
(541,641,o),
(462,707,o),
(325,707,cs),
(164,707,o),
(75,612,o),
(75,438,cs),
(75,268,ls),
(75,87,o),
(161,-7,o),
(324,-7,cs)
);
}
);
width = 624;
}
);
metricLeft = O;
unicode = 67;
},
{
glyphname = D;
kernLeft = KO_H;
kernRight = KO_D;
lastChange = "2023-01-20 19:21:54 +0000";
layers = (
{
anchors = (
{
name = bottom;
pos = (354,0);
},
{
name = center;
pos = (190,350);
},
{
name = top;
pos = (344,700);
}
);
layerId = "CE731A6E-4225-469A-B727-F6A72D46F429";
shapes = (
{
closed = 1;
nodes = (
(40,0,l),
(344,0,ls),
(594,0,o),
(705,90,o),
(705,293,cs),
(705,406,ls),
(705,609,o),
(593,700,o),
(344,700,cs),
(40,700,l)
);
},
{
closed = 1;
nodes = (
(340,47,l),
(340,651,l),
(277,510,l),
(356,510,ls),
(387,510,o),
(400,497,o),
(400,463,cs),
(400,237,ls),
(400,203,o),
(387,190,o),
(356,190,cs),
(277,190,l)
);
}
);
width = 730;
},
{
anchors = (
{
name = bottom;
pos = (332,0);
},
{
name = center;
pos = (160,350);
},
{
name = top;
pos = (321,700);
}
);
layerId = "044BBB63-5120-4E70-970B-668628603B6C";
shapes = (
{
closed = 1;
nodes = (
(50,0,l),
(329,0,ls),
(543,0,o),
(638,81,o),
(638,262,cs),
(638,437,ls),
(638,618,o),
(542,700,o),
(329,700,cs),
(50,700,l)
);
},
{
closed = 1;
nodes = (
(270,35,l),
(270,664,l),
(223,560,l),
(325,560,ls),
(389,560,o),
(416,533,o),
(416,467,cs),
(416,233,ls),
(416,167,o),
(389,140,o),
(325,140,cs),
(223,140,l)
);
}
);
width = 675;
},
{
anchors = (
{
name = bottom;
pos = (421,0);
},
{
name = center;
pos = (190,350);
},
{
name = top;
pos = (406,700);
}
);
layerId = "2486E969-71F9-4F3C-B4C5-6F2EF4A28847";
shapes = (
{
closed = 1;
nodes = (
(40,0,l),
(444,0,ls),
(694,0,o),
(805,90,o),
(805,293,cs),
(805,406,ls),
(805,609,o),
(693,700,o),
(444,700,cs),
(40,700,l)
);
},
{
closed = 1;
nodes = (
(340,47,l),
(340,651,l),
(277,510,l),
(401,510,ls),
(476,510,o),
(505,483,o),
(505,413,cs),
(505,287,ls),
(505,217,o),
(476,190,o),
(401,190,cs),
(277,190,l)
);
}
);
width = 835;
},
{
anchors = (
{
name = bottom;
pos = (405,0);
},
{
name = center;
pos = (177,350);
},
{
name = top;
pos = (390,700);
}
);
layerId = "FE1E8944-1FC7-442F-ADEB-BCCAD8BD5749";
shapes = (
{
closed = 1;
nodes = (
(52,0,l),
(419,0,ls),
(658,0,o),
(765,87,o),
(765,285,cs),
(765,414,ls),
(765,612,o),
(658,700,o),
(419,700,cs),
(52,700,l)
);
},
{
closed = 1;
nodes = (
(302,39,l),
(302,659,l),
(249,541,l),
(383,541,ls),
(477,541,o),
(515,507,o),
(515,420,cs),
(515,280,ls),
(515,193,o),
(477,159,o),
(383,159,cs),
(249,159,l)
);
}
);
width = 805;
},
{
anchors = (
{
name = bottom;
pos = (128,0);
},
{
name = center;
pos = (52,350);
},
{
name = top;
pos = (123,700);
}
);
layerId = "48FF9396-4D7D-4D4D-86EB-84D256671726";
shapes = (
{
closed = 1;
nodes = (
(50,0,l),
(131,0,ls),
(190,0,o),
(220,42,o),
(220,127,cs),
(220,573,ls),
(220,659,o),
(190,700,o),
(131,700,cs),
(50,700,l)
);
},
{
closed = 1;
nodes = (
(54,3,l),
(54,697,l),
(53,696,l),
(131,696,ls),
(188,696,o),
(216,656,o),
(216,573,cs),
(216,127,ls),
(216,45,o),
(188,4,o),
(131,4,cs),
(53,4,l)
);
}
);
width = 265;
},
{
anchors = (
{
name = bottom;
pos = (241,0);
},
{
name = center;
pos = (105,350);
},
{
name = top;
pos = (233,700);
}
);
layerId = "486D3314-9C11-443C-84EF-BC26BC6EF4F4";
shapes = (
{
closed = 1;
nodes = (
(75,0,l),
(236,0,ls),
(366,0,o),
(425,60,o),
(425,190,cs),
(425,510,ls),
(425,640,o),
(366,700,o),
(236,700,cs),
(75,700,l)
);
},
{
closed = 1;
nodes = (
(135,11,l),
(135,689,l),
(122,650,l),
(233,650,ls),
(324,650,o),
(365,607,o),
(365,510,cs),
(365,190,ls),
(365,94,o),
(324,50,o),
(233,50,cs),
(122,50,l)
);
}
);
width = 485;
},
{
anchors = (
{
name = bottom;
pos = (326,0);
},
{
name = center;
pos = (112,350);
},
{
name = top;
pos = (312,700);
}
);
layerId = "7F19C139-BC3E-4459-8995-898EF937B41C";
shapes = (
{
closed = 1;
nodes = (
(110,0,l),
(296,0,ls),
(483,0,o),
(566,75,o),
(566,244,cs),
(566,456,ls),
(566,625,o),
(483,700,o),
(296,700,cs),
(110,700,l)
);
},
{
closed = 1;
nodes = (
(114,2,l),
(114,698,l),
(112,696,l),
(296,696,ls),
(481,696,o),
(562,623,o),
(562,456,cs),
(562,244,ls),
(562,77,o),
(481,4,o),
(296,4,cs),
(112,4,l)
);
}
);
width = 656;
},
{
anchors = (
{
name = bottom;
pos = (324,0);
},
{
name = center;
pos = (120,350);
},
{
name = top;
pos = (311,700);
}
);
layerId = "C8B4B1A0-F191-4142-9AA6-B9AE3C7BFB7E";
shapes = (
{
closed = 1;
nodes = (
(90,0,l),
(316,0,ls),
(492,0,o),
(571,71,o),
(571,232,cs),
(571,468,ls),
(571,629,o),
(493,700,o),
(316,700,cs),
(90,700,l)
);
},
{
closed = 1;
nodes = (
(150,10,l),
(150,689,l),
(137,650,l),
(298,650,ls),
(453,650,o),
(512,600,o),
(512,468,cs),
(512,232,ls),
(512,101,o),
(453,50,o),
(298,50,cs),
(137,50,l)
);
}
);
width = 646;
}
);
metricLeft = H;
metricRight = O;
unicode = 68;
userData = {
KernOnName = D;
};
},
{
glyphname = E;
kernLeft = KO_H;
kernRight = KO_E;
lastChange = "2023-01-20 19:21:54 +0000";
layers = (
{
anchors = (
{
name = "#entry";
pos = (340,700);
},
{
name = bottom;
pos = (301,0);
},
{
name = ogonek;
pos = (547,0);
},
{
name = top;
pos = (299,700);
},
{
name = topleft;
pos = (29,700);
}
);
layerId = "CE731A6E-4225-469A-B727-F6A72D46F429";
shapes = (
{
closed = 1;
nodes = (
(340,43,l),
(340,367,l),
(273,249,l),
(527,249,l),
(527,449,l),
(273,449,l),
(340,331,l),
(340,657,l),
(273,500,l),
(543,500,l),
(543,700,l),
(40,700,l),
(40,0,l),
(547,0,l),
(547,200,l),
(273,200,l)
);
}
);
width = 569;
},
{
anchors = (
{
name = "#entry";
pos = (270,700);
},
{
name = bottom;
pos = (286,0);
},
{
name = ogonek;
pos = (513,0);
},
{
name = top;
pos = (285,700);
},
{
name = topleft;
pos = (35,700);
}
);
layerId = "044BBB63-5120-4E70-970B-668628603B6C";
shapes = (
{
closed = 1;
nodes = (
(270,33,l),
(270,360,l),
(221,275,l),
(492,275,l),
(492,423,l),
(221,423,l),
(270,338,l),
(270,667,l),
(221,553,l),
(509,553,l),
(509,700,l),
(50,700,l),
(50,0,l),
(513,0,l),
(513,147,l),
(221,147,l)
);
}
);
width = 541;
},
{
anchors = (
{
name = "#entry";
pos = (340,700);
},
{
name = bottom;
pos = (354,0);
},
{
name = ogonek;
pos = (668,0);
},
{
name = top;
pos = (354,700);
},
{
name = topleft;
pos = (40,700);
}
);
layerId = "2486E969-71F9-4F3C-B4C5-6F2EF4A28847";
shapes = (
{
closed = 1;
nodes = (
(340,46,l),
(340,358,l),
(275,249,l),
(642,249,l),
(642,449,l),
(275,449,l),
(340,340,l),
(340,654,l),
(275,500,l),
(663,500,l),
(663,700,l),
(40,700,l),
(40,0,l),
(668,0,l),
(668,200,l),
(275,200,l)
);
}
);
width = 690;
},
{
anchors = (
{
name = "#entry";
pos = (302,700);
},
{
name = bottom;
pos = (345,0);
},
{
name = ogonek;
pos = (635,0);
},
{
name = top;
pos = (345,700);
},
{
name = topleft;
pos = (42,700);
}
);
layerId = "FE1E8944-1FC7-442F-ADEB-BCCAD8BD5749";
shapes = (
{
closed = 1;
nodes = (
(302,39,l),
(302,356,l),
(247,266,l),
(609,266,l),
(609,432,l),
(247,432,l),
(302,342,l),
(302,661,l),
(247,533,l),
(630,533,l),
(630,700,l),
(52,700,l),
(52,0,l),
(635,0,l),
(635,167,l),
(247,167,l)
);
}
);
width = 664;
},
{
anchors = (
{
name = "#entry";
pos = (54,700);
},
{
name = bottom;
pos = (124,0);
},
{
name = ogonek;
pos = (193,0);
},
{
name = top;
pos = (124,700);
},
{
name = topleft;
pos = (31,700);
}
);
layerId = "48FF9396-4D7D-4D4D-86EB-84D256671726";
shapes = (
{
closed = 1;
nodes = (
(54,2,l),
(54,349,l),
(52,347,l),
(183,347,l),
(183,351,l),
(52,351,l),
(54,349,l),
(54,698,l),
(52,696,l),
(191,696,l),
(191,700,l),
(50,700,l),
(50,0,l),
(193,0,l),
(193,4,l),
(52,4,l)
);
}
);
width = 216;
},
{
anchors = (
{
name = "#entry";
pos = (135,700);
},
{
name = bottom;
pos = (220,0);
},
{
name = ogonek;
pos = (357,0);
},
{
name = top;
pos = (220,700);
},
{
name = topleft;
pos = (48,700);
}
);
layerId = "486D3314-9C11-443C-84EF-BC26BC6EF4F4";
shapes = (
{
closed = 1;
nodes = (
(135,10,l),
(135,351,l),
(121,324,l),
(341,324,l),
(341,374,l),
(121,374,l),
(135,347,l),
(135,690,l),
(121,646,l),
(354,646,l),
(354,700,l),
(75,700,l),
(75,0,l),
(357,0,l),
(357,54,l),
(121,54,l)
);
}
);
width = 399;
},
{
anchors = (
{
name = "#entry";
pos = (114,700);
},
{
name = bottom;
pos = (299,0);
},
{
name = ogonek;
pos = (472,0);
},
{
name = top;
pos = (299,700);
},
{
name = topleft;
pos = (52,700);
}
);
layerId = "7F19C139-BC3E-4459-8995-898EF937B41C";
shapes = (
{
closed = 1;
nodes = (
(114,2,l),
(114,349,l),
(112,347,l),
(446,347,l),
(446,351,l),
(112,351,l),
(114,349,l),
(114,698,l),
(112,696,l),
(467,696,l),
(467,700,l),
(110,700,l),
(110,0,l),
(472,0,l),
(472,4,l),
(112,4,l)
);
}
);
width = 534;
},
{
anchors = (
{
name = "#entry";
pos = (150,700);
},
{
name = bottom;
pos = (292,0);
},
{
name = ogonek;
pos = (484,0);
},
{
name = top;
pos = (292,700);
},
{
name = topleft;
pos = (52,700);
}
);
layerId = "C8B4B1A0-F191-4142-9AA6-B9AE3C7BFB7E";
shapes = (
{
closed = 1;
nodes = (
(150,11,l),
(150,348,l),
(136,324,l),
(461,324,l),
(461,374,l),
(136,374,l),
(150,350,l),
(150,689,l),
(136,646,l),
(480,646,l),
(480,700,l),
(90,700,l),
(90,0,l),
(484,0,l),
(484,54,l),
(136,54,l)
);
}
);
width = 534;
}
);
metricLeft = H;
unicode = 69;
userData = {
KernOnName = E;
};
},
{
glyphname = F;
kernLeft = KO_H;
kernRight = KO_F;
lastChange = "2023-01-20 19:21:54 +0000";
layers = (
{
layerId = "CE731A6E-4225-469A-B727-F6A72D46F429";
shapes = (
{
closed = 1;
nodes = (
(531,500,l),
(531,700,l),
(40,700,l),
(40,0,l),
(340,0,l),
(340,347,l),
(275,229,l),
(510,229,l),
(510,429,l),
(275,429,l),
(340,313,l),
(340,652,l),
(275,500,l)
);
}
);
width = 543;
},
{
layerId = "044BBB63-5120-4E70-970B-668628603B6C";
shapes = (
{
closed = 1;
nodes = (
(482,553,l),
(482,700,l),
(50,700,l),
(50,0,l),
(270,0,l),
(270,348,l),
(222,261,l),
(464,261,l),
(464,408,l),
(222,408,l),
(270,323,l),
(270,664,l),
(222,553,l)
);
}
);
width = 497;
},
{
layerId = "2486E969-71F9-4F3C-B4C5-6F2EF4A28847";
shapes = (
{
closed = 1;
nodes = (
(611,500,l),
(611,700,l),
(40,700,l),
(40,0,l),
(340,0,l),
(340,347,l),
(275,229,l),
(590,229,l),
(590,429,l),
(275,429,l),
(340,313,l),
(340,652,l),
(275,500,l)
);
}
);
width = 623;
},
{
layerId = "FE1E8944-1FC7-442F-ADEB-BCCAD8BD5749";
shapes = (
{
closed = 1;
nodes = (
(579,533,l),
(579,700,l),
(52,700,l),
(52,0,l),
(302,0,l),
(302,347,l),
(247,249,l),
(559,249,l),
(559,416,l),
(247,416,l),
(302,319,l),
(302,660,l),
(247,533,l)
);
}
);
width = 595;
},
{
layerId = "48FF9396-4D7D-4D4D-86EB-84D256671726";
shapes = (
{
closed = 1;
nodes = (
(170,696,l),
(170,700,l),
(50,700,l),
(50,0,l),
(54,0,l),
(54,349,l),
(53,347,l),
(163,347,l),
(163,351,l),
(53,351,l),
(54,349,l),
(54,698,l),
(53,696,l)
);
}
);
width = 180;
},
{
layerId = "486D3314-9C11-443C-84EF-BC26BC6EF4F4";
shapes = (
{
closed = 1;
nodes = (
(325,646,l),
(325,700,l),
(75,700,l),
(75,0,l),
(135,0,l),
(135,350,l),
(122,321,l),
(313,321,l),
(313,371,l),
(122,371,l),
(135,341,l),
(135,676,l),
(122,646,l)
);
}
);
width = 348;
},
{
layerId = "7F19C139-BC3E-4459-8995-898EF937B41C";
shapes = (
{
closed = 1;
nodes = (
(424,696,l),
(424,700,l),
(110,700,l),
(110,0,l),
(114,0,l),
(114,349,l),
(112,347,l),
(405,347,l),
(405,351,l),
(112,351,l),
(114,349,l),
(114,698,l),
(112,696,l)
);
}
);
width = 457;
},
{
layerId = "C8B4B1A0-F191-4142-9AA6-B9AE3C7BFB7E";
shapes = (
{
closed = 1;
nodes = (
(432,646,l),
(432,700,l),
(90,700,l),
(90,0,l),
(150,0,l),
(150,349,l),
(136,321,l),
(416,321,l),
(416,371,l),
(136,371,l),
(150,342,l),
(150,684,l),
(136,646,l)
);
}
);
width = 459;
}
);
metricLeft = H;
unicode = 70;
userData = {
KernOnName = F;
};
},
{
glyphname = G;
kernLeft = KO_O;
kernRight = KO_G;
layers = (
{
anchors = (
{
name = bottom;
pos = (355,0);
},
{
name = top;
pos = (354,700);
}
);
layerId = "CE731A6E-4225-469A-B727-F6A72D46F429";
shapes = (
{
closed = 1;
nodes = (
(484,-15,o),
(578,89,o),
(575,256,c),
(395,237,l),
(395,195,o),
(385,175,o),
(360,175,cs),
(336,175,o),
(325,192,o),
(325,237,cs),
(325,453,ls),
(325,498,o),
(335,515,o),
(360,515,cs),
(383,515,o),
(393,493,o),
(395,445,c),
(677,476,l),
(663,625,o),
(534,715,o),
(336,715,cs),
(144,715,o),
(25,611,o),
(25,444,cs),
(25,256,ls),
(25,79,o),
(132,-15,o),
(291,-15,cs)
);
},
{
closed = 1;
nodes = (
(525,1,l),
(684,1,l),
(684,410,l),
(350,410,l),
(350,238,l),
(489,238,l),
(395,346,l),
(395,223,l)
);
}
);
width = 718;
},
{
anchors = (
{
name = bottom;
pos = (331,0);
},
{
name = top;
pos = (331,700);
}
);
layerId = "044BBB63-5120-4E70-970B-668628603B6C";
shapes = (
{
closed = 1;
nodes = (
(456,-12,o),
(542,80,o),
(541,233,c),
(409,230,l),
(408,163,o),
(384,127,o),
(332,127,cs),
(280,127,o),
(257,162,o),
(257,232,cs),
(257,462,ls),
(257,532,o),
(280,565,o),
(333,565,cs),
(378,565,o),
(401,536,o),
(407,475,c),
(614,498,l),
(600,634,o),
(492,712,o),
(322,712,cs),
(144,712,o),
(37,617,o),
(37,460,cs),
(37,242,ls),
(37,75,o),
(133,-12,o),
(284,-12,cs)
);
},
{
closed = 1;
nodes = (
(504,1,l),
(621,1,l),
(621,393,l),
(327,393,l),
(327,266,l),
(478,266,l),
(409,346,l),
(409,205,l)
);
}
);
width = 663;
},
{
anchors = (
{
name = bottom;
pos = (420,0);
},
{
name = top;
pos = (420,700);
}
);
guides = (
{
angle = 91.051;
pos = (789,1);
}
);
layerId = "2486E969-71F9-4F3C-B4C5-6F2EF4A28847";
shapes = (
{
closed = 1;
nodes = (
(574,-15,o),
(680,89,o),
(680,256,c),
(500,285,l),
(500,217,o),
(479,175,o),
(415,175,cs),
(351,175,o),
(330,217,o),
(330,285,cs),
(330,405,ls),
(330,475,o),
(351,515,o),
(415,515,cs),
(468,515,o),
(492,490,o),
(498,445,c),
(780,476,l),
(764,625,o),
(630,715,o),
(420,715,cs),
(177,715,o),
(30,599,o),
(30,414,cs),
(30,286,ls),
(30,89,o),
(158,-15,o),
(356,-15,cs)
);
},
{
closed = 1;
nodes = (
(630,1,l),
(789,1,l),
(789,410,l),
(414,410,l),
(414,238,l),
(594,238,l),
(500,346,l),
(500,223,l)
);
}
);
width = 823;
},
{
anchors = (
{
name = bottom;
pos = (402,0);
},
{
name = top;
pos = (403,700);
}
);
layerId = "FE1E8944-1FC7-442F-ADEB-BCCAD8BD5749";
shapes = (
{
closed = 1;
nodes = (
(554,-13,o),
(657,86,o),
(657,248,c),
(507,272,l),
(507,193,o),
(475,145,o),
(398,145,cs),
(320,145,o),
(290,194,o),
(290,278,cs),
(290,415,ls),
(290,499,o),
(321,546,o),
(399,546,cs),
(463,546,o),
(494,517,o),
(503,462,c),
(738,488,l),
(721,630,o),
(598,713,o),
(403,713,cs),
(176,713,o),
(40,603,o),
(40,422,cs),
(40,279,ls),
(40,87,o),
(159,-13,o),
(349,-13,cs)
);
},
{
closed = 1;
nodes = (
(615,1,l),
(747,1,l),
(747,401,l),
(398,401,l),
(398,257,l),
(585,257,l),
(507,347,l),
(507,216,l)
);
}
);
width = 791;
},
{
anchors = (
{
name = bottom;
pos = (129,0);
},
{
name = top;
pos = (129,700);
}
);
layerId = "48FF9396-4D7D-4D4D-86EB-84D256671726";
shapes = (
{
closed = 1;
nodes = (
(181,-5,o),
(209,41,o),
(214,138,c),
(210,138,l),
(205,42,o),
(179,-1,o),
(127,-1,cs),
(75,-1,o),
(49,40,o),
(49,122,cs),
(49,578,ls),
(49,659,o),
(76,701,o),
(127,701,cs),
(178,701,o),
(205,658,o),
(210,568,c),
(214,568,l),
(209,661,o),
(181,705,o),
(127,705,cs),
(73,705,o),
(45,661,o),
(45,578,cs),
(45,122,ls),
(45,38,o),
(73,-5,o),
(127,-5,cs)
);
},
{
closed = 1;
nodes = (
(212,0,l),
(214,0,l),
(214,342,l),
(123,342,l),
(123,338,l),
(211,338,l),
(210,339,l),
(210,138,l)
);
}
);
width = 257;
},
{
anchors = (
{
name = bottom;
pos = (234,0);
},
{
name = top;
pos = (235,700);
}
);
layerId = "486D3314-9C11-443C-84EF-BC26BC6EF4F4";
shapes = (
{
closed = 1;
nodes = (
(330,-7,o),
(384,58,o),
(386,180,c),
(348,180,l),
(345,92,o),
(306,47,o),
(232,47,cs),
(154,47,o),
(120,88,o),
(120,183,cs),
(120,519,ls),
(120,612,o),
(156,653,o),
(234,653,cs),
(300,653,o),
(337,615,o),
(346,538,c),
(403,544,l),
(391,651,o),
(333,707,o),
(234,707,cs),
(122,707,o),
(60,640,o),
(60,519,cs),
(60,183,ls),
(60,59,o),
(120,-7,o),
(232,-7,cs)
);
},
{
closed = 1;
nodes = (
(376,0,l),
(408,0,l),
(408,358,l),
(231,358,l),
(231,308,l),
(368,308,l),
(348,344,l),
(348,166,l)
);
}
);
width = 472;
},
{
anchors = (
{
name = bottom;
pos = (315,0);
},
{
name = top;
pos = (321,700);
}
);
guides = (
{
angle = 91.051;
pos = (543,0);
}
);
layerId = "7F19C139-BC3E-4459-8995-898EF937B41C";
shapes = (
{
closed = 1;
nodes = (
(458,-5,o),
(542,74,o),
(542,209,c),
(539,209,l),
(539,76,o),
(456,-1,o),
(315,-1,cs),
(168,-1,o),
(94,80,o),
(94,246,cs),
(94,464,ls),
(94,620,o),
(171,701,o),
(319,701,cs),
(437,701,o),
(506,649,o),
(529,544,c),
(533,545,l),
(509,652,o),
(438,705,o),
(319,705,cs),
(169,705,o),
(90,622,o),
(90,464,cs),
(90,246,ls),
(90,79,o),
(165,-5,o),
(315,-5,cs)
);
},
{
closed = 1;
nodes = (
(541,0,l),
(543,0,l),
(543,354,l),
(318,354,l),
(318,350,l),
(541,350,l),
(539,352,l),
(539,181,l)
);
}
);
width = 637;
},
{
anchors = (
{
name = bottom;
pos = (317,0);
},
{
name = top;
pos = (320,700);
}
);
layerId = "C8B4B1A0-F191-4142-9AA6-B9AE3C7BFB7E";
shapes = (
{
closed = 1;
nodes = (
(445,-7,o),
(531,77,o),
(531,205,c),
(492,226,l),
(491,109,o),
(429,47,o),
(313,47,cs),
(191,47,o),
(135,107,o),
(135,236,cs),
(135,469,ls),
(135,593,o),
(195,653,o),
(316,653,cs),
(414,653,o),
(470,611,o),
(487,523,c),
(544,529,l),
(524,646,o),
(447,707,o),
(316,707,cs),
(161,707,o),
(75,623,o),
(75,469,cs),
(75,236,ls),
(75,76,o),
(157,-7,o),
(313,-7,cs)
);
},
{
closed = 1;
nodes = (
(522,0,l),
(552,0,l),
(552,358,l),
(316,358,l),
(316,308,l),
(511,308,l),
(492,343,l),
(492,181,l)
);
}
);
width = 629;
}
);
metricLeft = O;
unicode = 71;
},
{
glyphname = H;
kernLeft = KO_H;
kernRight = KO_H;
lastChange = "2023-01-20 19:21:54 +0000";
layers = (
{
anchors = (
{
name = bottom;
pos = (370,0);
},
{
name = center;
pos = (370,570);
},
{
name = top;
pos = (370,700);
},
{
name = topleft;
pos = (20,700);
}
);
layerId = "CE731A6E-4225-469A-B727-F6A72D46F429";
shapes = (
{
closed = 1;
nodes = (
(40,0,l),
(340,0,l),
(340,367,l),
(273,249,l),
(467,249,l),
(400,367,l),
(400,0,l),
(700,0,l),
(700,700,l),
(400,700,l),
(400,331,l),
(467,449,l),
(273,449,l),
(340,331,l),
(340,700,l),
(40,700,l)
);
}
);
width = 740;
},
{
anchors = (
{
name = bottom;
pos = (351,0);
},
{
name = center;
pos = (351,562);
},
{
name = top;
pos = (351,700);
},
{
name = topleft;
pos = (26,700);
}
);
layerId = "044BBB63-5120-4E70-970B-668628603B6C";
shapes = (
{
closed = 1;
nodes = (
(50,0,l),
(270,0,l),
(270,362,l),
(221,275,l),
(480,275,l),
(432,362,l),
(432,0,l),
(652,0,l),
(652,700,l),
(432,700,l),
(432,337,l),
(480,423,l),
(221,423,l),
(270,337,l),
(270,700,l),
(50,700,l)
);
}
);
width = 702;
},
{
anchors = (
{
name = bottom;
pos = (445,0);
},
{
name = center;
pos = (445,570);
},
{
name = top;
pos = (445,700);
},
{
name = topleft;
pos = (31,700);
}
);
layerId = "2486E969-71F9-4F3C-B4C5-6F2EF4A28847";
shapes = (
{
closed = 1;
nodes = (
(40,0,l),
(340,0,l),
(340,367,l),
(275,249,l),
(615,249,l),
(550,367,l),
(550,0,l),
(850,0,l),
(850,700,l),
(550,700,l),
(550,333,l),
(615,449,l),
(275,449,l),
(340,333,l),
(340,700,l),
(40,700,l)
);
}
);
width = 890;
},
{
anchors = (
{
name = bottom;
pos = (430,0);
},
{
name = center;
pos = (430,565);
},
{
name = top;
pos = (430,700);
},
{
name = topleft;
pos = (32,700);
}
);
layerId = "FE1E8944-1FC7-442F-ADEB-BCCAD8BD5749";
shapes = (
{
closed = 1;
nodes = (
(52,0,l),
(302,0,l),
(302,364,l),
(247,266,l),
(612,266,l),
(558,364,l),
(558,0,l),
(808,0,l),
(808,700,l),
(558,700,l),
(558,336,l),
(612,432,l),
(247,432,l),
(302,336,l),
(302,700,l),
(52,700,l)
);
}
);
width = 860;
},
{
anchors = (
{
name = bottom;
pos = (133,0);
},
{
name = center;
pos = (133,540);
},
{
name = top;
pos = (133,700);
},
{
name = topleft;
pos = (26,700);
}
);
layerId = "48FF9396-4D7D-4D4D-86EB-84D256671726";
shapes = (
{
closed = 1;
nodes = (
(50,0,l),
(54,0,l),
(54,348,l),
(53,347,l),
(213,347,l),
(212,348,l),
(212,0,l),
(216,0,l),
(216,700,l),
(212,700,l),
(212,350,l),
(213,351,l),
(53,351,l),
(54,350,l),
(54,700,l),
(50,700,l)
);
}
);
width = 266;
},
{
anchors = (
{
name = bottom;
pos = (257,0);
},
{
name = center;
pos = (257,546);
},
{
name = top;
pos = (257,700);
},
{
name = topleft;
pos = (40,700);
}
);
layerId = "486D3314-9C11-443C-84EF-BC26BC6EF4F4";
shapes = (
{
closed = 1;
nodes = (
(75,0,l),
(135,0,l),
(135,353,l),
(122,324,l),
(391,324,l),
(379,353,l),
(379,0,l),
(439,0,l),
(439,700,l),
(379,700,l),
(379,347,l),
(391,374,l),
(122,374,l),
(135,347,l),
(135,700,l),
(75,700,l)
);
}
);
width = 514;
},
{
anchors = (
{
name = bottom;
pos = (358,0);
},
{
name = center;
pos = (358,540);
},
{
name = top;
pos = (358,700);
},
{
name = topleft;
pos = (39,700);
}
);
layerId = "7F19C139-BC3E-4459-8995-898EF937B41C";
shapes = (
{
closed = 1;
nodes = (
(110,0,l),
(114,0,l),
(114,349,l),
(112,347,l),
(604,347,l),
(602,349,l),
(602,0,l),
(606,0,l),
(606,700,l),
(602,700,l),
(602,349,l),
(604,351,l),
(112,351,l),
(114,349,l),
(114,700,l),
(110,700,l)
);
}
);
width = 716;
},
{
anchors = (
{
name = bottom;
pos = (352,0);
},
{
name = center;
pos = (352,546);
},
{
name = top;
pos = (352,700);
},
{
name = topleft;
pos = (41,700);
}
);
layerId = "C8B4B1A0-F191-4142-9AA6-B9AE3C7BFB7E";
shapes = (
{
closed = 1;
nodes = (
(90,0,l),
(150,0,l),
(150,354,l),
(136,324,l),
(566,324,l),
(554,354,l),
(554,0,l),
(614,0,l),
(614,700,l),
(554,700,l),
(554,347,l),
(566,374,l),
(136,374,l),
(150,347,l),
(150,700,l),
(90,700,l)
);
}
);
width = 704;
}
);
metricRight = "=|";
unicode = 72;
userData = {
KernOnName = H;
};
},
{
glyphname = I;
kernLeft = KO_H;
kernRight = KO_H;
lastChange = "2023-01-20 19:21:54 +0000";
layers = (
{
anchors = (
{
name = bottom;
pos = (190,0);
},
{
name = ogonek;
pos = (340,0);
},
{
name = top;
pos = (190,700);
},
{
name = topleft;
pos = (40,700);
}
);
layerId = "CE731A6E-4225-469A-B727-F6A72D46F429";
shapes = (
{
closed = 1;
nodes = (
(40,700,l),
(40,0,l),
(340,0,l),
(340,700,l)
);
}
);
width = 380;
},
{
anchors = (
{
name = bottom;
pos = (160,0);
},
{
name = ogonek;
pos = (270,0);
},
{
name = top;
pos = (160,700);
},
{
name = topleft;
pos = (25,700);
}
);
layerId = "044BBB63-5120-4E70-970B-668628603B6C";
shapes = (
{
closed = 1;
nodes = (
(50,700,l),
(50,0,l),
(270,0,l),
(270,700,l)
);
}
);
width = 320;
},
{
anchors = (
{
name = bottom;
pos = (190,0);
},
{
name = ogonek;
pos = (340,0);
},
{
name = top;
pos = (190,700);
},
{
name = topleft;
pos = (40,700);
}
);
layerId = "2486E969-71F9-4F3C-B4C5-6F2EF4A28847";
shapes = (
{
closed = 1;
nodes = (
(40,700,l),
(40,0,l),
(340,0,l),
(340,700,l)
);
}
);
width = 380;
},
{
anchors = (
{
name = bottom;
pos = (177,0);
},
{
name = ogonek;
pos = (302,0);
},
{
name = top;
pos = (177,700);
},
{
name = topleft;
pos = (35,700);
}
);
layerId = "FE1E8944-1FC7-442F-ADEB-BCCAD8BD5749";
shapes = (
{
closed = 1;
nodes = (
(52,700,l),
(52,0,l),
(302,0,l),
(302,700,l)
);
}
);
width = 354;
},
{
anchors = (
{
name = bottom;
pos = (52,0);
},
{
name = ogonek;
pos = (54,0);
},
{
name = top;
pos = (52,700);
},
{
name = topleft;
pos = (-32,700);
}
);
layerId = "48FF9396-4D7D-4D4D-86EB-84D256671726";
shapes = (
{
closed = 1;
nodes = (
(50,700,l),
(50,0,l),
(54,0,l),
(54,700,l)
);
}
);
width = 104;
},
{
anchors = (
{
name = bottom;
pos = (105,0);
},
{
name = ogonek;
pos = (135,0);
},
{
name = top;
pos = (105,700);
},
{
name = topleft;
pos = (4,700);
}
);
layerId = "486D3314-9C11-443C-84EF-BC26BC6EF4F4";
shapes = (
{
closed = 1;
nodes = (
(75,700,l),
(75,0,l),
(135,0,l),
(135,700,l)
);
}
);
width = 210;
},
{
anchors = (
{
name = bottom;
pos = (112,0);
},
{
name = ogonek;
pos = (114,0);
},
{
name = top;
pos = (112,700);
},
{
name = topleft;
pos = (8,700);
}
);
layerId = "7F19C139-BC3E-4459-8995-898EF937B41C";
shapes = (
{
closed = 1;
nodes = (
(110,700,l),
(110,0,l),
(114,0,l),
(114,700,l)
);
}
);
width = 224;
},
{
anchors = (
{
name = bottom;
pos = (120,0);
},
{
name = ogonek;
pos = (150,0);
},
{
name = top;
pos = (120,700);
},
{
name = topleft;
pos = (11,700);
}
);
layerId = "C8B4B1A0-F191-4142-9AA6-B9AE3C7BFB7E";
shapes = (
{
closed = 1;
nodes = (
(90,700,l),
(90,0,l),
(150,0,l),
(150,700,l)
);
}
);
width = 240;
}
);
metricLeft = H;
metricRight = H;
unicode = 73;
userData = {
KernOnName = I;
};
},
{
glyphname = J;
kernLeft = KO_J;
kernRight = KO_U;
lastChange = "2023-01-20 19:22:13 +0000";
layers = (
{
anchors = (
{
name = bottom;
pos = (303,0);
},
{
name = top;
pos = (495,700);
}
);
guides = (
{
angle = 185;
pos = (76,164);
}
);
layerId = "CE731A6E-4225-469A-B727-F6A72D46F429";
shapes = (
{
closed = 1;
nodes = (
(519,-15,o),
(645,100,o),
(645,286,cs),
(645,700,l),
(345,700,l),
(345,235,ls),
(345,201,o),
(335,185,o),
(314,185,cs),
(290,185,o),
(284,204,o),
(284,278,c),
(4,246,l),
(4,85,o),
(122,-15,o),
(314,-15,cs)
);
}
);
width = 683;
},
{
anchors = (
{
name = bottom;
pos = (265,0);
},
{
name = top;
pos = (437,700);
}
);
layerId = "044BBB63-5120-4E70-970B-668628603B6C";
shapes = (
{
closed = 1;
nodes = (
(443,-12,o),
(547,86,o),
(547,252,cs),
(547,700,l),
(327,700,l),
(327,219,ls),
(327,161,o),
(308,135,o),
(268,135,cs),
(228,135,o),
(211,166,o),
(210,252,c),
(5,228,l),
(6,76,o),
(104,-12,o),
(268,-12,cs)
);
}
);
width = 594;
},
{
anchors = (
{
name = bottom;
pos = (343,0);
},
{
name = top;
pos = (535,700);
}
);
layerId = "2486E969-71F9-4F3C-B4C5-6F2EF4A28847";
shapes = (
{
closed = 1;
nodes = (
(551,-15,o),
(685,100,o),
(685,286,cs),
(685,700,l),
(385,700,l),
(385,255,ls),
(385,207,o),
(369,185,o),
(334,185,cs),
(299,185,o),
(284,214,o),
(284,278,c),
(4,246,l),
(4,84,o),
(130,-15,o),
(334,-15,cs)
);
}
);
width = 723;
},
{
anchors = (
{
name = bottom;
pos = (318,0);
},
{
name = top;
pos = (508,700);
}
);
layerId = "FE1E8944-1FC7-442F-ADEB-BCCAD8BD5749";
shapes = (
{
closed = 1;
nodes = (
(511,-13,o),
(633,94,o),
(633,271,cs),
(633,700,l),
(383,700,l),
(383,246,ls),
(383,183,o),
(360,154,o),
(310,154,cs),
(262,154,o),
(239,191,o),
(239,268,c),
(5,242,l),
(6,82,o),
(121,-13,o),
(310,-13,cs)
);
}
);
width = 682;
},
{
anchors = (
{
name = bottom;
pos = (76,0);
},
{
name = top;
pos = (144,700);
}
);
guides = (
{
angle = 185;
pos = (142,108);
}
);
layerId = "48FF9396-4D7D-4D4D-86EB-84D256671726";
shapes = (
{
closed = 1;
nodes = (
(126,-5,o),
(146,33,o),
(146,129,cs),
(146,700,l),
(142,700,l),
(142,129,ls),
(142,35,o),
(123,-1,o),
(76,-1,cs),
(30,-1,o),
(12,39,o),
(9,150,c),
(5,150,l),
(8,36,o),
(27,-5,o),
(76,-5,cs)
);
}
);
width = 194;
},
{
anchors = (
{
name = bottom;
pos = (156,0);
},
{
name = top;
pos = (279,700);
}
);
layerId = "486D3314-9C11-443C-84EF-BC26BC6EF4F4";
shapes = (
{
closed = 1;
nodes = (
(259,-7,o),
(308,53,o),
(308,178,cs),
(308,700,l),
(248,700,l),
(248,170,ls),
(248,82,o),
(222,48,o),
(156,48,cs),
(95,48,o),
(68,92,o),
(65,193,c),
(8,187,l),
(11,58,o),
(60,-7,o),
(156,-7,cs)
);
}
);
width = 379;
},
{
anchors = (
{
name = bottom;
pos = (195,0);
},
{
name = top;
pos = (376,700);
}
);
guides = (
{
angle = 185;
pos = (96,178);
}
);
layerId = "7F19C139-BC3E-4459-8995-898EF937B41C";
shapes = (
{
closed = 1;
nodes = (
(316,-5,o),
(378,63,o),
(378,199,cs),
(378,700,l),
(374,700,l),
(374,199,ls),
(374,65,o),
(313,-1,o),
(191,-1,cs),
(80,-1,o),
(20,75,o),
(15,220,c),
(11,220,l),
(16,72,o),
(78,-5,o),
(191,-5,cs)
);
}
);
width = 483;
},
{
anchors = (
{
name = bottom;
pos = (209,0);
},
{
name = top;
pos = (372,700);
}
);
layerId = "C8B4B1A0-F191-4142-9AA6-B9AE3C7BFB7E";
shapes = (
{
closed = 1;
nodes = (
(333,-7,o),
(401,64,o),
(401,203,cs),
(401,700,l),
(341,700,l),
(341,203,ls),
(341,93,o),
(299,47,o),
(202,47,cs),
(114,47,o),
(69,103,o),
(66,218,c),
(9,213,l),
(14,69,o),
(80,-7,o),
(202,-7,cs)
);
}
);
width = 487;
}
);
unicode = 74;
userData = {
KernOnName = J;
};
},
{
glyphname = K;
kernLeft = KO_H;
kernRight = KO_K;
layers = (
{
anchors = (
{
name = bottom;
pos = (375,0);
},
{
name = top;
pos = (375,700);
}
);
guides = (
{
angle = 235.033;
pos = (430,700);
}
);
layerId = "CE731A6E-4225-469A-B727-F6A72D46F429";
shapes = (
{
closed = 1;
nodes = (
(330,98,l),
(751,700,l),
(421,700,l),
(97,236,l)
);
},
{
closed = 1;
nodes = (
(40,0,l),
(359,0,l),
(340,700,l),
(40,700,l)
);
},
{
closed = 1;
nodes = (
(432,0,l),
(740,0,l),
(529,483,l),
(307,300,l)
);
}
);
width = 757;
},
{
anchors = (
{
name = bottom;
pos = (339,0);
},
{
name = top;
pos = (335,700);
}
);
layerId = "044BBB63-5120-4E70-970B-668628603B6C";
shapes = (
{
closed = 1;
nodes = (
(265,128,l),
(661,700,l),
(415,700,l),
(90,224,l)
);
},
{
closed = 1;
nodes = (
(50,0,l),
(279,0,l),
(270,700,l),
(50,700,l)
);
},
{
closed = 1;
nodes = (
(427,0,l),
(657,0,l),
(444,448,l),
(278,318,l)
);
}
);
width = 668;
},
{
anchors = (
{
name = bottom;
pos = (415,0);
},
{
name = top;
pos = (415,700);
}
);
guides = (
{
angle = 297.419;
pos = (577,0);
}
);
layerId = "2486E969-71F9-4F3C-B4C5-6F2EF4A28847";
shapes = (
{
closed = 1;
nodes = (
(340,98,l),
(820,700,l),
(474,700,l),
(91,214,l)
);
},
{
closed = 1;
nodes = (
(40,0,l),
(340,0,l),
(340,700,l),
(40,700,l)
);
},
{
closed = 1;
nodes = (
(499,0,l),
(823,0,l),
(564,433,l),
(330,270,l)
);
}
);
width = 829;
},
{
anchors = (
{
name = bottom;
pos = (397,0);
},
{
name = top;
pos = (393,700);
}
);
layerId = "FE1E8944-1FC7-442F-ADEB-BCCAD8BD5749";
shapes = (
{
closed = 1;
nodes = (
(302,119,l),
(773,700,l),
(484,700,l),
(95,216,l)
);
},
{
closed = 1;
nodes = (
(52,0,l),
(302,0,l),
(302,700,l),
(52,700,l)
);
},
{
closed = 1;
nodes = (
(506,0,l),
(776,0,l),
(515,428,l),
(320,292,l)
);
}
);
width = 784;
},
{
anchors = (
{
name = bottom;
pos = (128,0);
},
{
name = top;
pos = (119,700);
}
);
layerId = "48FF9396-4D7D-4D4D-86EB-84D256671726";
shapes = (
{
closed = 1;
nodes = (
(54,197,l),
(214,700,l),
(210,700,l),
(50,198,l)
);
},
{
closed = 1;
nodes = (
(50,0,l),
(54,0,l),
(54,700,l),
(50,700,l)
);
},
{
closed = 1;
nodes = (
(213,0,l),
(217,0,l),
(114,390,l),
(111,386,l)
);
}
);
width = 225;
},
{
anchors = (
{
name = bottom;
pos = (239,0);
},
{
name = top;
pos = (227,700);
}
);
layerId = "486D3314-9C11-443C-84EF-BC26BC6EF4F4";
shapes = (
{
closed = 1;
nodes = (
(102,127,l),
(421,700,l),
(356,700,l),
(101,241,l)
);
},
{
closed = 1;
nodes = (
(75,0,l),
(135,0,l),
(135,700,l),
(75,700,l)
);
},
{
closed = 1;
nodes = (
(361,0,l),
(423,0,l),
(242,432,l),
(206,371,l)
);
}
);
width = 434;
},
{
anchors = (
{
name = bottom;
pos = (310,0);
},
{
name = top;
pos = (284,700);
}
);
layerId = "7F19C139-BC3E-4459-8995-898EF937B41C";
shapes = (
{
closed = 1;
nodes = (
(114,224,l),
(539,700,l),
(534,700,l),
(112,228,l)
);
},
{
closed = 1;
nodes = (
(110,0,l),
(114,0,l),
(114,700,l),
(110,700,l)
);
},
{
closed = 1;
nodes = (
(541,0,l),
(546,0,l),
(272,403,l),
(269,401,l)
);
}
);
width = 563;
},
{
anchors = (
{
name = bottom;
pos = (308,0);
},
{
name = top;
pos = (290,700);
}
);
layerId = "C8B4B1A0-F191-4142-9AA6-B9AE3C7BFB7E";
shapes = (
{
closed = 1;
nodes = (
(107,139,l),
(550,700,l),
(477,700,l),
(107,230,l)
);
},
{
closed = 1;
nodes = (
(90,0,l),
(150,0,l),
(150,700,l),
(90,700,l)
);
},
{
closed = 1;
nodes = (
(490,0,l),
(557,0,l),
(298,422,l),
(256,381,l)
);
}
);
width = 571;
}
);
metricLeft = H;
unicode = 75;
},
{
glyphname = L;
kernLeft = KO_H;
kernRight = KO_L;
lastChange = "2023-01-20 19:21:54 +0000";
layers = (
{
anchors = (
{
name = bottom;
pos = (284,0);
},
{
name = center;
pos = (190,380);
},
{
name = top;
pos = (190,700);
},
{
name = topright;
pos = (400,540);
}
);
guides = (
{
angle = 110.506;
pos = (434,450);
}
);
layerId = "CE731A6E-4225-469A-B727-F6A72D46F429";
shapes = (
{
closed = 1;
nodes = (
(340,43,l),
(340,700,l),
(40,700,l),
(40,0,l),
(527,0,l),
(527,200,l),
(273,200,l)
);
}
);
width = 531;
},
{
anchors = (
{
name = bottom;
pos = (264,0);
},
{
name = center;
pos = (161,380);
},
{
name = top;
pos = (162,700);
},
{
name = topright;
pos = (329,540);
}
);
guides = (
{
angle = 110.794;
pos = (375,424);
}
);
layerId = "044BBB63-5120-4E70-970B-668628603B6C";
shapes = (
{
closed = 1;
nodes = (
(270,33,l),
(270,700,l),
(50,700,l),
(50,0,l),
(480,0,l),
(480,147,l),
(221,147,l)
);
}
);
width = 485;
},
{
anchors = (
{
name = bottom;
pos = (320,0);
},
{
name = center;
pos = (197,380);
},
{
name = top;
pos = (197,700);
},
{
name = topright;
pos = (423,540);
}
);
guides = (
{
angle = 117.474;
pos = (470,450);
}
);
layerId = "2486E969-71F9-4F3C-B4C5-6F2EF4A28847";
shapes = (
{
closed = 1;
nodes = (
(340,47,l),
(340,700,l),
(40,700,l),
(40,0,l),
(600,0,l),
(600,200,l),
(275,200,l)
);
}
);
width = 604;
},
{
anchors = (
{
name = bottom;
pos = (311,0);
},
{
name = center;
pos = (183,380);
},
{
name = top;
pos = (183,700);
},
{
name = topright;
pos = (383,540);
}
);
guides = (
{
angle = 116.865;
pos = (437,434);
}
);
layerId = "FE1E8944-1FC7-442F-ADEB-BCCAD8BD5749";
shapes = (
{
closed = 1;
nodes = (
(302,39,l),
(302,700,l),
(52,700,l),
(52,0,l),
(572,0,l),
(572,167,l),
(247,167,l)
);
}
);
width = 577;
},
{
anchors = (
{
name = bottom;
pos = (114,0);
},
{
name = center;
pos = (52,380);
},
{
name = top;
pos = (52,700);
},
{
name = topright;
pos = (116,540);
}
);
guides = (
{
angle = 100.102;
pos = (116,352);
}
);
layerId = "48FF9396-4D7D-4D4D-86EB-84D256671726";
shapes = (
{
closed = 1;
nodes = (
(54,3,l),
(54,700,l),
(50,700,l),
(50,0,l),
(178,0,l),
(178,4,l),
(53,4,l)
);
}
);
width = 183;
},
{
anchors = (
{
name = bottom;
pos = (201,0);
},
{
name = center;
pos = (106,380);
},
{
name = top;
pos = (107,700);
},
{
name = topright;
pos = (233,540);
}
);
guides = (
{
angle = 106.878;
pos = (233,377);
}
);
layerId = "486D3314-9C11-443C-84EF-BC26BC6EF4F4";
shapes = (
{
closed = 1;
nodes = (
(135,11,l),
(135,700,l),
(75,700,l),
(75,0,l),
(331,0,l),
(331,54,l),
(122,54,l)
);
}
);
width = 339;
},
{
anchors = (
{
name = bottom;
pos = (265,0);
},
{
name = center;
pos = (112,380);
},
{
name = top;
pos = (114,700);
},
{
name = topright;
pos = (276,540);
}
);
guides = (
{
angle = 114.895;
pos = (276,352);
}
);
layerId = "7F19C139-BC3E-4459-8995-898EF937B41C";
shapes = (
{
closed = 1;
nodes = (
(114,2,l),
(114,700,l),
(110,700,l),
(110,0,l),
(437,0,l),
(437,4,l),
(112,4,l)
);
}
);
width = 448;
},
{
anchors = (
{
name = bottom;
pos = (259,0);
},
{
name = center;
pos = (123,380);
},
{
name = top;
pos = (124,700);
},
{
name = topright;
pos = (294,540);
}
);
guides = (
{
angle = 114.028;
pos = (294,377);
}
);
layerId = "C8B4B1A0-F191-4142-9AA6-B9AE3C7BFB7E";
shapes = (
{
closed = 1;
nodes = (
(150,11,l),
(150,700,l),
(90,700,l),
(90,0,l),
(438,0,l),
(438,54,l),
(136,54,l)
);
}
);
width = 447;
}
);
metricLeft = H;
unicode = 76;
userData = {
KernOnName = L;
};
},
{
glyphname = M;
kernLeft = KO_H;
kernRight = KO_H;
layers = (
{
anchors = (
{
name = bottom;
pos = (442,0);
},
{
name = top;
pos = (442,700);
}
);
guides = (
{
angle = 293.269;
pos = (365,700);
}
);
layerId = "CE731A6E-4225-469A-B727-F6A72D46F429";
shapes = (
{
closed = 1;
nodes = (
(40,0,l),
(340,0,l),
(340,616,l),
(163,616,l),
(415,30,l),
(469,30,l),
(721,616,l),
(544,616,l),
(544,0,l),
(844,0,l),
(844,700,l),
(519,700,l),
(357,322,l),
(528,322,l),
(365,700,l),
(40,700,l)
);
}
);
width = 884;
},
{
anchors = (
{
name = bottom;
pos = (420,0);
},
{
name = top;
pos = (420,700);
}
);
layerId = "044BBB63-5120-4E70-970B-668628603B6C";
shapes = (
{
closed = 1;
nodes = (
(50,0,l),
(270,0,l),
(270,356,l),
(273,356,l),
(372,48,l),
(467,48,l),
(565,356,l),
(569,356,l),
(569,0,l),
(789,0,l),
(789,700,l),
(520,700,l),
(421,386,l),
(418,386,l),
(319,700,l),
(50,700,l)
);
}
);
width = 839;
},
{
anchors = (
{
name = bottom;
pos = (517,0);
},
{
name = top;
pos = (517,700);
}
);
guides = (
{
angle = 106.911;
pos = (344,320);
}
);
layerId = "2486E969-71F9-4F3C-B4C5-6F2EF4A28847";
shapes = (
{
closed = 1;
nodes = (
(40,0,l),
(340,0,l),
(340,320,l),
(344,320,l),
(432,30,l),
(602,30,l),
(690,320,l),
(694,320,l),
(694,0,l),
(994,0,l),
(994,700,l),
(602,700,l),
(519,427,l),
(515,427,l),
(432,700,l),
(40,700,l)
);
}
);
width = 1034;
},
{
anchors = (
{
name = bottom;
pos = (484,0);
},
{
name = top;
pos = (484,700);
}
);
guides = (
{
angle = 107.384;
pos = (306,383);
}
);
layerId = "FE1E8944-1FC7-442F-ADEB-BCCAD8BD5749";
shapes = (
{
closed = 1;
nodes = (
(52,0,l),
(302,0,l),
(302,383,l),
(306,383,l),
(413,41,l),
(555,41,l),
(662,383,l),
(666,383,l),
(666,0,l),
(916,0,l),
(916,700,l),
(589,700,l),
(486,371,l),
(482,371,l),
(379,700,l),
(52,700,l)
);
}
);
width = 968;
},
{
anchors = (
{
name = bottom;
pos = (178,0);
},
{
name = top;
pos = (178,700);
}
);
layerId = "48FF9396-4D7D-4D4D-86EB-84D256671726";
shapes = (
{
closed = 1;
nodes = (
(50,0,l),
(54,0,l),
(54,696,l),
(53,696,l),
(179,101,l),
(183,101,l),
(303,696,l),
(302,696,l),
(302,0,l),
(306,0,l),
(306,700,l),
(300,700,l),
(180,104,l),
(182,104,l),
(56,700,l),
(50,700,l)
);
}
);
width = 356;
},
{
anchors = (
{
name = bottom;
pos = (305,0);
},
{
name = top;
pos = (305,700);
}
);
layerId = "486D3314-9C11-443C-84EF-BC26BC6EF4F4";
shapes = (
{
closed = 1;
nodes = (
(75,0,l),
(135,0,l),
(135,632,l),
(139,632,l),
(270,85,l),
(340,85,l),
(471,632,l),
(475,632,l),
(475,0,l),
(535,0,l),
(535,700,l),
(434,700,l),
(307,172,l),
(303,172,l),
(176,700,l),
(75,700,l)
);
}
);
width = 610;
},
{
anchors = (
{
name = bottom;
pos = (402,0);
},
{
name = top;
pos = (402,700);
}
);
layerId = "7F19C139-BC3E-4459-8995-898EF937B41C";
shapes = (
{
closed = 1;
nodes = (
(110,0,l),
(114,0,l),
(114,695,l),
(113,695,l),
(399,93,l),
(404,93,l),
(690,695,l),
(689,695,l),
(689,0,l),
(693,0,l),
(693,700,l),
(688,700,l),
(402,97,l),
(401,97,l),
(115,700,l),
(110,700,l)
);
}
);
width = 803;
},
{
anchors = (
{
name = bottom;
pos = (407,0);
},
{
name = top;
pos = (407,700);
}
);
layerId = "C8B4B1A0-F191-4142-9AA6-B9AE3C7BFB7E";
shapes = (
{
closed = 1;
nodes = (
(90,0,l),
(150,0,l),
(150,648,l),
(154,648,l),
(372,83,l),
(442,83,l),
(660,648,l),
(664,648,l),
(664,0,l),
(724,0,l),
(724,700,l),
(624,700,l),
(409,142,l),
(405,142,l),
(190,700,l),
(90,700,l)
);
}
);
width = 814;
}
);
metricLeft = H;
metricRight = H;
unicode = 77;
},
{
glyphname = N;
kernLeft = KO_H;
kernRight = KO_H;
layers = (
{
anchors = (
{
name = bottom;
pos = (378,0);
},
{
name = top;
pos = (378,700);
}
);
guides = (
{
angle = 12.329;
pos = (345,218);
}
);
layerId = "CE731A6E-4225-469A-B727-F6A72D46F429";
shapes = (
{
closed = 1;
nodes = (
(416,700,l),
(416,154,l),
(648,154,l),
(290,700,l),
(40,700,l),
(40,0,l),
(340,0,l),
(340,546,l),
(108,546,l),
(466,0,l),
(716,0,l),
(716,700,l)
);
}
);
width = 756;
},
{
anchors = (
{
name = bottom;
pos = (353,0);
},
{
name = top;
pos = (353,700);
}
);
layerId = "044BBB63-5120-4E70-970B-668628603B6C";
shapes = (
{
closed = 1;
nodes = (
(435,700,l),
(435,218,l),
(573,218,l),
(231,700,l),
(50,700,l),
(50,0,l),
(270,0,l),
(270,482,l),
(132,482,l),
(474,0,l),
(655,0,l),
(655,700,l)
);
}
);
width = 705;
},
{
anchors = (
{
name = bottom;
pos = (448,0);
},
{
name = top;
pos = (448,700);
}
);
guides = (
{
angle = 21.66;
pos = (387,350);
}
);
layerId = "2486E969-71F9-4F3C-B4C5-6F2EF4A28847";
shapes = (
{
closed = 1;
nodes = (
(556,700,l),
(556,422,l),
(552,422,l),
(379,700,l),
(40,700,l),
(40,0,l),
(340,0,l),
(340,278,l),
(344,278,l),
(517,0,l),
(856,0,l),
(856,700,l)
);
}
);
width = 896;
},
{
anchors = (
{
name = bottom;
pos = (430,0);
},
{
name = top;
pos = (430,700);
}
);
layerId = "FE1E8944-1FC7-442F-ADEB-BCCAD8BD5749";
shapes = (
{
closed = 1;
nodes = (
(559,700,l),
(559,380,l),
(555,380,l),
(324,700,l),
(52,700,l),
(52,0,l),
(302,0,l),
(302,320,l),
(306,320,l),
(537,0,l),
(809,0,l),
(809,700,l)
);
}
);
width = 861;
},
{
anchors = (
{
name = bottom;
pos = (137,0);
},
{
name = top;
pos = (137,700);
}
);
layerId = "48FF9396-4D7D-4D4D-86EB-84D256671726";
shapes = (
{
closed = 1;
nodes = (
(220,700,l),
(220,13,l),
(221,16,l),
(53,700,l),
(50,700,l),
(50,0,l),
(54,0,l),
(54,689,l),
(53,686,l),
(221,0,l),
(224,0,l),
(224,700,l)
);
}
);
width = 274;
},
{
anchors = (
{
name = bottom;
pos = (253,0);
},
{
name = top;
pos = (253,700);
}
);
layerId = "486D3314-9C11-443C-84EF-BC26BC6EF4F4";
shapes = (
{
closed = 1;
nodes = (
(374,700,l),
(374,133,l),
(370,133,l),
(148,700,l),
(75,700,l),
(75,0,l),
(135,0,l),
(135,567,l),
(139,567,l),
(361,0,l),
(434,0,l),
(434,700,l)
);
}
);
width = 509;
},
{
anchors = (
{
name = bottom;
pos = (347,0);
},
{
name = top;
pos = (347,700);
}
);
layerId = "7F19C139-BC3E-4459-8995-898EF937B41C";
shapes = (
{
closed = 1;
nodes = (
(579,700,l),
(579,4,l),
(581,4,l),
(114,700,l),
(110,700,l),
(110,0,l),
(114,0,l),
(114,696,l),
(112,696,l),
(579,0,l),
(583,0,l),
(583,700,l)
);
}
);
width = 693;
},
{
anchors = (
{
name = bottom;
pos = (345,0);
},
{
name = top;
pos = (345,700);
}
);
guides = (
{
angle = 30.433;
pos = (251,635);
},
{
angle = 30.433;
pos = (251,-65);
}
);
layerId = "C8B4B1A0-F191-4142-9AA6-B9AE3C7BFB7E";
shapes = (
{
closed = 1;
nodes = (
(539,700,l),
(539,86,l),
(535,86,l),
(169,700,l),
(90,700,l),
(90,0,l),
(150,0,l),
(150,614,l),
(154,614,l),
(520,0,l),
(599,0,l),
(599,700,l)
);
}
);
width = 689;
}
);
metricLeft = H;
metricRight = H;
unicode = 78;
},
{
glyphname = Eng;
kernLeft = KO_H;
kernRight = KO_Iacute;
layers = (
{
layerId = "CE731A6E-4225-469A-B727-F6A72D46F429";
shapes = (
{
closed = 1;
nodes = (
(646,-195,o),
(715,-130,o),
(715,0,c),
(716,700,l),
(416,700,l),
(416,508,l),
(290,700,l),
(40,700,l),
(40,0,l),
(340,0,l),
(340,192,l),
(416,76,l),
(416,30,ls),
(416,-10,o),
(405,-25,o),
(374,-25,cs),
(368,-25,o),
(361,-24,o),
(354,-22,c),
(354,-171,l),
(409,-187,o),
(468,-195,o),
(520,-195,cs)
);
}
);
width = 756;
},
{
layerId = "044BBB63-5120-4E70-970B-668628603B6C";
shapes = (
{
closed = 1;
nodes = (
(598,-194,o),
(654,-132,o),
(655,0,c),
(655,700,l),
(435,700,l),
(435,412,l),
(231,700,l),
(50,700,l),
(50,0,l),
(270,0,l),
(270,288,l),
(435,55,l),
(435,9,ls),
(435,-45,o),
(416,-68,o),
(370,-68,cs),
(358,-68,o),
(345,-66,o),
(333,-62,c),
(333,-172,l),
(380,-186,o),
(432,-194,o),
(478,-194,cs)
);
}
);
width = 705;
},
{
layerId = "2486E969-71F9-4F3C-B4C5-6F2EF4A28847";
shapes = (
{
closed = 1;
nodes = (
(781,-195,o),
(856,-135,o),
(856,0,cs),
(856,700,l),
(556,700,l),
(556,467,l),
(379,700,l),
(40,700,l),
(40,0,l),
(340,0,l),
(340,283,l),
(548,10,l),
(548,0,ls),
(548,-16,o),
(527,-25,o),
(500,-25,cs),
(487,-25,o),
(479,-24,o),
(464,-22,c),
(464,-171,l),
(524,-187,o),
(587,-195,o),
(644,-195,cs)
);
}
);
width = 896;
},
{
layerId = "FE1E8944-1FC7-442F-ADEB-BCCAD8BD5749";
shapes = (
{
closed = 1;
nodes = (
(747,-195,o),
(810,-128,o),
(810,19,c),
(809,700,l),
(559,700,l),
(559,410,l),
(324,700,l),
(52,700,l),
(52,0,l),
(302,0,l),
(302,325,l),
(557,10,l),
(557,0,ls),
(557,-37,o),
(526,-53,o),
(483,-53,cs),
(470,-53,o),
(455,-51,o),
(441,-48,c),
(441,-172,l),
(496,-187,o),
(555,-195,o),
(608,-195,cs)
);
}
);
width = 862;
},
{
layerId = "48FF9396-4D7D-4D4D-86EB-84D256671726";
shapes = (
{
closed = 1;
nodes = (
(203,-185,o),
(224,-145,o),
(224,-83,cs),
(224,700,l),
(220,700,l),
(220,20,l),
(53,700,l),
(50,700,l),
(50,0,l),
(54,0,l),
(54,682,l),
(220,4,l),
(220,-83,ls),
(220,-150,o),
(195,-181,o),
(144,-181,cs),
(127,-181,o),
(106,-175,o),
(91,-167,c),
(90,-171,l),
(105,-179,o),
(126,-185,o),
(144,-185,cs)
);
}
);
width = 274;
},
{
layerId = "486D3314-9C11-443C-84EF-BC26BC6EF4F4";
shapes = (
{
closed = 1;
nodes = (
(390,-185,o),
(434,-134,o),
(434,-36,cs),
(434,700,l),
(374,700,l),
(374,155,l),
(148,700,l),
(75,700,l),
(75,0,l),
(135,0,l),
(135,576,l),
(374,0,l),
(374,-36,ls),
(374,-107,o),
(351,-134,o),
(289,-134,cs),
(269,-134,o),
(246,-130,o),
(231,-123,c),
(225,-170,l),
(244,-179,o),
(276,-185,o),
(304,-185,cs)
);
}
);
width = 509;
},
{
layerId = "7F19C139-BC3E-4459-8995-898EF937B41C";
shapes = (
{
closed = 1;
nodes = (
(533,-185,o),
(583,-130,o),
(583,-20,cs),
(583,700,l),
(579,700,l),
(579,7,l),
(114,700,l),
(110,700,l),
(110,0,l),
(114,0,l),
(114,693,l),
(579,0,l),
(579,-20,ls),
(579,-128,o),
(530,-181,o),
(432,-181,cs),
(396,-181,o),
(357,-174,o),
(329,-163,c),
(328,-167,l),
(356,-178,o),
(396,-185,o),
(432,-185,cs)
);
}
);
width = 693;
},
{
layerId = "C8B4B1A0-F191-4142-9AA6-B9AE3C7BFB7E";
shapes = (
{
closed = 1;
nodes = (
(544,-185,o),
(599,-124,o),
(599,-8,cs),
(599,700,l),
(539,700,l),
(539,110,l),
(169,700,l),
(90,700,l),
(90,0,l),
(150,0,l),
(150,620,l),
(539,0,l),
(539,-8,ls),
(539,-95,o),
(506,-132,o),
(430,-132,cs),
(408,-132,o),
(387,-129,o),
(363,-122,c),
(352,-173,l),
(381,-181,o),
(413,-185,o),
(438,-185,cs)
);
}
);
width = 689;
}
);
unicode = 330;
},
{
glyphname = O;
kernLeft = KO_O;
kernRight = KO_O;
lastChange = "2023-01-20 19:21:54 +0000";
layers = (
{
anchors = (
{
name = "#exit";
pos = (685,700);
},
{
name = bottom;
pos = (355,0);
},
{
name = center;
pos = (355,350);
},
{
name = ogonek;
pos = (436,10);
},
{
name = top;
pos = (355,700);
},
{
name = topleft;
pos = (67,700);
},
{
name = topright;
pos = (476,700);
}
);
layerId = "CE731A6E-4225-469A-B727-F6A72D46F429";
shapes = (
{
closed = 1;
nodes = (
(558,-15,o),
(685,89,o),
(685,256,cs),
(685,444,ls),
(685,611,o),
(558,715,o),
(355,715,cs),
(151,715,o),
(25,611,o),
(25,444,cs),
(25,256,ls),
(25,89,o),
(151,-15,o),
(355,-15,cs)
);
},
{
closed = 1;
nodes = (
(335,185,o),
(325,196,o),
(325,220,cs),
(325,480,ls),
(325,504,o),
(335,515,o),
(355,515,cs),
(375,515,o),
(385,504,o),
(385,480,cs),
(385,220,ls),
(385,196,o),
(375,185,o),
(355,185,cs)
);
}
);
width = 710;
},
{
anchors = (
{
name = "#exit";
pos = (640,700);
},
{
name = bottom;
pos = (338,0);
},
{
name = center;
pos = (338,350);
},
{
name = ogonek;
pos = (435,10);
},
{
name = top;
pos = (338,700);
},
{
name = topleft;
pos = (54,700);
},
{
name = topright;
pos = (440,697);
}
);
layerId = "044BBB63-5120-4E70-970B-668628603B6C";
shapes = (
{
closed = 1;
nodes = (
(527,-12,o),
(640,85,o),
(640,248,cs),
(640,452,ls),
(640,615,o),
(527,712,o),
(338,712,cs),
(150,712,o),
(37,615,o),
(37,452,cs),
(37,248,ls),
(37,85,o),
(150,-12,o),
(338,-12,cs)
);
},
{
closed = 1;
nodes = (
(284,135,o),
(257,167,o),
(257,232,cs),
(257,468,ls),
(257,533,o),
(284,565,o),
(338,565,cs),
(393,565,o),
(420,533,o),
(420,468,cs),
(420,232,ls),
(420,167,o),
(393,135,o),
(338,135,cs)
);
}
);
width = 677;
},
{
anchors = (
{
name = "#exit";
pos = (820,700);
},
{
name = bottom;
pos = (425,0);
},
{
name = center;
pos = (425,350);
},
{
name = ogonek;
pos = (499,10);
},
{
name = top;
pos = (425,700);
},
{
name = topleft;
pos = (35,700);
},
{
name = topright;
pos = (521,700);
}
);
layerId = "2486E969-71F9-4F3C-B4C5-6F2EF4A28847";
shapes = (
{
closed = 1;
nodes = (
(670,-15,o),
(820,101,o),
(820,286,cs),
(820,414,ls),
(820,599,o),
(670,715,o),
(425,715,cs),
(179,715,o),
(30,599,o),
(30,414,cs),
(30,286,ls),
(30,101,o),
(179,-15,o),
(425,-15,cs)
);
},
{
closed = 1;
nodes = (
(361,185,o),
(330,221,o),
(330,295,cs),
(330,405,ls),
(330,479,o),
(361,515,o),
(425,515,cs),
(489,515,o),
(520,479,o),
(520,405,cs),
(520,295,ls),
(520,221,o),
(489,185,o),
(425,185,cs)
);
}
);
width = 850;
},
{
anchors = (
{
name = "#exit";
pos = (788,700);
},
{
name = bottom;
pos = (414,0);
},
{
name = center;
pos = (414,350);
},
{
name = ogonek;
pos = (520,10);
},
{
name = top;
pos = (414,700);
},
{
name = topleft;
pos = (38,700);
},
{
name = topright;
pos = (512,698);
}
);
layerId = "FE1E8944-1FC7-442F-ADEB-BCCAD8BD5749";
shapes = (
{
closed = 1;
nodes = (
(648,-13,o),
(788,100,o),
(788,288,cs),
(788,412,ls),
(788,600,o),
(648,713,o),
(414,713,cs),
(180,713,o),
(40,600,o),
(40,412,cs),
(40,288,ls),
(40,100,o),
(180,-13,o),
(414,-13,cs)
);
},
{
closed = 1;
nodes = (
(331,154,o),
(290,200,o),
(290,296,cs),
(290,404,ls),
(290,500,o),
(331,546,o),
(414,546,cs),
(497,546,o),
(538,500,o),
(538,404,cs),
(538,296,ls),
(538,200,o),
(497,154,o),
(414,154,cs)
);
}
);
width = 828;
},
{
anchors = (
{
name = "#exit";
pos = (223,700);
},
{
name = bottom;
pos = (134,0);
},
{
name = center;
pos = (134,350);
},
{
name = ogonek;
pos = (182,10);
},
{
name = top;
pos = (134,700);
},
{
name = topleft;
pos = (39,700);
},
{
name = topright;
pos = (172,690);
}
);
layerId = "48FF9396-4D7D-4D4D-86EB-84D256671726";
shapes = (
{
closed = 1;
nodes = (
(193,-5,o),
(223,37,o),
(223,122,cs),
(223,578,ls),
(223,664,o),
(193,705,o),
(134,705,cs),
(75,705,o),
(45,664,o),
(45,578,cs),
(45,122,ls),
(45,37,o),
(75,-5,o),
(134,-5,cs)
);
},
{
closed = 1;
nodes = (
(77,-1,o),
(49,40,o),
(49,122,cs),
(49,578,ls),
(49,661,o),
(77,701,o),
(134,701,cs),
(191,701,o),
(219,661,o),
(219,578,cs),
(219,122,ls),
(219,40,o),
(191,-1,o),
(134,-1,cs)
);
}
);
width = 268;
},
{
anchors = (
{
name = "#exit";
pos = (438,700);
},
{
name = bottom;
pos = (249,0);
},
{
name = center;
pos = (249,350);
},
{
name = ogonek;
pos = (361,10);
},
{
name = top;
pos = (249,700);
},
{
name = topleft;
pos = (52,700);
},
{
name = topright;
pos = (320,692);
}
);
layerId = "486D3314-9C11-443C-84EF-BC26BC6EF4F4";
shapes = (
{
closed = 1;
nodes = (
(371,-7,o),
(438,65,o),
(438,198,cs),
(438,502,ls),
(438,635,o),
(371,707,o),
(249,707,cs),
(126,707,o),
(60,635,o),
(60,502,cs),
(60,198,ls),
(60,65,o),
(126,-7,o),
(249,-7,cs)
);
},
{
closed = 1;
nodes = (
(161,47,o),
(120,95,o),
(120,198,cs),
(120,502,ls),
(120,602,o),
(163,653,o),
(249,653,cs),
(335,653,o),
(378,603,o),
(378,502,cs),
(378,198,ls),
(378,94,o),
(338,47,o),
(249,47,cs)
);
}
);
width = 498;
},
{
anchors = (
{
name = "#exit";
pos = (630,700);
},
{
name = bottom;
pos = (359,0);
},
{
name = center;
pos = (359,350);
},
{
name = ogonek;
pos = (625,10);
},
{
name = top;
pos = (359,700);
},
{
name = topleft;
pos = (55,700);
},
{
name = topright;
pos = (470,690);
}
);
layerId = "7F19C139-BC3E-4459-8995-898EF937B41C";
shapes = (
{
closed = 1;
nodes = (
(538,-5,o),
(630,98,o),
(630,299,cs),
(630,401,ls),
(630,602,o),
(538,705,o),
(360,705,cs),
(182,705,o),
(90,602,o),
(90,401,cs),
(90,299,ls),
(90,98,o),
(182,-5,o),
(360,-5,cs)
);
},
{
closed = 1;
nodes = (
(185,-1,o),
(94,99,o),
(94,299,cs),
(94,401,ls),
(94,601,o),
(185,701,o),
(360,701,cs),
(535,701,o),
(626,601,o),
(626,401,cs),
(626,299,ls),
(626,99,o),
(535,-1,o),
(360,-1,cs)
);
}
);
width = 720;
},
{
anchors = (
{
name = "#exit";
pos = (619,700);
},
{
name = bottom;
pos = (347,0);
},
{
name = center;
pos = (347,350);
},
{
name = ogonek;
pos = (534,10);
},
{
name = top;
pos = (347,700);
},
{
name = topleft;
pos = (45,700);
},
{
name = topright;
pos = (436,692);
}
);
layerId = "C8B4B1A0-F191-4142-9AA6-B9AE3C7BFB7E";
shapes = (
{
closed = 1;
nodes = (
(524,-7,o),
(619,89,o),
(619,270,cs),
(619,430,ls),
(619,611,o),
(524,707,o),
(347,707,cs),
(171,707,o),
(75,611,o),
(75,430,cs),
(75,270,ls),
(75,89,o),
(171,-7,o),
(347,-7,cs)
);
},
{
closed = 1;
nodes = (
(206,47,o),
(135,124,o),
(135,283,cs),
(135,417,ls),
(135,575,o),
(206,653,o),
(347,653,cs),
(488,653,o),
(559,576,o),
(559,417,cs),
(559,283,ls),
(559,124,o),
(489,47,o),
(347,47,cs)
);
}
);
width = 694;
}
);
metricRight = "=|";
unicode = 79;
userData = {
KernOnName = O;
};
},
{
glyphname = P;
kernLeft = KO_H;
kernRight = KO_P;
layers = (
{
layerId = "CE731A6E-4225-469A-B727-F6A72D46F429";
shapes = (
{
closed = 1;
nodes = (
(40,0,l),
(340,0,l),
(340,563,l),
(273,500,l),
(357,500,ls),
(384,500,o),
(397,480,o),
(397,437,cs),
(397,425,ls),
(397,382,o),
(384,362,o),
(357,362,cs),
(329,362,l),
(329,162,l),
(411,162,ls),
(588,162,o),
(687,243,o),
(687,389,cs),
(687,468,ls),
(687,616,o),
(587,700,o),
(411,700,cs),
(40,700,l)
);
}
);
width = 699;
},
{
layerId = "044BBB63-5120-4E70-970B-668628603B6C";
shapes = (
{
closed = 1;
nodes = (
(50,0,l),
(270,0,l),
(270,599,l),
(221,553,l),
(316,553,ls),
(368,553,o),
(392,523,o),
(392,459,cs),
(392,432,ls),
(392,369,o),
(367,339,o),
(316,339,cs),
(261,339,l),
(261,192,l),
(359,192,ls),
(518,192,o),
(605,267,o),
(605,406,cs),
(605,481,ls),
(605,623,o),
(518,700,o),
(359,700,cs),
(50,700,l)
);
}
);
width = 620;
},
{
layerId = "2486E969-71F9-4F3C-B4C5-6F2EF4A28847";
shapes = (
{
closed = 1;
nodes = (
(40,0,l),
(340,0,l),
(340,563,l),
(273,500,l),
(387,500,ls),
(434,500,o),
(457,480,o),
(457,437,cs),
(457,425,ls),
(457,382,o),
(434,362,o),
(387,362,cs),
(329,362,l),
(329,162,l),
(456,162,ls),
(643,162,o),
(747,243,o),
(747,389,cs),
(747,468,ls),
(747,616,o),
(642,700,o),
(456,700,cs),
(40,700,l)
);
}
);
width = 759;
},
{
layerId = "FE1E8944-1FC7-442F-ADEB-BCCAD8BD5749";
shapes = (
{
closed = 1;
nodes = (
(52,0,l),
(302,0,l),
(302,586,l),
(246,533,l),
(370,533,ls),
(434,533,o),
(465,505,o),
(465,446,cs),
(465,434,ls),
(465,376,o),
(433,348,o),
(370,348,cs),
(292,348,l),
(292,181,l),
(428,181,ls),
(608,181,o),
(707,260,o),
(707,404,cs),
(707,472,ls),
(707,619,o),
(607,700,o),
(428,700,cs),
(52,700,l)
);
}
);
width = 723;
},
{
layerId = "48FF9396-4D7D-4D4D-86EB-84D256671726";
shapes = (
{
closed = 1;
nodes = (
(50,0,l),
(54,0,l),
(54,697,l),
(53,696,l),
(96,696,ls),
(160,696,o),
(189,648,o),
(189,539,cs),
(189,430,ls),
(189,326,o),
(159,278,o),
(96,278,cs),
(53,278,l),
(53,274,l),
(96,274,ls),
(162,274,o),
(193,324,o),
(193,430,cs),
(193,539,ls),
(193,650,o),
(163,700,o),
(96,700,cs),
(50,700,l)
);
}
);
width = 208;
},
{
layerId = "486D3314-9C11-443C-84EF-BC26BC6EF4F4";
shapes = (
{
closed = 1;
nodes = (
(75,0,l),
(135,0,l),
(135,662,l),
(122,650,l),
(211,650,ls),
(294,650,o),
(329,608,o),
(329,512,cs),
(329,436,ls),
(329,343,o),
(292,303,o),
(211,303,cs),
(132,303,l),
(132,253,l),
(223,253,ls),
(333,253,o),
(388,315,o),
(388,436,cs),
(388,512,ls),
(388,638,o),
(334,700,o),
(223,700,cs),
(75,700,l)
);
}
);
width = 411;
},
{
guides = (
{
angle = 135.338;
pos = (508,274);
}
);
layerId = "7F19C139-BC3E-4459-8995-898EF937B41C";
shapes = (
{
closed = 1;
nodes = (
(110,0,l),
(114,0,l),
(114,698,l),
(112,696,l),
(288,696,ls),
(434,696,o),
(504,629,o),
(504,489,cs),
(504,480,ls),
(504,347,o),
(430,278,o),
(288,278,cs),
(112,278,l),
(112,274,l),
(288,274,ls),
(433,274,o),
(508,345,o),
(508,480,cs),
(508,489,ls),
(508,631,o),
(436,700,o),
(288,700,cs),
(110,700,l)
);
}
);
width = 541;
},
{
layerId = "C8B4B1A0-F191-4142-9AA6-B9AE3C7BFB7E";
shapes = (
{
closed = 1;
nodes = (
(90,0,l),
(150,0,l),
(150,668,l),
(136,650,l),
(282,650,ls),
(401,650,o),
(451,604,o),
(451,494,cs),
(451,453,ls),
(451,351,o),
(400,304,o),
(282,304,cs),
(146,304,l),
(146,254,l),
(298,254,ls),
(438,254,o),
(511,322,o),
(511,453,cs),
(511,494,ls),
(511,631,o),
(440,700,o),
(298,700,cs),
(90,700,l)
);
}
);
width = 538;
}
);
metricLeft = H;
unicode = 80;
},
{
glyphname = Thorn;
kernLeft = KO_H;
kernRight = KO_Thorn;
layers = (
{
layerId = "CE731A6E-4225-469A-B727-F6A72D46F429";
shapes = (
{
closed = 1;
nodes = (
(40,0,l),
(340,0,l),
(340,482,l),
(273,419,l),
(357,419,ls),
(384,419,o),
(397,399,o),
(397,356,cs),
(397,344,ls),
(397,301,o),
(384,281,o),
(357,281,cs),
(329,281,l),
(329,81,l),
(411,81,ls),
(588,81,o),
(687,162,o),
(687,308,cs),
(687,387,ls),
(687,535,o),
(587,619,o),
(411,619,cs),
(340,619,l),
(340,700,l),
(40,700,l)
);
}
);
width = 699;
},
{
layerId = "044BBB63-5120-4E70-970B-668628603B6C";
shapes = (
{
closed = 1;
nodes = (
(50,0,l),
(270,0,l),
(270,503,l),
(221,457,l),
(316,457,ls),
(368,457,o),
(392,427,o),
(392,363,cs),
(392,336,ls),
(392,273,o),
(367,243,o),
(316,243,cs),
(261,243,l),
(261,96,l),
(359,96,ls),
(518,96,o),
(605,171,o),
(605,310,cs),
(605,385,ls),
(605,527,o),
(518,604,o),
(359,604,cs),
(270,604,l),
(270,700,l),
(50,700,l)
);
}
);
width = 620;
},
{
layerId = "2486E969-71F9-4F3C-B4C5-6F2EF4A28847";
shapes = (
{
closed = 1;
nodes = (
(40,0,l),
(340,0,l),
(340,482,l),
(273,419,l),
(387,419,ls),
(434,419,o),
(457,399,o),
(457,356,cs),
(457,344,ls),
(457,301,o),
(434,281,o),
(387,281,cs),
(329,281,l),
(329,81,l),
(456,81,ls),
(643,81,o),
(747,162,o),
(747,308,cs),
(747,387,ls),
(747,535,o),
(642,619,o),
(456,619,cs),
(340,619,l),
(340,700,l),
(40,700,l)
);
}
);
width = 759;
},
{
layerId = "FE1E8944-1FC7-442F-ADEB-BCCAD8BD5749";
shapes = (
{
closed = 1;
nodes = (
(52,0,l),
(302,0,l),
(302,496,l),
(246,443,l),
(370,443,ls),
(434,443,o),
(465,415,o),
(465,356,cs),
(465,344,ls),
(465,286,o),
(433,258,o),
(370,258,cs),
(292,258,l),
(292,91,l),
(428,91,ls),
(608,91,o),
(707,170,o),
(707,314,cs),
(707,382,ls),
(707,529,o),
(607,610,o),
(428,610,cs),
(302,610,l),
(302,700,l),
(52,700,l)
);
}
);
width = 723;
},
{
layerId = "48FF9396-4D7D-4D4D-86EB-84D256671726";
shapes = (
{
closed = 1;
nodes = (
(50,0,l),
(54,0,l),
(54,560,l),
(53,559,l),
(96,559,ls),
(160,559,o),
(189,511,o),
(189,402,cs),
(189,293,ls),
(189,189,o),
(159,141,o),
(96,141,cs),
(53,141,l),
(53,137,l),
(96,137,ls),
(162,137,o),
(193,187,o),
(193,293,cs),
(193,402,ls),
(193,513,o),
(163,563,o),
(96,563,cs),
(54,563,l),
(54,700,l),
(50,700,l)
);
}
);
width = 208;
},
{
layerId = "486D3314-9C11-443C-84EF-BC26BC6EF4F4";
shapes = (
{
closed = 1;
nodes = (
(75,0,l),
(135,0,l),
(135,536,l),
(122,524,l),
(211,524,ls),
(294,524,o),
(329,482,o),
(329,386,cs),
(329,310,ls),
(329,217,o),
(292,177,o),
(211,177,cs),
(132,177,l),
(132,127,l),
(223,127,ls),
(333,127,o),
(388,189,o),
(388,310,cs),
(388,386,ls),
(388,512,o),
(334,574,o),
(223,574,cs),
(135,574,l),
(135,700,l),
(75,700,l)
);
}
);
width = 411;
},
{
guides = (
{
angle = 135.338;
pos = (508,274);
}
);
layerId = "7F19C139-BC3E-4459-8995-898EF937B41C";
shapes = (
{
closed = 1;
nodes = (
(110,0,l),
(114,0,l),
(114,561,l),
(112,559,l),
(288,559,ls),
(434,559,o),
(504,492,o),
(504,352,cs),
(504,343,ls),
(504,210,o),
(430,141,o),
(288,141,cs),
(112,141,l),
(112,137,l),
(288,137,ls),
(433,137,o),
(508,208,o),
(508,343,cs),
(508,352,ls),
(508,494,o),
(436,563,o),
(288,563,cs),
(114,563,l),
(114,700,l),
(110,700,l)
);
}
);
width = 541;
},
{
layerId = "C8B4B1A0-F191-4142-9AA6-B9AE3C7BFB7E";
shapes = (
{
closed = 1;
nodes = (
(90,0,l),
(150,0,l),
(150,541,l),
(136,523,l),
(282,523,ls),
(401,523,o),
(451,477,o),
(451,367,cs),
(451,326,ls),
(451,224,o),
(400,177,o),
(282,177,cs),
(146,177,l),
(146,127,l),
(298,127,ls),
(438,127,o),
(511,195,o),
(511,326,cs),
(511,367,ls),
(511,504,o),
(440,573,o),
(298,573,cs),
(150,573,l),
(150,700,l),
(90,700,l)
);
}
);
width = 538;
}
);
metricLeft = H;
unicode = 222;
},
{
glyphname = Q;
kernLeft = KO_O;
kernRight = KO_Q;
layers = (
{
layerId = "CE731A6E-4225-469A-B727-F6A72D46F429";
shapes = (
{
closed = 1;
nodes = (
(684,-109,l),
(710,93,l),
(315,163,l),
(224,2,l)
);
},
{
alignment = -1;
ref = O;
}
);
width = 710;
},
{
layerId = "044BBB63-5120-4E70-970B-668628603B6C";
shapes = (
{
closed = 1;
nodes = (
(642,-93,l),
(661,55,l),
(294,119,l),
(227,1,l)
);
},
{
alignment = -1;
ref = O;
}
);
width = 676;
},
{
layerId = "2486E969-71F9-4F3C-B4C5-6F2EF4A28847";
shapes = (
{
closed = 1;
nodes = (
(804,-109,l),
(830,93,l),
(367,161,l),
(276,0,l)
);
},
{
alignment = -1;
ref = O;
}
);
width = 850;
},
{
layerId = "FE1E8944-1FC7-442F-ADEB-BCCAD8BD5749";
shapes = (
{
closed = 1;
nodes = (
(781,-100,l),
(802,69,l),
(357,134,l),
(281,0,l)
);
},
{
alignment = -1;
ref = O;
}
);
width = 829;
},
{
layerId = "48FF9396-4D7D-4D4D-86EB-84D256671726";
shapes = (
{
closed = 1;
nodes = (
(236,-45,l),
(236,-41,l),
(100,3,l),
(102,-1,l)
);
},
{
alignment = -1;
ref = O;
}
);
width = 258;
},
{
layerId = "486D3314-9C11-443C-84EF-BC26BC6EF4F4";
shapes = (
{
closed = 1;
nodes = (
(448,-61,l),
(453,-12,l),
(210,33,l),
(192,-1,l)
);
},
{
alignment = -1;
ref = O;
}
);
width = 498;
},
{
layerId = "7F19C139-BC3E-4459-8995-898EF937B41C";
shapes = (
{
closed = 1;
nodes = (
(667,-57,l),
(667,-52,l),
(310,2,l),
(305,-1,l)
);
},
{
alignment = -1;
ref = O;
}
);
width = 723;
},
{
layerId = "C8B4B1A0-F191-4142-9AA6-B9AE3C7BFB7E";
shapes = (
{
closed = 1;
nodes = (
(636,-65,l),
(641,-16,l),
(296,31,l),
(270,0,l)
);
},
{
alignment = -1;
ref = O;
}
);
width = 693;
}
);
unicode = 81;
},
{
glyphname = R;
kernLeft = KO_H;
kernRight = KO_R;
layers = (
{
anchors = (
{
name = bottom;
pos = (371,0);
},
{
name = top;
pos = (371,700);
}
);
guides = (
{
angle = 91.664;
pos = (425,241);
}
);
layerId = "CE731A6E-4225-469A-B727-F6A72D46F429";
shapes = (
{
closed = 1;
nodes = (
(40,0,l),
(340,0,l),
(340,563,l),
(273,500,l),
(364,500,ls),
(393,500,o),
(407,484,o),
(407,451,cs),
(407,441,ls),
(407,408,o),
(393,392,o),
(364,392,cs),
(329,392,l),
(329,192,l),
(436,192,ls),
(610,192,o),
(707,268,o),
(707,406,cs),
(707,481,ls),
(707,621,o),
(609,700,o),
(436,700,cs),
(40,700,l)
);
},
{
closed = 1;
nodes = (
(415,0,l),
(721,0,l),
(613,246,l),
(315,246,l)
);
}
);
width = 741;
},
{
anchors = (
{
name = bottom;
pos = (331,0);
},
{
name = top;
pos = (326,700);
}
);
layerId = "044BBB63-5120-4E70-970B-668628603B6C";
shapes = (
{
closed = 1;
nodes = (
(50,0,l),
(270,0,l),
(270,599,l),
(221,553,l),
(323,553,ls),
(374,553,o),
(399,526,o),
(399,469,cs),
(399,447,ls),
(399,391,o),
(374,365,o),
(323,365,cs),
(261,365,l),
(261,218,l),
(379,218,ls),
(533,218,o),
(617,289,o),
(617,421,cs),
(617,491,ls),
(617,627,o),
(532,700,o),
(379,700,cs),
(50,700,l)
);
},
{
closed = 1;
nodes = (
(405,0,l),
(629,0,l),
(523,259,l),
(304,259,l)
);
}
);
width = 654;
},
{
anchors = (
{
name = bottom;
pos = (384,0);
},
{
name = top;
pos = (384,700);
}
);
guides = (
{
angle = 91.664;
pos = (527,482);
},
{
angle = 271.548;
pos = (298,588);
},
{
angle = 91.664;
pos = (747,481);
}
);
layerId = "2486E969-71F9-4F3C-B4C5-6F2EF4A28847";
shapes = (
{
closed = 1;
nodes = (
(40,0,l),
(340,0,l),
(340,563,l),
(273,500,l),
(387,500,ls),
(434,500,o),
(457,484,o),
(457,451,cs),
(457,441,ls),
(457,408,o),
(434,392,o),
(387,392,cs),
(329,392,l),
(329,192,l),
(476,192,ls),
(650,192,o),
(747,268,o),
(747,406,cs),
(747,481,ls),
(747,621,o),
(649,700,o),
(476,700,cs),
(40,700,l)
);
},
{
closed = 1;
nodes = (
(455,0,l),
(761,0,l),
(653,246,l),
(355,246,l)
);
}
);
width = 781;
},
{
anchors = (
{
name = bottom;
pos = (373,0);
},
{
name = top;
pos = (369,700);
}
);
layerId = "FE1E8944-1FC7-442F-ADEB-BCCAD8BD5749";
shapes = (
{
closed = 1;
nodes = (
(52,0,l),
(302,0,l),
(302,586,l),
(246,533,l),
(374,533,ls),
(437,533,o),
(467,509,o),
(467,458,cs),
(467,448,ls),
(467,399,o),
(436,374,o),
(374,374,cs),
(292,374,l),
(292,208,l),
(448,208,ls),
(616,208,o),
(709,282,o),
(709,419,cs),
(709,483,ls),
(709,623,o),
(616,700,o),
(448,700,cs),
(52,700,l)
);
},
{
closed = 1;
nodes = (
(467,0,l),
(722,0,l),
(608,254,l),
(360,254,l)
);
}
);
width = 748;
},
{
anchors = (
{
name = bottom;
pos = (124,0);
},
{
name = top;
pos = (116,700);
}
);
guides = (
{
angle = 91.664;
pos = (523,524);
}
);
layerId = "48FF9396-4D7D-4D4D-86EB-84D256671726";
shapes = (
{
closed = 1;
nodes = (
(50,0,l),
(54,0,l),
(54,697,l),
(53,696,l),
(96,696,ls),
(160,696,o),
(189,648,o),
(189,539,cs),
(189,445,ls),
(189,341,o),
(159,293,o),
(96,293,cs),
(53,293,l),
(53,289,l),
(96,289,ls),
(162,289,o),
(193,339,o),
(193,445,cs),
(193,539,ls),
(193,650,o),
(163,700,o),
(96,700,cs),
(50,700,l)
);
},
{
closed = 1;
nodes = (
(195,0,l),
(199,0,l),
(133,297,l),
(129,297,l)
);
}
);
width = 229;
},
{
anchors = (
{
name = bottom;
pos = (236,0);
},
{
name = top;
pos = (225,700);
}
);
layerId = "486D3314-9C11-443C-84EF-BC26BC6EF4F4";
shapes = (
{
closed = 1;
nodes = (
(75,0,l),
(135,0,l),
(135,672,l),
(122,650,l),
(217,650,ls),
(297,650,o),
(334,608,o),
(334,516,cs),
(334,448,ls),
(334,361,o),
(296,320,o),
(217,320,cs),
(132,320,l),
(132,270,l),
(232,270,ls),
(340,270,o),
(394,329,o),
(394,448,cs),
(394,516,ls),
(394,640,o),
(341,700,o),
(232,700,cs),
(75,700,l)
);
},
{
closed = 1;
nodes = (
(342,0,l),
(402,0,l),
(307,286,l),
(247,286,l)
);
}
);
width = 440;
},
{
anchors = (
{
name = bottom;
pos = (320,0);
},
{
name = top;
pos = (294,700);
}
);
guides = (
{
angle = 91.664;
pos = (519,484);
},
{
angle = 271.548;
pos = (281,663);
},
{
angle = 224.538;
pos = (520,700);
}
);
layerId = "7F19C139-BC3E-4459-8995-898EF937B41C";
shapes = (
{
closed = 1;
nodes = (
(110,0,l),
(114,0,l),
(114,698,l),
(112,696,l),
(310,696,ls),
(451,696,o),
(516,632,o),
(516,494,cs),
(516,485,ls),
(516,353,o),
(448,288,o),
(310,288,cs),
(112,288,l),
(112,284,l),
(310,284,ls),
(450,284,o),
(520,351,o),
(520,485,cs),
(520,494,ls),
(520,634,o),
(453,700,o),
(310,700,cs),
(110,700,l)
);
},
{
closed = 1;
nodes = (
(528,0,l),
(533,0,l),
(386,294,l),
(382,293,l)
);
}
);
width = 588;
},
{
anchors = (
{
name = bottom;
pos = (303,0);
},
{
name = top;
pos = (286,700);
}
);
layerId = "C8B4B1A0-F191-4142-9AA6-B9AE3C7BFB7E";
shapes = (
{
closed = 1;
nodes = (
(90,0,l),
(150,0,l),
(150,673,l),
(136,650,l),
(293,650,ls),
(408,650,o),
(459,605,o),
(459,500,cs),
(459,463,ls),
(459,364,o),
(406,318,o),
(293,318,cs),
(146,318,l),
(146,268,l),
(313,268,ls),
(447,268,o),
(515,334,o),
(515,463,cs),
(515,500,ls),
(515,634,o),
(449,700,o),
(313,700,cs),
(90,700,l)
);
},
{
closed = 1;
nodes = (
(464,0,l),
(526,0,l),
(402,285,l),
(341,285,l)
);
}
);
width = 571;
}
);
metricLeft = H;
unicode = 82;
},
{
glyphname = S;
kernLeft = KO_S;
kernRight = KO_S;
lastChange = "2023-01-20 19:21:54 +0000";
layers = (
{
anchors = (
{
name = bottom;
pos = (347,0);
},
{
name = top;
pos = (347,700);
}
);
guides = (
{
angle = 165.051;
pos = (305,265);
}
);
layerId = "CE731A6E-4225-469A-B727-F6A72D46F429";
shapes = (
{
closed = 1;
nodes = (
(552,-10,o),
(665,66,o),
(665,215,cs),
(665,467,o),
(327,411,o),
(327,488,cs),
(327,504,o),
(341,515,o),
(355,515,cs),
(376,515,o),
(390,498,o),
(392,465,c),
(672,485,l),
(651,647,o),
(554,715,o),
(350,715,cs),
(151,715,o),
(28,635,o),
(28,487,cs),
(28,244,o),
(366,300,o),
(366,216,cs),
(366,200,o),
(353,190,o),
(338,190,cs),
(316,190,o),
(306,210,o),
(301,246,c),
(21,234,l),
(45,71,o),
(137,-10,o),
(334,-10,cs)
);
}
);
width = 693;
},
{
anchors = (
{
name = bottom;
pos = (316,0);
},
{
name = top;
pos = (316,700);
}
);
guides = (
{
angle = 343.791;
pos = (298,266);
},
{
angle = 215.676;
pos = (366,308);
}
);
layerId = "044BBB63-5120-4E70-970B-668628603B6C";
shapes = (
{
closed = 1;
nodes = (
(497,-9,o),
(600,63,o),
(600,198,cs),
(600,476,o),
(268,397,o),
(268,512,cs),
(268,547,o),
(291,568,o),
(327,568,cs),
(370,568,o),
(393,540,o),
(397,483,c),
(607,498,l),
(591,646,o),
(502,712,o),
(321,712,cs),
(138,712,o),
(34,637,o),
(34,505,cs),
(34,229,o),
(366,308,o),
(366,192,cs),
(366,156,o),
(344,136,o),
(306,136,cs),
(263,136,o),
(240,166,o),
(234,228,c),
(24,220,l),
(43,62,o),
(131,-9,o),
(306,-9,cs)
);
}
);
width = 631;
},
{
anchors = (
{
name = bottom;
pos = (407,0);
},
{
name = top;
pos = (407,700);
}
);
guides = (
{
angle = 278.13;
pos = (26,238);
},
{
angle = 348.486;
pos = (543,425);
},
{
angle = 209.358;
pos = (458,305);
}
);
layerId = "2486E969-71F9-4F3C-B4C5-6F2EF4A28847";
shapes = (
{
closed = 1;
nodes = (
(639,-10,o),
(778,72,o),
(778,217,cs),
(778,485,o),
(357,400,o),
(357,494,cs),
(357,513,o),
(378,525,o),
(412,525,cs),
(457,525,o),
(482,505,o),
(486,465,c),
(787,485,l),
(770,639,o),
(648,715,o),
(419,715,cs),
(178,715,o),
(37,632,o),
(37,489,cs),
(37,226,o),
(458,304,o),
(458,212,cs),
(458,191,o),
(440,180,o),
(407,180,cs),
(363,180,o),
(333,205,o),
(326,246,c),
(26,234,l),
(48,64,o),
(160,-10,o),
(394,-10,cs)
);
}
);
width = 813;
},
{
anchors = (
{
name = bottom;
pos = (382,-1);
},
{
name = top;
pos = (382,700);
}
);
layerId = "FE1E8944-1FC7-442F-ADEB-BCCAD8BD5749";
shapes = (
{
closed = 1;
nodes = (
(598,-9,o),
(729,72,o),
(729,211,cs),
(729,485,o),
(315,393,o),
(315,502,cs),
(315,534,o),
(343,555,o),
(386,555,cs),
(448,555,o),
(481,528,o),
(486,475,c),
(737,492,l),
(721,640,o),
(607,713,o),
(392,713,cs),
(169,713,o),
(38,634,o),
(38,498,cs),
(38,217,o),
(452,308,o),
(452,203,cs),
(452,169,o),
(426,149,o),
(382,149,cs),
(322,149,o),
(284,182,o),
(276,239,c),
(26,229,l),
(46,64,o),
(152,-9,o),
(372,-9,cs)
);
}
);
width = 763;
},
{
anchors = (
{
name = bottom;
pos = (115,-2);
},
{
name = top;
pos = (115,700);
}
);
guides = (
{
angle = 332.403;
pos = (304,375);
}
);
layerId = "48FF9396-4D7D-4D4D-86EB-84D256671726";
shapes = (
{
closed = 1;
nodes = (
(174,-5,o),
(200,39,o),
(200,139,cs),
(200,348,o),
(40,357,o),
(40,561,cs),
(40,658,o),
(65,701,o),
(121,701,cs),
(176,701,o),
(200,653,o),
(203,540,c),
(207,540,l),
(204,656,o),
(178,705,o),
(121,705,cs),
(62,705,o),
(36,661,o),
(36,561,cs),
(36,356,o),
(196,347,o),
(196,139,cs),
(196,41,o),
(172,-1,o),
(115,-1,cs),
(61,-1,o),
(36,48,o),
(33,160,c),
(29,160,l),
(32,44,o),
(58,-5,o),
(115,-5,cs)
);
}
);
width = 236;
},
{
anchors = (
{
name = bottom;
pos = (217,0);
},
{
name = top;
pos = (217,700);
}
);
guides = (
{
angle = 89.063;
pos = (388,159);
},
{
angle = 35.628;
pos = (388,401);
}
);
layerId = "486D3314-9C11-443C-84EF-BC26BC6EF4F4";
shapes = (
{
closed = 1;
nodes = (
(327,-7,o),
(388,59,o),
(388,179,cs),
(388,405,o),
(111,357,o),
(111,542,cs),
(111,615,o),
(146,653,o),
(215,653,cs),
(290,653,o),
(326,612,o),
(331,521,c),
(389,526,l),
(382,649,o),
(327,707,o),
(215,707,cs),
(107,707,o),
(51,651,o),
(51,542,cs),
(51,310,o),
(328,359,o),
(328,178,cs),
(328,94,o),
(288,47,o),
(215,47,cs),
(139,47,o),
(104,89,o),
(97,188,c),
(39,187,l),
(49,52,o),
(103,-7,o),
(215,-7,cs)
);
}
);
width = 428;
},
{
anchors = (
{
name = bottom;
pos = (297,-2);
},
{
name = top;
pos = (297,700);
}
);
guides = (
{
angle = 166.316;
pos = (356,329);
}
);
layerId = "7F19C139-BC3E-4459-8995-898EF937B41C";
shapes = (
{
closed = 1;
nodes = (
(433,-5,o),
(522,60,o),
(522,159,cs),
(522,407,o),
(85,285,o),
(85,540,cs),
(85,640,o),
(164,701,o),
(295,701,cs),
(439,701,o),
(511,644,o),
(521,524,c),
(525,525,l),
(517,646,o),
(441,705,o),
(295,705,cs),
(162,705,o),
(81,642,o),
(81,540,cs),
(81,281,o),
(518,403,o),
(518,159,cs),
(518,62,o),
(431,-1,o),
(297,-1,cs),
(154,-1,o),
(77,67,o),
(63,206,c),
(59,206,l),
(72,64,o),
(150,-5,o),
(297,-5,cs)
);
}
);
width = 584;
},
{
anchors = (
{
name = bottom;
pos = (295,-2);
},
{
name = top;
pos = (295,700);
}
);
guides = (
{
angle = 204.008;
pos = (533,456);
},
{
angle = 193.608;
pos = (300,352);
}
);
layerId = "C8B4B1A0-F191-4142-9AA6-B9AE3C7BFB7E";
shapes = (
{
closed = 1;
nodes = (
(441,-7,o),
(533,65,o),
(533,178,cs),
(533,456,o),
(126,310,o),
(126,530,cs),
(126,608,o),
(188,653,o),
(293,653,cs),
(406,653,o),
(463,609,o),
(471,516,c),
(535,521,l),
(527,644,o),
(445,707,o),
(293,707,cs),
(149,707,o),
(66,642,o),
(66,530,cs),
(66,248,o),
(473,394,o),
(473,178,cs),
(473,97,o),
(406,47,o),
(297,47,cs),
(185,47,o),
(124,98,o),
(112,205,c),
(49,202,l),
(61,59,o),
(139,-7,o),
(297,-7,cs)
);
}
);
width = 584;
}
);
metricRight = "=|";
unicode = 83;
userData = {
KernOnName = S;
};
},
{
glyphname = T;
kernLeft = KO_T;
kernRight = KO_T;
lastChange = "2023-01-20 19:22:28 +0000";
layers = (
{
anchors = (
{
name = bottom;
pos = (282,0);
},
{
name = center;
pos = (282,300);
},
{
name = top;
pos = (282,700);
}
);
layerId = "CE731A6E-4225-469A-B727-F6A72D46F429";
shapes = (
{
closed = 1;
nodes = (
(4,700,l),
(4,500,l),
(276,500,l),
(132,614,l),
(132,0,l),
(432,0,l),
(432,614,l),
(287,500,l),
(560,500,l),
(560,700,l)
);
}
);
width = 564;
},
{
anchors = (
{
name = bottom;
pos = (259,0);
},
{
name = center;
pos = (259,320);
},
{
name = top;
pos = (259,700);
}
);
layerId = "044BBB63-5120-4E70-970B-668628603B6C";
shapes = (
{
closed = 1;
nodes = (
(5,700,l),
(5,553,l),
(254,553,l),
(149,637,l),
(149,0,l),
(369,0,l),
(369,637,l),
(262,553,l),
(513,553,l),
(513,700,l)
);
}
);
width = 518;
},
{
anchors = (
{
name = bottom;
pos = (322,0);
},
{
name = center;
pos = (322,300);
},
{
name = top;
pos = (322,700);
}
);
layerId = "2486E969-71F9-4F3C-B4C5-6F2EF4A28847";
shapes = (
{
closed = 1;
nodes = (
(4,700,l),
(4,500,l),
(316,500,l),
(172,614,l),
(172,0,l),
(472,0,l),
(472,614,l),
(327,500,l),
(640,500,l),
(640,700,l)
);
}
);
width = 644;
},
{
anchors = (
{
name = bottom;
pos = (307,0);
},
{
name = center;
pos = (307,320);
},
{
name = top;
pos = (307,700);
}
);
layerId = "FE1E8944-1FC7-442F-ADEB-BCCAD8BD5749";
shapes = (
{
closed = 1;
nodes = (
(5,700,l),
(5,533,l),
(302,533,l),
(182,628,l),
(182,0,l),
(432,0,l),
(432,628,l),
(311,533,l),
(609,533,l),
(609,700,l)
);
}
);
width = 614;
},
{
anchors = (
{
name = bottom;
pos = (103,0);
},
{
name = center;
pos = (103,350);
},
{
name = top;
pos = (103,700);
}
);
layerId = "48FF9396-4D7D-4D4D-86EB-84D256671726";
shapes = (
{
closed = 1;
nodes = (
(5,700,l),
(5,696,l),
(102,696,l),
(101,698,l),
(101,0,l),
(105,0,l),
(105,698,l),
(104,696,l),
(201,696,l),
(201,700,l)
);
}
);
width = 206;
},
{
anchors = (
{
name = bottom;
pos = (178,0);
},
{
name = center;
pos = (178,350);
},
{
name = top;
pos = (178,700);
}
);
layerId = "486D3314-9C11-443C-84EF-BC26BC6EF4F4";
shapes = (
{
closed = 1;
nodes = (
(8,700,l),
(8,646,l),
(175,646,l),
(148,682,l),
(148,0,l),
(208,0,l),
(208,682,l),
(178,646,l),
(347,646,l),
(347,700,l)
);
}
);
width = 355;
},
{
anchors = (
{
name = bottom;
pos = (235,0);
},
{
name = center;
pos = (236,350);
},
{
name = top;
pos = (235,700);
}
);
layerId = "7F19C139-BC3E-4459-8995-898EF937B41C";
shapes = (
{
closed = 1;
nodes = (
(11,700,l),
(11,696,l),
(235,696,l),
(233,698,l),
(233,0,l),
(237,0,l),
(237,698,l),
(235,696,l),
(459,696,l),
(459,700,l)
);
}
);
width = 470;
},
{
anchors = (
{
name = bottom;
pos = (235,0);
},
{
name = center;
pos = (235,350);
},
{
name = top;
pos = (235,700);
}
);
layerId = "C8B4B1A0-F191-4142-9AA6-B9AE3C7BFB7E";
shapes = (
{
closed = 1;
nodes = (
(9,700,l),
(9,646,l),
(233,646,l),
(205,679,l),
(205,0,l),
(265,0,l),
(265,679,l),
(235,646,l),
(461,646,l),
(461,700,l)
);
}
);
width = 470;
}
);
metricRight = "=|";
unicode = 84;
userData = {
KernOnName = T;
};
},
{
glyphname = U;
kernLeft = KO_U;
kernRight = KO_U;
lastChange = "2023-01-15 14:45:21 +0000";
layers = (
{
anchors = (
{
name = bottom;
pos = (369,0);
},
{
name = ogonek;
pos = (462,0);
},
{
name = top;
pos = (369,700);
},
{
name = topright;
pos = (698,700);
}
);
layerId = "CE731A6E-4225-469A-B727-F6A72D46F429";
shapes = (
{
closed = 1;
nodes = (
(558,-15,o),
(698,103,o),
(698,256,cs),
(698,700,l),
(398,700,l),
(398,225,ls),
(398,198,o),
(388,185,o),
(368,185,cs),
(348,185,o),
(338,198,o),
(338,225,cs),
(338,700,l),
(38,700,l),
(38,256,ls),
(38,81,o),
(152,-15,o),
(368,-15,cs)
);
}
);
width = 736;
},
{
anchors = (
{
name = bottom;
pos = (341,0);
},
{
name = ogonek;
pos = (390,-1);
},
{
name = top;
pos = (341,700);
},
{
name = topright;
pos = (632,700);
}
);
layerId = "044BBB63-5120-4E70-970B-668628603B6C";
shapes = (
{
closed = 1;
nodes = (
(503,-12,o),
(633,82,o),
(633,240,cs),
(633,700,l),
(413,700,l),
(413,221,ls),
(413,163,o),
(388,135,o),
(340,135,cs),
(292,135,o),
(267,163,o),
(267,221,cs),
(267,700,l),
(47,700,l),
(47,240,ls),
(47,71,o),
(147,-12,o),
(340,-12,cs)
);
}
);
width = 680;
},
{
anchors = (
{
name = bottom;
pos = (423,0);
},
{
name = ogonek;
pos = (489,0);
},
{
name = top;
pos = (423,700);
},
{
name = topright;
pos = (806,700);
}
);
layerId = "2486E969-71F9-4F3C-B4C5-6F2EF4A28847";
shapes = (
{
closed = 1;
nodes = (
(603,-15,o),
(806,69,o),
(806,286,cs),
(806,700,l),
(506,700,l),
(506,273,ls),
(506,214,o),
(477,185,o),
(422,185,cs),
(366,185,o),
(338,214,o),
(338,273,cs),
(338,700,l),
(38,700,l),
(38,286,ls),
(38,69,o),
(168,-15,o),
(422,-15,cs)
);
}
);
width = 844;
},
{
anchors = (
{
name = bottom;
pos = (407,0);
},
{
name = ogonek;
pos = (464,-1);
},
{
name = top;
pos = (407,700);
},
{
name = topright;
pos = (763,700);
}
);
layerId = "FE1E8944-1FC7-442F-ADEB-BCCAD8BD5749";
shapes = (
{
closed = 1;
nodes = (
(582,-13,o),
(763,70,o),
(763,276,cs),
(763,700,l),
(513,700,l),
(513,266,ls),
(513,191,o),
(477,154,o),
(406,154,cs),
(335,154,o),
(299,191,o),
(299,266,cs),
(299,700,l),
(49,700,l),
(49,276,ls),
(49,70,o),
(170,-13,o),
(406,-13,cs)
);
}
);
width = 812;
},
{
anchors = (
{
name = bottom;
pos = (130,0);
},
{
name = ogonek;
pos = (135,-4);
},
{
name = top;
pos = (130,700);
},
{
name = topright;
pos = (215,700);
}
);
layerId = "48FF9396-4D7D-4D4D-86EB-84D256671726";
shapes = (
{
closed = 1;
nodes = (
(187,-5,o),
(215,37,o),
(215,122,cs),
(215,700,l),
(211,700,l),
(211,122,ls),
(211,39,o),
(185,-1,o),
(131,-1,cs),
(77,-1,o),
(51,39,o),
(51,122,cs),
(51,700,l),
(47,700,l),
(47,122,ls),
(47,37,o),
(75,-5,o),
(131,-5,cs)
);
}
);
width = 262;
},
{
anchors = (
{
name = bottom;
pos = (244,0);
},
{
name = ogonek;
pos = (262,-4);
},
{
name = top;
pos = (244,700);
},
{
name = topright;
pos = (416,700);
}
);
layerId = "486D3314-9C11-443C-84EF-BC26BC6EF4F4";
shapes = (
{
closed = 1;
nodes = (
(349,-7,o),
(417,56,o),
(417,179,cs),
(417,700,l),
(357,700,l),
(357,179,ls),
(357,91,o),
(319,47,o),
(244,47,cs),
(168,47,o),
(131,91,o),
(131,179,cs),
(131,700,l),
(71,700,l),
(71,179,ls),
(71,54,o),
(129,-7,o),
(244,-7,cs)
);
}
);
width = 488;
},
{
anchors = (
{
name = bottom;
pos = (331,0);
},
{
name = ogonek;
pos = (340,-4);
},
{
name = top;
pos = (331,700);
},
{
name = topright;
pos = (550,700);
}
);
layerId = "7F19C139-BC3E-4459-8995-898EF937B41C";
shapes = (
{
closed = 1;
nodes = (
(477,-5,o),
(552,74,o),
(552,229,cs),
(552,700,l),
(548,700,l),
(548,229,ls),
(548,76,o),
(475,-1,o),
(330,-1,cs),
(183,-1,o),
(109,76,o),
(109,229,cs),
(109,700,l),
(105,700,l),
(105,229,ls),
(105,74,o),
(181,-5,o),
(330,-5,cs)
);
}
);
width = 657;
},
{
anchors = (
{
name = bottom;
pos = (326,0);
},
{
name = ogonek;
pos = (346,-4);
},
{
name = top;
pos = (326,700);
},
{
name = topright;
pos = (562,700);
}
);
layerId = "C8B4B1A0-F191-4142-9AA6-B9AE3C7BFB7E";
shapes = (
{
closed = 1;
nodes = (
(478,-7,o),
(563,78,o),
(563,229,cs),
(563,700,l),
(503,700,l),
(503,229,ls),
(503,109,o),
(443,47,o),
(326,47,cs),
(198,47,o),
(146,100,o),
(146,229,cs),
(146,700,l),
(86,700,l),
(86,229,ls),
(86,69,o),
(163,-7,o),
(326,-7,cs)
);
}
);
width = 649;
}
);
metricRight = "=|";
unicode = 85;
},
{
glyphname = V;
kernLeft = KO_V;
kernRight = KO_V;
lastChange = "2023-01-20 19:21:54 +0000";
layers = (
{
layerId = "CE731A6E-4225-469A-B727-F6A72D46F429";
shapes = (
{
closed = 1;
nodes = (
(97,0,l),
(623,0,l),
(716,700,l),
(418,700,l),
(362,178,l),
(358,178,l),
(302,700,l),
(4,700,l)
);
}
);
width = 720;
},
{
layerId = "044BBB63-5120-4E70-970B-668628603B6C";
shapes = (
{
closed = 1;
nodes = (
(137,0,l),
(516,0,l),
(648,700,l),
(429,700,l),
(328,131,l),
(325,131,l),
(224,700,l),
(5,700,l)
);
}
);
width = 653;
},
{
layerId = "2486E969-71F9-4F3C-B4C5-6F2EF4A28847";
shapes = (
{
closed = 1;
nodes = (
(180,0,l),
(680,0,l),
(856,700,l),
(556,700,l),
(432,178,l),
(428,178,l),
(304,700,l),
(4,700,l)
);
}
);
width = 860;
},
{
layerId = "FE1E8944-1FC7-442F-ADEB-BCCAD8BD5749";
shapes = (
{
closed = 1;
nodes = (
(193,0,l),
(610,0,l),
(798,700,l),
(548,700,l),
(403,148,l),
(400,148,l),
(255,700,l),
(5,700,l)
);
}
);
width = 803;
},
{
layerId = "48FF9396-4D7D-4D4D-86EB-84D256671726";
shapes = (
{
closed = 1;
nodes = (
(118,-1,l),
(125,-1,l),
(228,700,l),
(224,700,l),
(122,3,l),
(121,3,l),
(19,700,l),
(15,700,l)
);
}
);
width = 243;
},
{
layerId = "486D3314-9C11-443C-84EF-BC26BC6EF4F4";
shapes = (
{
closed = 1;
nodes = (
(158,-1,l),
(256,-1,l),
(406,700,l),
(346,700,l),
(209,46,l),
(205,46,l),
(68,700,l),
(8,700,l)
);
}
);
width = 414;
},
{
layerId = "7F19C139-BC3E-4459-8995-898EF937B41C";
shapes = (
{
closed = 1;
nodes = (
(258,0,l),
(265,0,l),
(512,700,l),
(508,700,l),
(262,3,l),
(261,3,l),
(15,700,l),
(11,700,l)
);
}
);
width = 523;
},
{
layerId = "C8B4B1A0-F191-4142-9AA6-B9AE3C7BFB7E";
shapes = (
{
closed = 1;
nodes = (
(236,-1,l),
(324,-1,l),
(550,700,l),
(488,700,l),
(282,49,l),
(278,49,l),
(71,700,l),
(9,700,l)
);
}
);
width = 559;
}
);
metricRight = "=|";
unicode = 86;
userData = {
KernOnName = V;
};
},
{
glyphname = W;
kernLeft = KO_W;
kernRight = KO_W;
layers = (
{
anchors = (
{
name = bottom;
pos = (496,0);
},
{
name = top;
pos = (496,700);
}
);
guides = (
{
angle = 80.508;
pos = (514,230);
},
{
angle = 95.63;
pos = (304,700);
}
);
layerId = "CE731A6E-4225-469A-B727-F6A72D46F429";
shapes = (
{
closed = 1;
nodes = (
(73,0,l),
(456,0,l),
(544,530,l),
(448,530,l),
(536,0,l),
(919,0,l),
(988,700,l),
(696,700,l),
(637,89,l),
(730,89,l),
(632,700,l),
(360,700,l),
(262,89,l),
(355,89,l),
(296,700,l),
(4,700,l)
);
}
);
width = 992;
},
{
anchors = (
{
name = bottom;
pos = (464,0);
},
{
name = top;
pos = (464,700);
}
);
layerId = "044BBB63-5120-4E70-970B-668628603B6C";
shapes = (
{
closed = 1;
nodes = (
(98,0,l),
(385,0,l),
(458,366,l),
(461,366,l),
(533,0,l),
(820,0,l),
(913,700,l),
(698,700,l),
(638,275,l),
(634,275,l),
(552,700,l),
(367,700,l),
(284,275,l),
(280,275,l),
(220,700,l),
(5,700,l)
);
}
);
width = 918;
},
{
anchors = (
{
name = bottom;
pos = (606,0);
},
{
name = top;
pos = (606,700);
}
);
guides = (
{
angle = 77.205;
pos = (440,700);
}
);
layerId = "2486E969-71F9-4F3C-B4C5-6F2EF4A28847";
shapes = (
{
closed = 1;
nodes = (
(113,0,l),
(522,0,l),
(584,273,l),
(587,273,l),
(649,0,l),
(1058,0,l),
(1167,700,l),
(867,700,l),
(821,349,l),
(811,349,l),
(731,700,l),
(440,700,l),
(360,349,l),
(350,349,l),
(304,700,l),
(4,700,l)
);
}
);
width = 1171;
},
{
anchors = (
{
name = bottom;
pos = (570,0);
},
{
name = top;
pos = (570,700);
}
);
layerId = "FE1E8944-1FC7-442F-ADEB-BCCAD8BD5749";
shapes = (
{
closed = 1;
nodes = (
(125,0,l),
(466,0,l),
(552,345,l),
(554,345,l),
(640,0,l),
(981,0,l),
(1101,700,l),
(851,700,l),
(783,291,l),
(775,291,l),
(675,700,l),
(432,700,l),
(331,291,l),
(323,291,l),
(255,700,l),
(5,700,l)
);
}
);
width = 1106;
},
{
anchors = (
{
name = bottom;
pos = (209,0);
},
{
name = top;
pos = (209,700);
}
);
layerId = "48FF9396-4D7D-4D4D-86EB-84D256671726";
shapes = (
{
closed = 1;
nodes = (
(102,-1,l),
(109,-1,l),
(208,696,l),
(210,696,l),
(308,-1,l),
(315,-1,l),
(402,700,l),
(398,700,l),
(312,3,l),
(311,3,l),
(213,700,l),
(205,700,l),
(106,3,l),
(105,3,l),
(19,700,l),
(15,700,l)
);
}
);
width = 417;
},
{
anchors = (
{
name = bottom;
pos = (320,0);
},
{
name = top;
pos = (320,700);
}
);
layerId = "486D3314-9C11-443C-84EF-BC26BC6EF4F4";
shapes = (
{
closed = 1;
nodes = (
(118,-1,l),
(217,-1,l),
(316,611,l),
(320,611,l),
(419,-1,l),
(518,-1,l),
(628,700,l),
(569,700,l),
(469,46,l),
(465,46,l),
(358,700,l),
(278,700,l),
(171,46,l),
(167,46,l),
(67,700,l),
(8,700,l)
);
}
);
width = 636;
},
{
anchors = (
{
name = bottom;
pos = (394,0);
},
{
name = top;
pos = (394,700);
}
);
layerId = "7F19C139-BC3E-4459-8995-898EF937B41C";
shapes = (
{
closed = 1;
nodes = (
(186,0,l),
(193,0,l),
(393,697,l),
(394,697,l),
(594,0,l),
(601,0,l),
(775,700,l),
(771,700,l),
(598,3,l),
(597,3,l),
(397,700,l),
(390,700,l),
(190,3,l),
(189,3,l),
(15,700,l),
(11,700,l)
);
}
);
width = 786;
},
{
anchors = (
{
name = bottom;
pos = (420,0);
},
{
name = top;
pos = (420,700);
}
);
layerId = "C8B4B1A0-F191-4142-9AA6-B9AE3C7BFB7E";
shapes = (
{
closed = 1;
nodes = (
(163,-1,l),
(259,-1,l),
(411,625,l),
(413,625,l),
(566,-1,l),
(662,-1,l),
(815,700,l),
(753,700,l),
(617,48,l),
(612,48,l),
(454,700,l),
(370,700,l),
(212,48,l),
(208,48,l),
(71,700,l),
(9,700,l)
);
}
);
width = 824;
}
);
metricRight = "=|";
unicode = 87;
},
{
glyphname = X;
kernLeft = KO_X;
kernRight = KO_X;
lastChange = "2023-01-15 14:45:21 +0000";
layers = (
{
layerId = "CE731A6E-4225-469A-B727-F6A72D46F429";
shapes = (
{
closed = 1;
nodes = (
(420,0,l),
(762,0,l),
(350,700,l),
(8,700,l)
);
},
{
closed = 1;
nodes = (
(4,0,l),
(321,0,l),
(446,293,l),
(196,398,l)
);
},
{
closed = 1;
nodes = (
(566,302,l),
(758,700,l),
(441,700,l),
(316,407,l)
);
}
);
width = 766;
},
{
layerId = "044BBB63-5120-4E70-970B-668628603B6C";
shapes = (
{
closed = 1;
nodes = (
(420,0,l),
(671,0,l),
(261,700,l),
(10,700,l)
);
},
{
closed = 1;
nodes = (
(5,0,l),
(238,0,l),
(395,316,l),
(212,394,l)
);
},
{
closed = 1;
nodes = (
(462,309,l),
(668,700,l),
(435,700,l),
(279,387,l)
);
}
);
width = 676;
},
{
layerId = "2486E969-71F9-4F3C-B4C5-6F2EF4A28847";
shapes = (
{
closed = 1;
nodes = (
(510,0,l),
(852,0,l),
(350,700,l),
(8,700,l)
);
},
{
closed = 1;
nodes = (
(4,0,l),
(321,0,l),
(536,323,l),
(286,428,l)
);
},
{
closed = 1;
nodes = (
(566,272,l),
(848,700,l),
(531,700,l),
(316,377,l)
);
}
);
width = 856;
},
{
layerId = "FE1E8944-1FC7-442F-ADEB-BCCAD8BD5749";
shapes = (
{
closed = 1;
nodes = (
(506,0,l),
(791,0,l),
(296,700,l),
(11,700,l)
);
},
{
closed = 1;
nodes = (
(5,0,l),
(269,0,l),
(488,328,l),
(280,416,l)
);
},
{
closed = 1;
nodes = (
(513,286,l),
(788,700,l),
(523,700,l),
(305,374,l)
);
}
);
width = 796;
},
{
layerId = "48FF9396-4D7D-4D4D-86EB-84D256671726";
shapes = (
{
closed = 1;
nodes = (
(229,0,l),
(233,0,l),
(14,700,l),
(10,700,l)
);
},
{
closed = 1;
nodes = (
(5,0,l),
(9,0,l),
(121,355,l),
(118,358,l)
);
},
{
closed = 1;
nodes = (
(122,355,l),
(233,700,l),
(229,700,l),
(119,358,l)
);
}
);
width = 238;
},
{
layerId = "486D3314-9C11-443C-84EF-BC26BC6EF4F4";
shapes = (
{
closed = 1;
nodes = (
(346,0,l),
(412,0,l),
(81,700,l),
(15,700,l)
);
},
{
closed = 1;
nodes = (
(8,0,l),
(71,0,l),
(232,346,l),
(183,368,l)
);
},
{
closed = 1;
nodes = (
(240,343,l),
(412,700,l),
(349,700,l),
(191,365,l)
);
}
);
width = 420;
},
{
layerId = "7F19C139-BC3E-4459-8995-898EF937B41C";
shapes = (
{
closed = 1;
nodes = (
(486,0,l),
(491,0,l),
(28,700,l),
(23,700,l)
);
},
{
closed = 1;
nodes = (
(11,0,l),
(16,0,l),
(254,353,l),
(252,357,l)
);
},
{
closed = 1;
nodes = (
(255,355,l),
(491,700,l),
(486,700,l),
(253,359,l)
);
}
);
width = 502;
},
{
layerId = "C8B4B1A0-F191-4142-9AA6-B9AE3C7BFB7E";
shapes = (
{
closed = 1;
nodes = (
(462,0,l),
(529,0,l),
(86,700,l),
(19,700,l)
);
},
{
closed = 1;
nodes = (
(9,0,l),
(72,0,l),
(302,354,l),
(253,377,l)
);
},
{
closed = 1;
nodes = (
(288,335,l),
(529,700,l),
(466,700,l),
(240,356,l)
);
}
);
width = 538;
}
);
metricRight = "=|";
unicode = 88;
},
{
glyphname = Y;
kernLeft = KO_Y;
kernRight = KO_Y;
lastChange = "2023-01-20 19:21:54 +0000";
layers = (
{
anchors = (
{
name = bottom;
pos = (342,0);
},
{
name = top;
pos = (342,700);
},
{
name = topleft;
pos = (4,700);
}
);
layerId = "CE731A6E-4225-469A-B727-F6A72D46F429";
shapes = (
{
closed = 1;
nodes = (
(207,144,l),
(477,144,l),
(680,700,l),
(382,700,l),
(344,507,l),
(340,507,l),
(302,700,l),
(4,700,l)
);
},
{
closed = 1;
nodes = (
(197,0,l),
(487,0,l),
(487,246,l),
(197,246,l)
);
}
);
width = 684;
},
{
anchors = (
{
name = bottom;
pos = (307,0);
},
{
name = top;
pos = (307,700);
},
{
name = topleft;
pos = (7,700);
}
);
layerId = "044BBB63-5120-4E70-970B-668628603B6C";
shapes = (
{
closed = 1;
nodes = (
(206,177,l),
(407,177,l),
(608,700,l),
(385,700,l),
(309,424,l),
(305,424,l),
(229,700,l),
(5,700,l)
);
},
{
closed = 1;
nodes = (
(201,0,l),
(413,0,l),
(413,254,l),
(201,254,l)
);
}
);
width = 613;
},
{
anchors = (
{
name = bottom;
pos = (392,0);
},
{
name = top;
pos = (392,700);
},
{
name = topleft;
pos = (4,700);
}
);
layerId = "2486E969-71F9-4F3C-B4C5-6F2EF4A28847";
shapes = (
{
closed = 1;
nodes = (
(251,184,l),
(533,184,l),
(780,700,l),
(462,700,l),
(394,457,l),
(390,457,l),
(322,700,l),
(4,700,l)
);
},
{
closed = 1;
nodes = (
(247,0,l),
(537,0,l),
(537,296,l),
(247,296,l)
);
}
);
width = 784;
},
{
anchors = (
{
name = bottom;
pos = (367,0);
},
{
name = top;
pos = (367,700);
},
{
name = topleft;
pos = (8,700);
}
);
layerId = "FE1E8944-1FC7-442F-ADEB-BCCAD8BD5749";
shapes = (
{
closed = 1;
nodes = (
(250,192,l),
(485,192,l),
(729,700,l),
(465,700,l),
(369,421,l),
(366,421,l),
(270,700,l),
(5,700,l)
);
},
{
closed = 1;
nodes = (
(246,0,l),
(488,0,l),
(488,286,l),
(246,286,l)
);
}
);
width = 734;
},
{
anchors = (
{
name = bottom;
pos = (108,0);
},
{
name = top;
pos = (108,700);
},
{
name = topleft;
pos = (8,700);
}
);
layerId = "48FF9396-4D7D-4D4D-86EB-84D256671726";
shapes = (
{
closed = 1;
nodes = (
(106,230,l),
(110,230,l),
(208,700,l),
(204,700,l),
(109,242,l),
(107,242,l),
(12,700,l),
(8,700,l)
);
},
{
closed = 1;
nodes = (
(106,0,l),
(110,0,l),
(110,234,l),
(106,234,l)
);
}
);
width = 216;
},
{
anchors = (
{
name = bottom;
pos = (194,0);
},
{
name = top;
pos = (194,700);
},
{
name = topleft;
pos = (8,700);
}
);
layerId = "486D3314-9C11-443C-84EF-BC26BC6EF4F4";
shapes = (
{
closed = 1;
nodes = (
(164,229,l),
(224,229,l),
(380,700,l),
(319,700,l),
(196,317,l),
(192,317,l),
(69,700,l),
(8,700,l)
);
},
{
closed = 1;
nodes = (
(164,0,l),
(224,0,l),
(224,261,l),
(164,261,l)
);
}
);
width = 388;
},
{
anchors = (
{
name = bottom;
pos = (246,0);
},
{
name = top;
pos = (246,700);
},
{
name = topleft;
pos = (27,700);
}
);
layerId = "7F19C139-BC3E-4459-8995-898EF937B41C";
shapes = (
{
closed = 1;
nodes = (
(244,234,l),
(248,234,l),
(481,700,l),
(477,700,l),
(247,241,l),
(245,241,l),
(15,700,l),
(11,700,l)
);
},
{
closed = 1;
nodes = (
(244,0,l),
(248,0,l),
(248,234,l),
(244,234,l)
);
}
);
width = 492;
},
{
anchors = (
{
name = bottom;
pos = (258,0);
},
{
name = top;
pos = (258,700);
},
{
name = topleft;
pos = (17,700);
}
);
layerId = "C8B4B1A0-F191-4142-9AA6-B9AE3C7BFB7E";
shapes = (
{
closed = 1;
nodes = (
(228,226,l),
(288,226,l),
(507,700,l),
(442,700,l),
(260,286,l),
(256,286,l),
(74,700,l),
(9,700,l)
);
},
{
closed = 1;
nodes = (
(228,0,l),
(288,0,l),
(288,265,l),
(228,265,l)
);
}
);
width = 516;
}
);
metricRight = "=|";
unicode = 89;
userData = {
KernOnName = Y;
};
},
{
glyphname = Z;
kernLeft = KO_Z;
kernRight = KO_Z;
layers = (
{
anchors = (
{
name = bottom;
pos = (314,0);
},
{
name = top;
pos = (314,700);
}
);
guides = (
{
angle = 268.282;
pos = (-78,0);
},
{
angle = 90;
pos = (277,0);
}
);
layerId = "CE731A6E-4225-469A-B727-F6A72D46F429";
shapes = (
{
closed = 1;
nodes = (
(12,0,l),
(605,0,l),
(605,200,l),
(96,200,l),
(245,51,l),
(605,516,l),
(605,700,l),
(33,700,l),
(33,500,l),
(521,500,l),
(372,649,l),
(12,184,l)
);
}
);
width = 617;
},
{
anchors = (
{
name = bottom;
pos = (287,0);
},
{
name = top;
pos = (290,700);
}
);
layerId = "044BBB63-5120-4E70-970B-668628603B6C";
shapes = (
{
closed = 1;
nodes = (
(15,0,l),
(547,0,l),
(547,147,l),
(77,147,l),
(188,38,l),
(547,565,l),
(547,700,l),
(34,700,l),
(34,553,l),
(483,553,l),
(373,662,l),
(15,135,l)
);
}
);
width = 562;
},
{
anchors = (
{
name = bottom;
pos = (369,0);
},
{
name = top;
pos = (369,700);
}
);
guides = (
{
angle = 268.282;
pos = (-183,-12);
},
{
angle = 90;
pos = (495,0);
}
);
layerId = "2486E969-71F9-4F3C-B4C5-6F2EF4A28847";
shapes = (
{
closed = 1;
nodes = (
(12,0,l),
(695,0,l),
(695,200,l),
(96,200,l),
(253,51,l),
(695,516,l),
(695,700,l),
(33,700,l),
(33,500,l),
(605,500,l),
(448,649,l),
(12,184,l)
);
}
);
width = 707;
},
{
anchors = (
{
name = bottom;
pos = (349,0);
},
{
name = top;
pos = (352,700);
}
);
layerId = "FE1E8944-1FC7-442F-ADEB-BCCAD8BD5749";
shapes = (
{
closed = 1;
nodes = (
(16,0,l),
(657,0,l),
(657,167,l),
(86,167,l),
(217,43,l),
(657,547,l),
(657,700,l),
(37,700,l),
(37,533,l),
(581,533,l),
(451,657,l),
(16,153,l)
);
}
);
width = 673;
},
{
anchors = (
{
name = bottom;
pos = (95,0);
},
{
name = top;
pos = (101,700);
}
);
guides = (
{
angle = 90;
pos = (575,0);
}
);
layerId = "48FF9396-4D7D-4D4D-86EB-84D256671726";
shapes = (
{
closed = 1;
nodes = (
(5,0,l),
(184,0,l),
(184,4,l),
(7,4,l),
(9,3,l),
(184,697,l),
(184,700,l),
(16,700,l),
(16,696,l),
(182,696,l),
(180,697,l),
(5,3,l)
);
}
);
width = 189;
},
{
anchors = (
{
name = bottom;
pos = (192,0);
},
{
name = top;
pos = (199,700);
}
);
layerId = "486D3314-9C11-443C-84EF-BC26BC6EF4F4";
shapes = (
{
closed = 1;
nodes = (
(23,0,l),
(357,0,l),
(357,54,l),
(61,54,l),
(74,11,l),
(357,663,l),
(357,700,l),
(38,700,l),
(38,646,l),
(318,646,l),
(306,689,l),
(23,37,l)
);
}
);
width = 380;
},
{
anchors = (
{
name = bottom;
pos = (234,0);
},
{
name = top;
pos = (248,700);
}
);
guides = (
{
angle = 268.282;
pos = (17,0);
},
{
angle = 90;
pos = (450,0);
}
);
layerId = "7F19C139-BC3E-4459-8995-898EF937B41C";
shapes = (
{
closed = 1;
nodes = (
(17,0,l),
(450,0,l),
(450,4,l),
(20,4,l),
(21,1,l),
(450,698,l),
(450,700,l),
(38,700,l),
(38,696,l),
(447,696,l),
(446,699,l),
(17,2,l)
);
}
);
width = 467;
},
{
anchors = (
{
name = bottom;
pos = (258,0);
},
{
name = top;
pos = (268,700);
}
);
layerId = "C8B4B1A0-F191-4142-9AA6-B9AE3C7BFB7E";
shapes = (
{
closed = 1;
nodes = (
(27,0,l),
(478,0,l),
(478,54,l),
(55,54,l),
(79,11,l),
(478,664,l),
(478,700,l),
(47,700,l),
(47,646,l),
(448,646,l),
(426,689,l),
(27,36,l)
);
}
);
width = 505;
}
);
metricRight = "=|";
unicode = 90;
},
{
glyphname = G.ss01;
kernLeft = KO_O;
layers = (
{
anchors = (
{
name = bottom;
pos = (355,0);
},
{
name = top;
pos = (354,700);
}
);
guides = (
{
angle = 185.711;
pos = (530,470);
}
);
layerId = "CE731A6E-4225-469A-B727-F6A72D46F429";
shapes = (
{
closed = 1;
nodes = (
(553,-15,o),
(675,86,o),
(675,248,cs),
(675,410,l),
(350,410,l),
(350,238,l),
(489,238,l),
(385,346,l),
(385,220,ls),
(385,197,o),
(375,185,o),
(354,185,cs),
(335,185,o),
(325,197,o),
(325,220,cs),
(325,480,ls),
(325,504,o),
(334,515,o),
(351,515,cs),
(370,515,o),
(379,497,o),
(383,455,c),
(673,484,l),
(654,636,o),
(538,715,o),
(355,715,cs),
(151,715,o),
(25,611,o),
(25,444,cs),
(25,256,ls),
(25,89,o),
(151,-15,o),
(355,-15,cs)
);
}
);
width = 709;
},
{
anchors = (
{
name = bottom;
pos = (299,0);
},
{
name = top;
pos = (299,700);
}
);
layerId = "044BBB63-5120-4E70-970B-668628603B6C";
shapes = (
{
closed = 1;
nodes = (
(483,-12,o),
(585,77,o),
(585,226,cs),
(585,393,l),
(309,393,l),
(309,261,l),
(447,261,l),
(372,345,l),
(372,208,ls),
(372,165,o),
(357,139,o),
(313,139,cs),
(270,139,o),
(257,167,o),
(257,208,cs),
(257,493,ls),
(257,535,o),
(271,561,o),
(312,561,cs),
(346,561,o),
(365,538,o),
(371,483,c),
(583,504,l),
(566,641,o),
(470,712,o),
(315,712,cs),
(142,712,o),
(37,621,o),
(37,469,cs),
(37,232,ls),
(37,79,o),
(141,-12,o),
(314,-12,cs)
);
}
);
width = 628;
},
{
anchors = (
{
name = bottom;
pos = (420,0);
},
{
name = top;
pos = (420,700);
}
);
guides = (
{
angle = 91.051;
pos = (789,1);
},
{
angle = 185.711;
pos = (640,460);
}
);
layerId = "2486E969-71F9-4F3C-B4C5-6F2EF4A28847";
shapes = (
{
closed = 1;
nodes = (
(638,-15,o),
(786,108,o),
(786,307,c),
(784,410,l),
(409,410,l),
(409,238,l),
(589,238,l),
(495,346,l),
(495,285,ls),
(495,217,o),
(465,185,o),
(413,185,cs),
(363,185,o),
(330,218,o),
(330,286,cs),
(330,414,ls),
(330,482,o),
(363,515,o),
(413,515,cs),
(457,515,o),
(479,494,o),
(490,445,c),
(779,474,l),
(745,624,o),
(622,715,o),
(395,715,cs),
(169,715,o),
(30,600,o),
(30,414,cs),
(30,286,ls),
(30,100,o),
(169,-15,o),
(395,-15,cs)
);
}
);
width = 820;
},
{
anchors = (
{
name = bottom;
pos = (385,0);
},
{
name = top;
pos = (386,700);
}
);
layerId = "FE1E8944-1FC7-442F-ADEB-BCCAD8BD5749";
shapes = (
{
closed = 1;
nodes = (
(602,-13,o),
(739,101,o),
(737,292,cs),
(736,399,l),
(390,399,l),
(390,253,l),
(573,253,l),
(495,345,l),
(495,275,ls),
(495,194,o),
(459,156,o),
(393,156,cs),
(328,156,o),
(290,195,o),
(290,276,cs),
(290,426,ls),
(290,505,o),
(329,544,o),
(393,544,cs),
(445,544,o),
(477,522,o),
(490,461,c),
(730,486,l),
(699,630,o),
(584,713,o),
(379,713,cs),
(169,713,o),
(40,605,o),
(40,426,cs),
(40,276,ls),
(40,95,o),
(168,-13,o),
(378,-13,cs)
);
}
);
width = 781;
},
{
anchors = (
{
name = bottom;
pos = (129,0);
},
{
name = top;
pos = (129,700);
}
);
layerId = "48FF9396-4D7D-4D4D-86EB-84D256671726";
shapes = (
{
closed = 1;
nodes = (
(181,-5,o),
(209,38,o),
(209,122,cs),
(209,342,l),
(118,342,l),
(118,338,l),
(206,338,l),
(205,339,l),
(205,122,ls),
(205,40,o),
(179,-1,o),
(127,-1,cs),
(75,-1,o),
(49,40,o),
(49,122,cs),
(49,578,ls),
(49,659,o),
(76,701,o),
(127,701,cs),
(178,701,o),
(205,658,o),
(210,568,c),
(214,568,l),
(209,661,o),
(181,705,o),
(127,705,cs),
(73,705,o),
(45,661,o),
(45,578,cs),
(45,122,ls),
(45,38,o),
(73,-5,o),
(127,-5,cs)
);
}
);
width = 257;
},
{
anchors = (
{
name = bottom;
pos = (234,0);
},
{
name = top;
pos = (235,700);
}
);
layerId = "486D3314-9C11-443C-84EF-BC26BC6EF4F4";
shapes = (
{
closed = 1;
nodes = (
(344,-7,o),
(404,59,o),
(404,183,cs),
(404,358,l),
(227,358,l),
(227,308,l),
(364,308,l),
(344,344,l),
(344,183,ls),
(344,88,o),
(310,47,o),
(232,47,cs),
(154,47,o),
(120,88,o),
(120,183,cs),
(120,519,ls),
(120,612,o),
(156,653,o),
(234,653,cs),
(300,653,o),
(337,615,o),
(346,538,c),
(403,544,l),
(391,651,o),
(333,707,o),
(234,707,cs),
(122,707,o),
(60,640,o),
(60,519,cs),
(60,183,ls),
(60,59,o),
(120,-7,o),
(232,-7,cs)
);
}
);
width = 468;
},
{
anchors = (
{
name = bottom;
pos = (315,0);
},
{
name = top;
pos = (321,700);
}
);
guides = (
{
angle = 91.051;
pos = (543,0);
}
);
layerId = "7F19C139-BC3E-4459-8995-898EF937B41C";
shapes = (
{
closed = 1;
nodes = (
(465,-5,o),
(540,79,o),
(540,246,cs),
(540,354,l),
(315,354,l),
(315,350,l),
(538,350,l),
(536,352,l),
(536,246,ls),
(536,80,o),
(462,-1,o),
(315,-1,cs),
(168,-1,o),
(94,80,o),
(94,246,cs),
(94,464,ls),
(94,620,o),
(171,701,o),
(319,701,cs),
(437,701,o),
(506,649,o),
(529,544,c),
(533,545,l),
(509,652,o),
(438,705,o),
(319,705,cs),
(169,705,o),
(90,622,o),
(90,464,cs),
(90,246,ls),
(90,79,o),
(165,-5,o),
(315,-5,cs)
);
}
);
width = 634;
},
{
anchors = (
{
name = bottom;
pos = (317,0);
},
{
name = top;
pos = (320,700);
}
);
layerId = "C8B4B1A0-F191-4142-9AA6-B9AE3C7BFB7E";
shapes = (
{
closed = 1;
nodes = (
(469,-7,o),
(551,76,o),
(551,236,cs),
(551,358,l),
(315,358,l),
(315,308,l),
(510,308,l),
(491,343,l),
(491,236,ls),
(491,107,o),
(435,47,o),
(313,47,cs),
(191,47,o),
(135,107,o),
(135,236,cs),
(135,469,ls),
(135,593,o),
(195,653,o),
(316,653,cs),
(414,653,o),
(470,611,o),
(487,523,c),
(544,529,l),
(524,646,o),
(447,707,o),
(316,707,cs),
(161,707,o),
(75,623,o),
(75,469,cs),
(75,236,ls),
(75,76,o),
(157,-7,o),
(313,-7,cs)
);
}
);
width = 628;
}
);
},
{
glyphname = M.superior;
layers = (
{
layerId = "CE731A6E-4225-469A-B727-F6A72D46F429";
shapes = (
{
closed = 1;
nodes = (
(38,320,l),
(178,320,l),
(178,700,l),
(96,700,l),
(236,348,l),
(262,348,l),
(401,700,l),
(319,700,l),
(319,320,l),
(459,320,l),
(459,740,l),
(307,740,l),
(209,484,l),
(289,484,l),
(190,740,l),
(38,740,l)
);
}
);
width = 497;
},
{
layerId = "044BBB63-5120-4E70-970B-668628603B6C";
shapes = (
{
closed = 1;
nodes = (
(46,320,l),
(166,320,l),
(166,559,l),
(168,559,l),
(237,352,l),
(296,352,l),
(365,559,l),
(367,559,l),
(367,320,l),
(487,320,l),
(487,740,l),
(336,740,l),
(268,532,l),
(265,532,l),
(197,740,l),
(46,740,l)
);
}
);
width = 533;
},
{
layerId = "2486E969-71F9-4F3C-B4C5-6F2EF4A28847";
shapes = (
{
closed = 1;
nodes = (
(45,320,l),
(185,320,l),
(185,592,l),
(172,592,l),
(279,347,l),
(343,347,l),
(449,592,l),
(436,592,l),
(436,320,l),
(576,320,l),
(576,740,l),
(395,740,l),
(277,470,l),
(344,470,l),
(226,740,l),
(45,740,l)
);
}
);
width = 621;
},
{
layerId = "FE1E8944-1FC7-442F-ADEB-BCCAD8BD5749";
shapes = (
{
closed = 1;
nodes = (
(49,320,l),
(179,320,l),
(179,577,l),
(181,577,l),
(277,350,l),
(337,350,l),
(433,577,l),
(435,577,l),
(435,320,l),
(565,320,l),
(565,740,l),
(392,740,l),
(298,520,l),
(316,520,l),
(222,740,l),
(49,740,l)
);
}
);
width = 614;
},
{
layerId = "48FF9396-4D7D-4D4D-86EB-84D256671726";
shapes = (
{
closed = 1;
nodes = (
(42,320,l),
(46,320,l),
(46,735,l),
(45,735,l),
(126,380,l),
(130,380,l),
(208,735,l),
(207,735,l),
(207,320,l),
(211,320,l),
(211,740,l),
(206,740,l),
(127,385,l),
(129,385,l),
(47,740,l),
(42,740,l)
);
}
);
width = 253;
},
{
layerId = "486D3314-9C11-443C-84EF-BC26BC6EF4F4";
shapes = (
{
closed = 1;
nodes = (
(57,320,l),
(107,320,l),
(107,680,l),
(110,680,l),
(193,368,l),
(239,368,l),
(322,680,l),
(325,680,l),
(325,320,l),
(375,320,l),
(375,740,l),
(298,740,l),
(217,438,l),
(215,438,l),
(134,740,l),
(57,740,l)
);
}
);
width = 432;
},
{
layerId = "7F19C139-BC3E-4459-8995-898EF937B41C";
shapes = (
{
closed = 1;
nodes = (
(75,320,l),
(79,320,l),
(79,735,l),
(78,735,l),
(247,376,l),
(252,376,l),
(420,735,l),
(419,735,l),
(419,320,l),
(423,320,l),
(423,740,l),
(418,740,l),
(250,381,l),
(249,381,l),
(80,740,l),
(75,740,l)
);
}
);
width = 498;
},
{
layerId = "C8B4B1A0-F191-4142-9AA6-B9AE3C7BFB7E";
shapes = (
{
closed = 1;
nodes = (
(65,320,l),
(115,320,l),
(115,691,l),
(117,691,l),
(246,368,l),
(295,368,l),
(424,691,l),
(427,691,l),
(427,320,l),
(477,320,l),
(477,740,l),
(399,740,l),
(272,421,l),
(269,421,l),
(142,740,l),
(65,740,l)
);
}
);
width = 542;
}
);
},
{
glyphname = S.superior;
layers = (
{
layerId = "CE731A6E-4225-469A-B727-F6A72D46F429";
shapes = (
{
closed = 1;
nodes = (
(298,313,o),
(356,355,o),
(356,439,cs),
(356,584,o),
(170,558,o),
(170,622,cs),
(170,641,o),
(181,653,o),
(197,653,cs),
(216,653,o),
(228,639,o),
(230,608,c),
(360,617,l),
(350,708,o),
(300,747,o),
(195,747,cs),
(91,747,o),
(30,703,o),
(30,621,cs),
(30,481,o),
(216,505,o),
(216,438,cs),
(216,418,o),
(206,407,o),
(188,407,cs),
(168,407,o),
(159,423,o),
(156,455,c),
(25,449,l),
(37,357,o),
(84,313,o),
(186,313,cs)
);
}
);
width = 385;
},
{
layerId = "044BBB63-5120-4E70-970B-668628603B6C";
shapes = (
{
closed = 1;
nodes = (
(308,313,o),
(370,356,o),
(370,437,cs),
(370,599,o),
(155,555,o),
(155,630,cs),
(155,653,o),
(175,667,o),
(207,667,cs),
(237,667,o),
(256,652,o),
(259,613,c),
(374,621,l),
(365,708,o),
(311,747,o),
(204,747,cs),
(95,747,o),
(35,703,o),
(35,626,cs),
(35,465,o),
(250,509,o),
(250,434,cs),
(250,408,o),
(229,393,o),
(196,393,cs),
(164,393,o),
(147,413,o),
(143,453,c),
(28,449,l),
(39,355,o),
(92,313,o),
(196,313,cs)
);
}
);
width = 402;
},
{
layerId = "2486E969-71F9-4F3C-B4C5-6F2EF4A28847";
shapes = (
{
closed = 1;
nodes = (
(360,313,o),
(434,359,o),
(434,441,cs),
(434,593,o),
(188,547,o),
(188,621,cs),
(188,643,o),
(209,655,o),
(242,655,cs),
(282,655,o),
(305,639,o),
(308,605,c),
(439,614,l),
(429,708,o),
(363,749,o),
(245,749,cs),
(122,749,o),
(48,703,o),
(48,622,cs),
(48,472,o),
(294,514,o),
(294,442,cs),
(294,419,o),
(273,407,o),
(240,407,cs),
(199,407,o),
(175,424,o),
(170,462,c),
(40,456,l),
(51,357,o),
(112,313,o),
(234,313,cs)
);
}
);
width = 470;
},
{
layerId = "FE1E8944-1FC7-442F-ADEB-BCCAD8BD5749";
shapes = (
{
closed = 1;
nodes = (
(354,313,o),
(425,360,o),
(425,443,cs),
(425,604,o),
(182,550,o),
(182,625,cs),
(182,647,o),
(203,660,o),
(239,660,cs),
(287,660,o),
(308,640,o),
(311,606,c),
(429,615,l),
(421,704,o),
(359,747,o),
(241,747,cs),
(122,747,o),
(52,702,o),
(52,623,cs),
(52,458,o),
(295,512,o),
(295,439,cs),
(295,414,o),
(273,400,o),
(237,400,cs),
(192,400,o),
(166,420,o),
(160,458,c),
(44,453,l),
(54,359,o),
(108,313,o),
(232,313,cs)
);
}
);
width = 459;
},
{
layerId = "48FF9396-4D7D-4D4D-86EB-84D256671726";
shapes = (
{
closed = 1;
nodes = (
(125,317,o),
(142,344,o),
(142,404,cs),
(142,530,o),
(38,534,o),
(38,656,cs),
(38,713,o),
(54,739,o),
(90,739,cs),
(125,739,o),
(141,710,o),
(143,644,c),
(147,644,l),
(145,711,o),
(129,743,o),
(90,743,cs),
(51,743,o),
(34,716,o),
(34,656,cs),
(34,532,o),
(138,528,o),
(138,404,cs),
(138,347,o),
(123,321,o),
(86,321,cs),
(51,321,o),
(35,351,o),
(33,416,c),
(29,416,l),
(31,347,o),
(48,317,o),
(86,317,cs)
);
}
);
width = 176;
},
{
layerId = "486D3314-9C11-443C-84EF-BC26BC6EF4F4";
shapes = (
{
closed = 1;
nodes = (
(234,315,o),
(276,355,o),
(276,428,cs),
(276,567,o),
(92,537,o),
(92,643,cs),
(92,684,o),
(114,706,o),
(157,706,cs),
(204,706,o),
(226,682,o),
(229,630,c),
(278,634,l),
(272,709,o),
(235,745,o),
(157,745,cs),
(81,745,o),
(42,709,o),
(42,643,cs),
(42,500,o),
(227,531,o),
(227,427,cs),
(227,381,o),
(202,354,o),
(156,354,cs),
(108,354,o),
(87,379,o),
(82,435,c),
(34,433,l),
(41,351,o),
(79,315,o),
(156,315,cs)
);
}
);
width = 312;
},
{
layerId = "7F19C139-BC3E-4459-8995-898EF937B41C";
shapes = (
{
closed = 1;
nodes = (
(266,317,o),
(318,354,o),
(318,414,cs),
(318,560,o),
(62,499,o),
(62,646,cs),
(62,704,o),
(108,739,o),
(185,739,cs),
(273,739,o),
(311,702,o),
(316,636,c),
(320,636,l),
(316,706,o),
(274,743,o),
(185,743,cs),
(106,743,o),
(58,707,o),
(58,646,cs),
(58,495,o),
(314,556,o),
(314,414,cs),
(314,357,o),
(264,321,o),
(185,321,cs),
(102,321,o),
(57,360,o),
(49,439,c),
(45,439,l),
(52,359,o),
(96,317,o),
(185,317,cs)
);
}
);
width = 365;
},
{
layerId = "C8B4B1A0-F191-4142-9AA6-B9AE3C7BFB7E";
shapes = (
{
closed = 1;
nodes = (
(295,315,o),
(354,358,o),
(354,428,cs),
(354,590,o),
(100,515,o),
(100,637,cs),
(100,681,o),
(136,706,o),
(199,706,cs),
(265,706,o),
(300,681,o),
(304,628,c),
(356,631,l),
(350,707,o),
(297,745,o),
(199,745,cs),
(104,745,o),
(50,705,o),
(50,637,cs),
(50,472,o),
(304,548,o),
(304,427,cs),
(304,382,o),
(265,354,o),
(200,354,cs),
(134,354,o),
(98,383,o),
(91,442,c),
(40,440,l),
(48,354,o),
(99,315,o),
(200,315,cs)
);
}
);
width = 396;
}
);
},
{
glyphname = T.superior;
layers = (
{
layerId = "CE731A6E-4225-469A-B727-F6A72D46F429";
shapes = (
{
closed = 1;
nodes = (
(13,740,l),
(13,646,l),
(157,646,l),
(90,700,l),
(90,320,l),
(230,320,l),
(230,700,l),
(163,646,l),
(308,646,l),
(308,740,l)
);
}
);
width = 321;
},
{
layerId = "044BBB63-5120-4E70-970B-668628603B6C";
shapes = (
{
closed = 1;
nodes = (
(14,740,l),
(14,660,l),
(164,660,l),
(107,706,l),
(107,320,l),
(227,320,l),
(227,706,l),
(169,660,l),
(320,660,l),
(320,740,l)
);
}
);
width = 334;
},
{
layerId = "2486E969-71F9-4F3C-B4C5-6F2EF4A28847";
shapes = (
{
closed = 1;
nodes = (
(13,740,l),
(13,646,l),
(189,646,l),
(122,700,l),
(122,320,l),
(262,320,l),
(262,700,l),
(195,646,l),
(372,646,l),
(372,740,l)
);
}
);
width = 385;
},
{
layerId = "FE1E8944-1FC7-442F-ADEB-BCCAD8BD5749";
shapes = (
{
closed = 1;
nodes = (
(14,740,l),
(14,653,l),
(190,653,l),
(127,703,l),
(127,320,l),
(257,320,l),
(257,703,l),
(194,653,l),
(370,653,l),
(370,740,l)
);
}
);
width = 384;
},
{
layerId = "48FF9396-4D7D-4D4D-86EB-84D256671726";
shapes = (
{
closed = 1;
nodes = (
(13,740,l),
(13,736,l),
(77,736,l),
(76,737,l),
(76,320,l),
(80,320,l),
(80,737,l),
(78,736,l),
(142,736,l),
(142,740,l)
);
}
);
width = 155;
},
{
layerId = "486D3314-9C11-443C-84EF-BC26BC6EF4F4";
shapes = (
{
closed = 1;
nodes = (
(15,740,l),
(15,701,l),
(129,701,l),
(106,726,l),
(106,320,l),
(156,320,l),
(156,726,l),
(131,701,l),
(247,701,l),
(247,740,l)
);
}
);
width = 262;
},
{
layerId = "7F19C139-BC3E-4459-8995-898EF937B41C";
shapes = (
{
closed = 1;
nodes = (
(17,740,l),
(17,736,l),
(150,736,l),
(148,737,l),
(148,320,l),
(152,320,l),
(152,737,l),
(151,736,l),
(284,736,l),
(284,740,l)
);
}
);
width = 301;
},
{
layerId = "C8B4B1A0-F191-4142-9AA6-B9AE3C7BFB7E";
shapes = (
{
closed = 1;
nodes = (
(16,740,l),
(16,701,l),
(160,701,l),
(137,725,l),
(137,320,l),
(187,320,l),
(187,725,l),
(162,701,l),
(308,701,l),
(308,740,l)
);
}
);
width = 324;
}
);
},
{
glyphname = a;
kernLeft = KO_a;
kernRight = KO_a;
lastChange = "2023-01-20 19:21:54 +0000";
layers = (
{
anchors = (
{
name = bottom;
pos = (339,0);
},
{
name = ogonek;
pos = (642,0);
},
{
name = top;
pos = (339,540);
}
);
guides = (
{
angle = 252.897;
pos = (381,497);
},
{
angle = 88.536;
pos = (26,161);
},
{
angle = 90;
pos = (-83,0);
},
{
angle = 90;
pos = (642,0);
},
{
angle = 90;
pos = (642,0);
},
{
angle = 90;
pos = (642,0);
},
{
angle = 90;
pos = (642,0);
}
);
layerId = "CE731A6E-4225-469A-B727-F6A72D46F429";
shapes = (
{
closed = 1;
nodes = (
(392,0,l),
(642,0,l),
(642,282,ls),
(642,463,o),
(533,555,o),
(317,555,cs),
(230,555,o),
(113,538,o),
(35,514,c),
(72,324,l),
(111,343,o),
(175,358,o),
(216,358,cs),
(298,358,o),
(332,336,o),
(332,282,cs),
(332,226,l)
);
},
{
closed = 1;
nodes = (
(355,-15,o),
(428,45,o),
(428,150,cs),
(428,155,ls),
(428,260,o),
(355,320,o),
(222,320,cs),
(95,320,o),
(26,260,o),
(26,155,cs),
(26,150,ls),
(26,45,o),
(95,-15,o),
(222,-15,cs)
);
},
{
closed = 1;
nodes = (
(301,123,o),
(296,134,o),
(296,151,cs),
(296,155,ls),
(296,172,o),
(301,183,o),
(314,183,cs),
(327,183,o),
(332,172,o),
(332,155,cs),
(332,151,ls),
(332,134,o),
(327,123,o),
(314,123,cs)
);
}
);
width = 677;
},
{
anchors = (
{
name = bottom;
pos = (306,0);
},
{
name = ogonek;
pos = (567,0);
},
{
name = top;
pos = (306,540);
}
);
guides = (
{
angle = 90;
pos = (-83,0);
},
{
angle = 90;
pos = (567,0);
},
{
angle = 90;
pos = (567,0);
},
{
angle = 90;
pos = (567,0);
},
{
angle = 90;
pos = (567,0);
}
);
layerId = "044BBB63-5120-4E70-970B-668628603B6C";
shapes = (
{
closed = 1;
nodes = (
(384,0,l),
(567,0,l),
(567,304,ls),
(567,470,o),
(482,552,o),
(289,552,cs),
(217,552,o),
(124,535,o),
(44,510,c),
(72,371,l),
(117,392,o),
(179,406,o),
(230,406,cs),
(304,406,o),
(340,372,o),
(340,304,cs),
(340,207,l)
);
},
{
closed = 1;
nodes = (
(341,-12,o),
(411,44,o),
(411,144,cs),
(411,168,ls),
(411,266,o),
(341,322,o),
(217,322,cs),
(99,322,o),
(33,266,o),
(33,167,cs),
(33,143,ls),
(33,44,o),
(99,-12,o),
(216,-12,cs)
);
},
{
closed = 1;
nodes = (
(249,90,o),
(231,110,o),
(231,144,cs),
(231,167,ls),
(231,202,o),
(249,222,o),
(283,222,cs),
(318,222,o),
(337,202,o),
(337,168,cs),
(337,145,ls),
(337,110,o),
(318,90,o),
(282,90,cs)
);
}
);
width = 611;
},
{
anchors = (
{
name = bottom;
pos = (381,0);
},
{
name = ogonek;
pos = (722,0);
},
{
name = top;
pos = (390,540);
}
);
guides = (
{
angle = 66.939;
pos = (232,36);
},
{
angle = 109.618;
pos = (234,275);
},
{
angle = 77.229;
pos = (266,441);
},
{
angle = 90;
pos = (-83,0);
},
{
angle = 90;
pos = (722,0);
},
{
angle = 90;
pos = (722,0);
},
{
angle = 90;
pos = (722,0);
},
{
angle = 90;
pos = (722,0);
}
);
layerId = "2486E969-71F9-4F3C-B4C5-6F2EF4A28847";
shapes = (
{
closed = 1;
nodes = (
(472,0,l),
(722,0,l),
(722,272,ls),
(722,461,o),
(601,555,o),
(353,555,cs),
(259,555,o),
(128,539,o),
(47,514,c),
(85,314,l),
(149,339,o),
(210,351,o),
(272,351,cs),
(366,351,o),
(412,324,o),
(412,272,cs),
(412,226,l)
);
},
{
closed = 1;
nodes = (
(418,-15,o),
(508,45,o),
(508,150,cs),
(508,155,ls),
(508,260,o),
(418,320,o),
(261,320,cs),
(111,320,o),
(26,260,o),
(26,155,cs),
(26,150,ls),
(26,45,o),
(111,-15,o),
(259,-15,cs)
);
},
{
closed = 1;
nodes = (
(315,123,o),
(296,135,o),
(296,153,cs),
(296,157,ls),
(296,175,o),
(315,187,o),
(347,187,cs),
(382,187,o),
(402,175,o),
(402,157,cs),
(402,153,ls),
(402,135,o),
(381,123,o),
(346,123,cs)
);
}
);
width = 757;
},
{
anchors = (
{
name = bottom;
pos = (363,0);
},
{
name = ogonek;
pos = (680,0);
},
{
name = top;
pos = (363,540);
}
);
guides = (
{
angle = 90;
pos = (-83,0);
},
{
angle = 90;
pos = (680,0);
},
{
angle = 90;
pos = (680,0);
},
{
angle = 90;
pos = (680,0);
},
{
angle = 90;
pos = (680,0);
}
);
layerId = "FE1E8944-1FC7-442F-ADEB-BCCAD8BD5749";
shapes = (
{
closed = 1;
nodes = (
(471,0,l),
(680,0,l),
(680,283,ls),
(680,464,o),
(569,553,o),
(342,553,cs),
(250,553,o),
(129,531,o),
(54,501,c),
(86,342,l),
(146,369,o),
(211,383,o),
(273,383,cs),
(376,383,o),
(421,352,o),
(421,283,cs),
(421,214,l)
);
},
{
closed = 1;
nodes = (
(413,-13,o),
(502,47,o),
(502,151,cs),
(502,159,ls),
(502,262,o),
(413,321,o),
(262,321,cs),
(117,321,o),
(34,261,o),
(34,157,cs),
(34,150,ls),
(34,47,o),
(117,-13,o),
(259,-13,cs)
);
},
{
closed = 1;
nodes = (
(287,102,o),
(259,122,o),
(259,153,cs),
(259,159,ls),
(259,190,o),
(287,210,o),
(333,210,cs),
(384,210,o),
(413,190,o),
(413,160,cs),
(413,154,ls),
(413,122,o),
(382,102,o),
(331,102,cs)
);
}
);
width = 726;
},
{
anchors = (
{
name = bottom;
pos = (98,0);
},
{
name = ogonek;
pos = (155,0);
},
{
name = top;
pos = (98,540);
}
);
guides = (
{
angle = 88.536;
pos = (34,172);
},
{
angle = 90;
pos = (-83,0);
},
{
angle = 90;
pos = (156,0);
},
{
angle = 90;
pos = (156,0);
},
{
angle = 90;
pos = (156,0);
},
{
angle = 90;
pos = (156,0);
}
);
layerId = "48FF9396-4D7D-4D4D-86EB-84D256671726";
shapes = (
{
closed = 1;
nodes = (
(153,0,l),
(156,0,l),
(156,475,ls),
(156,521,o),
(138,545,o),
(103,545,cs),
(80,545,o),
(55,533,o),
(38,495,c),
(41,493,l),
(57,529,o),
(81,541,o),
(103,541,cs),
(135,541,o),
(152,520,o),
(152,475,cs),
(152,156,l)
);
},
{
closed = 1;
nodes = (
(135,-5,o),
(156,32,o),
(156,103,cs),
(156,222,ls),
(156,295,o),
(136,330,o),
(95,330,cs),
(54,330,o),
(34,294,o),
(34,222,cs),
(34,103,ls),
(34,33,o),
(55,-5,o),
(95,-5,cs)
);
},
{
closed = 1;
nodes = (
(58,-1,o),
(38,35,o),
(38,103,cs),
(38,222,ls),
(38,292,o),
(57,326,o),
(95,326,cs),
(133,326,o),
(152,293,o),
(152,222,cs),
(152,103,ls),
(152,34,o),
(132,-1,o),
(95,-1,cs)
);
}
);
width = 201;
},
{
anchors = (
{
name = bottom;
pos = (206,0);
},
{
name = ogonek;
pos = (350,0);
},
{
name = top;
pos = (206,540);
}
);
guides = (
{
angle = 218.454;
pos = (61,494);
},
{
angle = 90;
pos = (-83,0);
},
{
angle = 90;
pos = (350,0);
},
{
angle = 90;
pos = (350,0);
},
{
angle = 90;
pos = (350,0);
},
{
angle = 90;
pos = (350,0);
}
);
layerId = "486D3314-9C11-443C-84EF-BC26BC6EF4F4";
shapes = (
{
closed = 1;
nodes = (
(315,0,l),
(350,0,l),
(350,410,ls),
(350,500,o),
(304,547,o),
(216,547,cs),
(164,547,o),
(100,525,o),
(61,494,c),
(71,443,l),
(110,474,o),
(163,493,o),
(210,493,cs),
(266,493,o),
(290,468,o),
(290,410,cs),
(290,176,l)
);
},
{
closed = 1;
nodes = (
(262,-7,o),
(311,41,o),
(311,126,cs),
(311,197,ls),
(311,281,o),
(263,327,o),
(178,327,cs),
(98,327,o),
(53,279,o),
(53,195,cs),
(53,125,ls),
(53,41,o),
(98,-7,o),
(177,-7,cs)
);
},
{
closed = 1;
nodes = (
(135,41,o),
(113,69,o),
(113,145,cs),
(113,174,ls),
(113,251,o),
(136,279,o),
(199,279,cs),
(257,279,o),
(290,242,o),
(290,176,cs),
(290,147,ls),
(290,85,o),
(251,41,o),
(197,41,cs)
);
}
);
width = 420;
},
{
anchors = (
{
name = bottom;
pos = (301,0);
},
{
name = ogonek;
pos = (491,0);
},
{
name = top;
pos = (305,540);
}
);
guides = (
{
angle = 66.939;
pos = (278,50);
},
{
angle = 77.229;
pos = (299,480);
},
{
angle = 267.825;
pos = (87,485);
},
{
angle = 90;
pos = (-83,0);
},
{
angle = 90;
pos = (491,0);
},
{
angle = 90;
pos = (491,0);
},
{
angle = 90;
pos = (491,0);
},
{
angle = 90;
pos = (491,0);
}
);
layerId = "7F19C139-BC3E-4459-8995-898EF937B41C";
shapes = (
{
closed = 1;
nodes = (
(489,0,l),
(491,0,l),
(491,375,ls),
(491,487,o),
(425,545,o),
(295,545,cs),
(223,545,o),
(142,521,o),
(87,485,c),
(89,482,l),
(145,518,o),
(225,541,o),
(295,541,cs),
(422,541,o),
(487,485,o),
(487,375,cs),
(487,157,l)
);
},
{
closed = 1;
nodes = (
(407,-5,o),
(490,59,o),
(490,165,cs),
(490,185,ls),
(490,283,o),
(407,342,o),
(275,342,cs),
(151,342,o),
(75,280,o),
(75,178,cs),
(75,159,ls),
(75,57,o),
(149,-5,o),
(268,-5,cs)
);
},
{
closed = 1;
nodes = (
(151,-1,o),
(79,60,o),
(79,159,cs),
(79,178,ls),
(79,277,o),
(153,338,o),
(275,338,cs),
(407,338,o),
(487,280,o),
(487,185,cs),
(487,165,ls),
(487,61,o),
(405,-1,o),
(268,-1,cs)
);
}
);
width = 591;
},
{
anchors = (
{
name = bottom;
pos = (271,0);
},
{
name = ogonek;
pos = (473,0);
},
{
name = top;
pos = (273,540);
}
);
guides = (
{
angle = 90;
pos = (-83,0);
},
{
angle = 90;
pos = (473,0);
},
{
angle = 90;
pos = (473,0);
},
{
angle = 90;
pos = (473,0);
},
{
angle = 90;
pos = (473,0);
}
);
layerId = "C8B4B1A0-F191-4142-9AA6-B9AE3C7BFB7E";
shapes = (
{
closed = 1;
nodes = (
(438,0,l),
(473,0,l),
(473,369,ls),
(473,487,o),
(408,547,o),
(279,547,cs),
(209,547,o),
(124,523,o),
(74,490,c),
(84,439,l),
(138,474,o),
(203,493,o),
(268,493,cs),
(369,493,o),
(413,456,o),
(413,369,cs),
(413,173,l)
);
},
{
closed = 1;
nodes = (
(365,-7,o),
(443,50,o),
(443,145,cs),
(443,180,ls),
(443,273,o),
(366,325,o),
(243,325,cs),
(127,325,o),
(60,270,o),
(60,175,cs),
(60,142,ls),
(60,49,o),
(127,-7,o),
(238,-7,cs)
);
},
{
closed = 1;
nodes = (
(169,41,o),
(120,79,o),
(120,153,cs),
(120,167,ls),
(120,248,o),
(170,277,o),
(259,277,cs),
(356,277,o),
(413,238,o),
(413,172,cs),
(413,156,ls),
(413,86,o),
(351,41,o),
(254,41,cs)
);
}
);
width = 553;
},
{
anchors = (
{
name = bottom;
pos = (267,0);
},
{
name = ogonek;
pos = (567,0);
},
{
name = top;
pos = (347,540);
}
);
associatedMasterId = "C8B4B1A0-F191-4142-9AA6-B9AE3C7BFB7E";
guides = (
{
angle = 90;
pos = (-83,0);
showMeasurement = 1;
},
{
angle = 81.919;
pos = (269,0);
},
{
angle = 81.919;
pos = (567,0);
},
{
angle = 81.919;
pos = (567,0);
},
{
angle = 81.919;
pos = (567,0);
}
);
layerId = "B8D95379-BB92-479B-8D64-D68D777A2981";
name = ":wt=150,wd=100,op=144,sl=8";
partSelection = {
Op = 2;
Sl = 2;
Wd = 2;
Wt = 2;
};
shapes = (
{
closed = 1;
nodes = (
(443,0,l),
(567,0,l),
(613,324,ls),
(634,474,o),
(551,550,o),
(363,550,cs),
(280,550,o),
(172,530,o),
(99,499,c),
(105,396,l),
(169,427,o),
(242,444,o),
(308,444,cs),
(418,444,o),
(469,403,o),
(457,321,cs),
(439,189,l)
);
},
{
closed = 1;
nodes = (
(373,-10,o),
(469,58,o),
(486,176,cs),
(488,190,ls),
(502,292,o),
(423,351,o),
(279,351,cs),
(142,351,o),
(54,290,o),
(39,187,cs),
(37,173,ls),
(21,57,o),
(91,-10,o),
(225,-10,cs)
);
},
{
closed = 1;
nodes = (
(205,80,o),
(164,113,o),
(172,167,cs),
(173,177,ls),
(181,231,o),
(232,264,o),
(310,264,cs),
(394,264,o),
(440,232,o),
(432,180,cs),
(431,169,ls),
(423,114,o),
(366,80,o),
(279,80,cs)
);
}
);
width = 696;
},
{
anchors = (
{
name = bottom;
pos = (340,0);
},
{
name = ogonek;
pos = (605,0);
},
{
name = top;
pos = (347,540);
}
);
associatedMasterId = "C8B4B1A0-F191-4142-9AA6-B9AE3C7BFB7E";
guides = (
{
angle = 90;
pos = (-83,0);
},
{
angle = 90;
pos = (605,0);
},
{
angle = 90;
pos = (605,0);
},
{
angle = 90;
pos = (605,0);
},
{
angle = 90;
pos = (605,0);
}
);
layerId = "D27ADAB4-C1B2-4076-82AF-8F4DECD69FB8";
name = ":wt=150,wd=100,op=144,sl=0";
partSelection = {
Op = 2;
Sl = 1;
Wd = 2;
Wt = 2;
};
shapes = (
{
closed = 1;
nodes = (
(481,0,l),
(605,0,l),
(605,324,ls),
(605,474,o),
(512,550,o),
(324,550,cs),
(241,550,o),
(135,530,o),
(67,499,c),
(87,396,l),
(147,427,o),
(218,444,o),
(284,444,cs),
(394,444,o),
(450,403,o),
(450,321,cs),
(450,189,l)
);
},
{
closed = 1;
nodes = (
(412,-10,o),
(499,58,o),
(499,176,cs),
(499,190,ls),
(499,292,o),
(412,351,o),
(268,351,cs),
(131,351,o),
(51,290,o),
(51,187,cs),
(51,173,ls),
(51,57,o),
(130,-10,o),
(264,-10,cs)
);
},
{
closed = 1;
nodes = (
(232,80,o),
(186,113,o),
(186,167,cs),
(186,177,ls),
(186,231,o),
(233,264,o),
(311,264,cs),
(395,264,o),
(445,232,o),
(445,180,cs),
(445,169,ls),
(445,114,o),
(393,80,o),
(306,80,cs)
);
}
);
width = 685;
},
{
anchors = (
{
name = bottom;
pos = (165,0);
},
{
name = ogonek;
pos = (353,0);
},
{
name = top;
pos = (240,540);
}
);
associatedMasterId = "C8B4B1A0-F191-4142-9AA6-B9AE3C7BFB7E";
guides = (
{
angle = 90;
pos = (45,0);
},
{
angle = 90;
pos = (601,0);
showMeasurement = 1;
},
{
angle = 82.06;
pos = (165,0);
},
{
angle = 82.06;
pos = (353,0);
},
{
angle = 82.06;
pos = (353,0);
}
);
layerId = "0A5E17BB-26BD-43F1-A0ED-6FE6323D2EE0";
name = ":wt=150,wd=0,op=144,sl=8";
partSelection = {
Op = 2;
Sl = 2;
Wd = 1;
Wt = 2;
};
shapes = (
{
closed = 1;
nodes = (
(233,0,l),
(353,0,l),
(406,380,ls),
(422,494,o),
(370,550,o),
(249,550,cs),
(187,550,o),
(117,536,o),
(71,514,c),
(74,398,l),
(85,407,o),
(136,437,o),
(189,437,cs),
(240,437,o),
(261,415,o),
(255,368,cs),
(230,191,l)
);
},
{
closed = 1;
nodes = (
(205,-10,o),
(257,38,o),
(270,126,cs),
(281,209,ls),
(294,298,o),
(255,345,o),
(169,345,cs),
(86,345,o),
(34,298,o),
(21,209,cs),
(10,126,ls),
(-3,38,o),
(37,-10,o),
(119,-10,cs)
);
},
{
closed = 1;
nodes = (
(153,95,o),
(143,113,o),
(147,145,cs),
(154,191,ls),
(159,224,o),
(173,240,o),
(199,240,cs),
(225,240,o),
(235,224,o),
(230,191,cs),
(223,145,ls),
(219,112,o),
(203,95,o),
(178,95,cs)
);
}
);
width = 489;
},
{
anchors = (
{
name = bottom;
pos = (207,0);
},
{
name = ogonek;
pos = (391,0);
},
{
name = top;
pos = (209,540);
}
);
associatedMasterId = "C8B4B1A0-F191-4142-9AA6-B9AE3C7BFB7E";
guides = (
{
angle = 90;
pos = (45,0);
},
{
angle = 90;
pos = (601,0);
showMeasurement = 1;
},
{
angle = 90;
pos = (391,0);
},
{
angle = 90;
pos = (391,0);
},
{
angle = 90;
pos = (391,0);
}
);
layerId = "952E2C48-BEDA-4C1F-9617-1F6544ED2859";
name = ":wt=150,wd=0,op=144,sl=0";
partSelection = {
Op = 2;
Sl = 1;
Wd = 1;
Wt = 2;
};
shapes = (
{
closed = 1;
nodes = (
(271,0,l),
(391,0,l),
(391,380,ls),
(391,494,o),
(331,550,o),
(210,550,cs),
(148,550,o),
(80,536,o),
(37,514,c),
(56,398,l),
(66,407,o),
(113,437,o),
(166,437,cs),
(217,437,o),
(241,415,o),
(241,368,cs),
(241,191,l)
);
},
{
closed = 1;
nodes = (
(244,-10,o),
(290,38,o),
(290,126,cs),
(290,209,ls),
(290,298,o),
(244,345,o),
(158,345,cs),
(75,345,o),
(30,298,o),
(30,209,cs),
(30,126,ls),
(30,38,o),
(76,-10,o),
(158,-10,cs)
);
},
{
closed = 1;
nodes = (
(178,95,o),
(165,113,o),
(165,145,cs),
(165,191,ls),
(165,224,o),
(177,240,o),
(203,240,cs),
(229,240,o),
(241,224,o),
(241,191,cs),
(241,145,ls),
(241,112,o),
(228,95,o),
(203,95,cs)
);
}
);
width = 471;
},
{
anchors = (
{
name = bottom;
pos = (257,0);
},
{
name = ogonek;
pos = (537,0);
},
{
name = top;
pos = (333,540);
}
);
associatedMasterId = "C8B4B1A0-F191-4142-9AA6-B9AE3C7BFB7E";
guides = (
{
angle = 90;
pos = (-83,0);
},
{
angle = 90;
pos = (473,0);
},
{
angle = 90;
pos = (473,0);
},
{
angle = 81.993;
pos = (257,0);
},
{
angle = 81.993;
pos = (537,0);
}
);
layerId = "C564D8F4-3CED-4064-8929-A598AF090075";
name = ":wt=150,wd=100,op=8,sl=8";
partSelection = {
Op = 2;
Sl = 2;
Wd = 2;
Wt = 2;
};
shapes = (
{
closed = 1;
nodes = (
(416,0,l),
(537,0,l),
(583,327,ls),
(604,476,o),
(526,550,o),
(349,550,cs),
(268,550,o),
(162,527,o),
(96,495,c),
(102,391,l),
(163,422,o),
(231,439,o),
(294,439,cs),
(396,439,o),
(436,405,o),
(425,327,cs),
(406,193,l)
);
},
{
closed = 1;
nodes = (
(350,-10,o),
(442,53,o),
(456,157,cs),
(459,181,ls),
(474,285,o),
(399,343,o),
(262,343,cs),
(132,343,o),
(49,283,o),
(34,177,cs),
(31,155,ls),
(16,51,o),
(83,-10,o),
(209,-10,cs)
);
},
{
closed = 1;
nodes = (
(202,91,o),
(167,117,o),
(174,164,cs),
(175,172,ls),
(182,222,o),
(224,244,o),
(292,244,cs),
(366,244,o),
(406,217,o),
(400,175,cs),
(398,165,ls),
(392,120,o),
(341,91,o),
(267,91,cs)
);
}
);
width = 666;
},
{
anchors = (
{
name = bottom;
pos = (316,0);
},
{
name = ogonek;
pos = (575,0);
},
{
name = top;
pos = (317,540);
}
);
associatedMasterId = "C8B4B1A0-F191-4142-9AA6-B9AE3C7BFB7E";
guides = (
{
angle = 90;
pos = (-83,0);
},
{
angle = 90;
pos = (473,0);
},
{
angle = 90;
pos = (473,0);
},
{
angle = 90;
pos = (575,0);
},
{
angle = 90;
pos = (575,0);
}
);
layerId = "AD074C0D-3A95-446D-B47C-67C5F5B7A92A";
name = ":wt=150,wd=100,op=8,sl=0";
partSelection = {
Op = 2;
Sl = 1;
Wd = 2;
Wt = 2;
};
shapes = (
{
closed = 1;
nodes = (
(454,0,l),
(575,0,l),
(575,327,ls),
(575,476,o),
(487,550,o),
(310,550,cs),
(229,550,o),
(126,527,o),
(64,495,c),
(85,391,l),
(142,422,o),
(207,439,o),
(270,439,cs),
(372,439,o),
(417,405,o),
(417,327,cs),
(417,193,l)
);
},
{
closed = 1;
nodes = (
(389,-10,o),
(472,53,o),
(472,157,cs),
(472,181,ls),
(472,285,o),
(389,343,o),
(252,343,cs),
(122,343,o),
(47,283,o),
(47,177,cs),
(47,155,ls),
(47,51,o),
(122,-10,o),
(248,-10,cs)
);
},
{
closed = 1;
nodes = (
(227,91,o),
(189,117,o),
(189,164,cs),
(189,172,ls),
(189,222,o),
(228,244,o),
(296,244,cs),
(370,244,o),
(413,217,o),
(413,175,cs),
(413,165,ls),
(413,120,o),
(366,91,o),
(292,91,cs)
);
}
);
width = 655;
},
{
anchors = (
{
name = bottom;
pos = (210,0);
},
{
name = ogonek;
pos = (424,0);
},
{
name = top;
pos = (283,540);
}
);
associatedMasterId = "C8B4B1A0-F191-4142-9AA6-B9AE3C7BFB7E";
guides = (
{
angle = 90;
pos = (-98,0);
},
{
angle = 90;
pos = (458,0);
},
{
angle = 90;
pos = (458,0);
},
{
angle = 90;
pos = (458,0);
},
{
angle = 82.049;
pos = (209,0);
}
);
layerId = "456FC95E-5DC3-49D1-88A7-9BD5B76DF273";
name = ":wt=150,wd=0,op=8,sl=8";
partSelection = {
Op = 2;
Sl = 2;
Wd = 1;
Wt = 2;
};
shapes = (
{
closed = 1;
nodes = (
(316,0,l),
(424,0,l),
(474,358,ls),
(492,485,o),
(436,549,o),
(296,549,cs),
(234,549,o),
(154,530,o),
(91,502,c),
(95,403,l),
(141,430,o),
(201,446,o),
(250,446,cs),
(315,446,o),
(341,417,o),
(332,354,cs),
(309,191,l)
);
},
{
closed = 1;
nodes = (
(267,-9,o),
(333,45,o),
(347,144,cs),
(354,194,ls),
(368,291,o),
(317,345,o),
(213,345,cs),
(114,345,o),
(51,290,o),
(37,192,cs),
(30,143,ls),
(16,45,o),
(64,-9,o),
(162,-9,cs)
);
},
{
closed = 1;
nodes = (
(169,75,o),
(152,99,o),
(160,155,cs),
(164,181,ls),
(171,237,o),
(196,261,o),
(244,261,cs),
(291,261,o),
(313,232,o),
(306,182,cs),
(302,156,ls),
(295,107,o),
(262,75,o),
(217,75,cs)
);
}
);
width = 557;
},
{
anchors = (
{
name = bottom;
pos = (255,0);
},
{
name = ogonek;
pos = (457,0);
},
{
name = top;
pos = (255,540);
}
);
associatedMasterId = "C8B4B1A0-F191-4142-9AA6-B9AE3C7BFB7E";
guides = (
{
angle = 90;
pos = (-83,0);
},
{
angle = 90;
pos = (473,0);
},
{
angle = 90;
pos = (473,0);
},
{
angle = 90;
pos = (473,0);
},
{
angle = 90;
pos = (457,0);
}
);
layerId = "7D747DFD-5873-4C9D-9B67-4B1EDC6060D4";
name = ":wt=150,wd=0,op=8,sl=0";
partSelection = {
Op = 2;
Sl = 1;
Wd = 1;
Wt = 2;
};
shapes = (
{
closed = 1;
nodes = (
(349,0,l),
(457,0,l),
(457,358,ls),
(457,485,o),
(392,549,o),
(252,549,cs),
(190,549,o),
(112,530,o),
(53,502,c),
(71,403,l),
(113,430,o),
(171,446,o),
(220,446,cs),
(285,446,o),
(315,417,o),
(315,354,cs),
(315,191,l)
);
},
{
closed = 1;
nodes = (
(301,-9,o),
(360,45,o),
(360,144,cs),
(360,194,ls),
(360,291,o),
(301,345,o),
(197,345,cs),
(98,345,o),
(43,290,o),
(43,192,cs),
(43,143,ls),
(43,45,o),
(98,-9,o),
(196,-9,cs)
);
},
{
closed = 1;
nodes = (
(191,75,o),
(171,99,o),
(171,155,cs),
(171,181,ls),
(171,237,o),
(192,261,o),
(240,261,cs),
(287,261,o),
(313,232,o),
(313,182,cs),
(313,156,ls),
(313,107,o),
(284,75,o),
(239,75,cs)
);
}
);
width = 537;
}
);
metricRight = n;
partsSettings = (
{
bottomValue = 0;
name = Op;
topValue = 1000;
},
{
bottomValue = 0;
name = Sl;
topValue = 1000;
},
{
bottomValue = 0;
name = Wd;
topValue = 1000;
},
{
bottomValue = 0;
name = Wt;
topValue = 1000;
}
);
unicode = 97;
userData = {
KernOnName = a;
};
},
{
glyphname = b;
kernLeft = KO_l;
kernRight = KO_p;
layers = (
{
anchors = (
{
name = "#entry";
pos = (40,700);
}
);
layerId = "CE731A6E-4225-469A-B727-F6A72D46F429";
shapes = (
{
closed = 1;
nodes = (
(591,-15,o),
(674,82,o),
(674,256,cs),
(674,284,ls),
(674,458,o),
(591,555,o),
(448,555,cs),
(303,555,o),
(220,457,o),
(220,284,cs),
(220,256,ls),
(220,82,o),
(302,-15,o),
(448,-15,cs)
);
},
{
closed = 1;
nodes = (
(40,0,l),
(233,0,l),
(340,229,l),
(340,740,l),
(40,740,l)
);
},
{
closed = 1;
nodes = (
(347,195,o),
(340,207,o),
(340,229,cs),
(340,311,ls),
(340,333,o),
(347,345,o),
(359,345,cs),
(369,345,o),
(374,338,o),
(374,321,cs),
(374,219,ls),
(374,202,o),
(369,195,o),
(359,195,cs)
);
}
);
width = 690;
},
{
anchors = (
{
name = "#entry";
pos = (50,700);
}
);
layerId = "044BBB63-5120-4E70-970B-668628603B6C";
shapes = (
{
closed = 1;
nodes = (
(540,-12,o),
(616,74,o),
(616,230,cs),
(616,310,ls),
(616,465,o),
(540,552,o),
(405,552,cs),
(266,552,o),
(182,458,o),
(181,297,c),
(181,244,l),
(182,83,o),
(266,-12,o),
(407,-12,cs)
);
},
{
closed = 1;
nodes = (
(50,0,l),
(191,0,l),
(270,194,l),
(270,740,l),
(50,740,l)
);
},
{
closed = 1;
nodes = (
(296,142,o),
(270,176,o),
(270,232,cs),
(270,308,ls),
(270,364,o),
(296,397,o),
(339,397,cs),
(375,397,o),
(396,372,o),
(396,326,cs),
(396,213,ls),
(396,167,o),
(375,142,o),
(339,142,cs)
);
}
);
width = 646;
},
{
anchors = (
{
name = "#entry";
pos = (40,700);
}
);
layerId = "2486E969-71F9-4F3C-B4C5-6F2EF4A28847";
shapes = (
{
closed = 1;
nodes = (
(695,-15,o),
(794,84,o),
(794,261,cs),
(794,279,ls),
(794,456,o),
(692,555,o),
(515,555,cs),
(338,555,o),
(221,448,o),
(220,284,c),
(220,256,l),
(221,92,o),
(341,-15,o),
(525,-15,cs)
);
},
{
closed = 1;
nodes = (
(40,0,l),
(233,0,l),
(340,129,l),
(340,740,l),
(40,740,l)
);
},
{
closed = 1;
nodes = (
(369,195,o),
(340,221,o),
(340,265,cs),
(340,271,ls),
(340,315,o),
(370,341,o),
(419,341,cs),
(464,341,o),
(494,313,o),
(494,271,cs),
(494,265,ls),
(494,223,o),
(464,195,o),
(419,195,cs)
);
}
);
width = 819;
},
{
anchors = (
{
name = "#entry";
pos = (52,700);
}
);
layerId = "FE1E8944-1FC7-442F-ADEB-BCCAD8BD5749";
shapes = (
{
closed = 1;
nodes = (
(663,-13,o),
(758,84,o),
(758,257,cs),
(758,283,ls),
(758,456,o),
(660,553,o),
(491,553,cs),
(317,553,o),
(202,448,o),
(201,284,c),
(201,257,l),
(202,93,o),
(319,-13,o),
(499,-13,cs)
);
},
{
closed = 1;
nodes = (
(52,0,l),
(213,0,l),
(302,144,l),
(302,740,l),
(52,740,l)
);
},
{
closed = 1;
nodes = (
(342,162,o),
(302,201,o),
(302,265,cs),
(302,273,ls),
(302,337,o),
(343,375,o),
(411,375,cs),
(470,375,o),
(508,337,o),
(508,277,cs),
(508,260,ls),
(508,200,o),
(470,162,o),
(411,162,cs)
);
}
);
width = 792;
},
{
anchors = (
{
name = "#entry";
pos = (50,700);
}
);
layerId = "48FF9396-4D7D-4D4D-86EB-84D256671726";
shapes = (
{
closed = 1;
nodes = (
(163,-5,o),
(182,26,o),
(182,95,cs),
(182,445,ls),
(182,513,o),
(163,545,o),
(121,545,cs),
(76,545,o),
(51,483,o),
(51,371,cs),
(51,169,ls),
(51,61,o),
(78,-5,o),
(121,-5,cs)
);
},
{
closed = 1;
nodes = (
(50,0,l),
(52,0,l),
(54,156,l),
(54,740,l),
(50,740,l)
);
},
{
closed = 1;
nodes = (
(80,-1,o),
(54,64,o),
(54,169,cs),
(54,371,ls),
(54,481,o),
(78,541,o),
(121,541,cs),
(160,541,o),
(178,511,o),
(178,445,cs),
(178,95,ls),
(178,28,o),
(160,-1,o),
(121,-1,cs)
);
}
);
width = 222;
},
{
anchors = (
{
name = "#entry";
pos = (75,700);
}
);
layerId = "486D3314-9C11-443C-84EF-BC26BC6EF4F4";
shapes = (
{
closed = 1;
nodes = (
(356,-7,o),
(404,52,o),
(404,163,cs),
(404,377,ls),
(404,487,o),
(356,547,o),
(268,547,cs),
(170,547,o),
(110,468,o),
(109,332,c),
(109,211,l),
(110,76,o),
(171,-7,o),
(268,-7,cs)
);
},
{
closed = 1;
nodes = (
(75,0,l),
(110,0,l),
(135,178,l),
(135,740,l),
(75,740,l)
);
},
{
closed = 1;
nodes = (
(179,46,o),
(135,108,o),
(135,209,cs),
(135,332,ls),
(135,435,o),
(178,493,o),
(250,493,cs),
(311,493,o),
(344,453,o),
(344,379,cs),
(344,160,ls),
(344,86,o),
(311,46,o),
(250,46,cs)
);
}
);
width = 464;
},
{
anchors = (
{
name = "#entry";
pos = (110,700);
}
);
guides = (
{
angle = 229.025;
pos = (319,235);
}
);
layerId = "7F19C139-BC3E-4459-8995-898EF937B41C";
shapes = (
{
closed = 1;
nodes = (
(503,-5,o),
(580,83,o),
(580,235,cs),
(580,305,ls),
(580,455,o),
(504,545,o),
(371,545,cs),
(211,545,o),
(110,448,o),
(110,285,cs),
(110,264,ls),
(110,96,o),
(211,-5,o),
(371,-5,cs)
);
},
{
closed = 1;
nodes = (
(110,0,l),
(112,0,l),
(114,220,l),
(114,740,l),
(110,740,l)
);
},
{
closed = 1;
nodes = (
(212,-1,o),
(114,100,o),
(114,264,cs),
(114,285,ls),
(114,444,o),
(212,541,o),
(371,541,cs),
(500,541,o),
(576,454,o),
(576,305,cs),
(576,235,ls),
(576,85,o),
(501,-1,o),
(371,-1,cs)
);
}
);
width = 660;
},
{
anchors = (
{
name = "#entry";
pos = (90,700);
}
);
layerId = "C8B4B1A0-F191-4142-9AA6-B9AE3C7BFB7E";
shapes = (
{
closed = 1;
nodes = (
(497,-7,o),
(575,73,o),
(575,215,cs),
(575,325,ls),
(575,466,o),
(497,547,o),
(360,547,cs),
(214,547,o),
(119,452,o),
(119,301,cs),
(119,244,ls),
(119,92,o),
(215,-7,o),
(360,-7,cs)
);
},
{
closed = 1;
nodes = (
(90,0,l),
(125,0,l),
(150,172,l),
(150,740,l),
(90,740,l)
);
},
{
closed = 1;
nodes = (
(230,41,o),
(150,122,o),
(150,254,cs),
(150,289,ls),
(150,420,o),
(229,498,o),
(360,498,cs),
(459,498,o),
(515,432,o),
(515,315,cs),
(515,223,ls),
(515,108,o),
(458,41,o),
(360,41,cs)
);
}
);
width = 645;
}
);
metricLeft = l;
metricRight = o;
unicode = 98;
},
{
glyphname = c;
kernLeft = KO_o;
kernRight = KO_c;
layers = (
{
anchors = (
{
name = bottom;
pos = (333,0);
},
{
name = top;
pos = (333,540);
}
);
guides = (
{
angle = 175.914;
pos = (350,223);
},
{
angle = 184.086;
pos = (350,317);
}
);
layerId = "CE731A6E-4225-469A-B727-F6A72D46F429";
shapes = (
{
closed = 1;
nodes = (
(489,-15,o),
(595,68,o),
(617,218,c),
(350,238,l),
(350,198,o),
(345,180,o),
(333,180,cs),
(321,180,o),
(316,190,o),
(316,213,cs),
(316,327,ls),
(316,350,o),
(321,360,o),
(333,360,cs),
(345,360,o),
(350,342,o),
(350,302,c),
(617,322,l),
(595,472,o),
(488,555,o),
(313,555,cs),
(123,555,o),
(16,458,o),
(16,284,cs),
(16,256,ls),
(16,82,o),
(123,-15,o),
(313,-15,cs)
);
}
);
width = 629;
},
{
anchors = (
{
name = bottom;
pos = (306,0);
},
{
name = top;
pos = (316,540);
}
);
layerId = "044BBB63-5120-4E70-970B-668628603B6C";
shapes = (
{
closed = 1;
nodes = (
(460,-12,o),
(556,64,o),
(573,200,c),
(373,214,l),
(369,160,o),
(348,131,o),
(311,131,cs),
(273,131,o),
(250,159,o),
(250,208,cs),
(250,332,ls),
(250,381,o),
(273,409,o),
(311,409,cs),
(348,409,o),
(369,380,o),
(373,326,c),
(573,340,l),
(556,476,o),
(459,552,o),
(296,552,cs),
(128,552,o),
(30,463,o),
(30,310,cs),
(30,230,ls),
(30,76,o),
(128,-12,o),
(296,-12,cs)
);
}
);
width = 595;
},
{
anchors = (
{
name = bottom;
pos = (403,0);
},
{
name = top;
pos = (413,540);
}
);
guides = (
{
angle = 184.086;
pos = (491,313);
},
{
angle = 175.914;
pos = (491,227);
},
{
angle = 184.086;
pos = (471,293);
}
);
layerId = "2486E969-71F9-4F3C-B4C5-6F2EF4A28847";
shapes = (
{
closed = 1;
nodes = (
(611,-15,o),
(745,78,o),
(756,227,c),
(471,247,l),
(465,207,o),
(440,180,o),
(398,180,cs),
(355,180,o),
(325,211,o),
(325,257,cs),
(325,283,ls),
(325,329,o),
(355,360,o),
(398,360,cs),
(440,360,o),
(465,333,o),
(471,293,c),
(756,313,l),
(745,462,o),
(611,555,o),
(378,555,cs),
(158,555,o),
(25,450,o),
(25,279,cs),
(25,261,ls),
(25,90,o),
(158,-15,o),
(378,-15,cs)
);
}
);
width = 775;
},
{
anchors = (
{
name = bottom;
pos = (388,0);
},
{
name = top;
pos = (398,540);
}
);
layerId = "FE1E8944-1FC7-442F-ADEB-BCCAD8BD5749";
shapes = (
{
closed = 1;
nodes = (
(582,-13,o),
(708,76,o),
(720,219,c),
(483,236,l),
(474,183,o),
(440,149,o),
(384,149,cs),
(324,149,o),
(285,190,o),
(285,253,cs),
(285,287,ls),
(285,349,o),
(325,391,o),
(384,391,cs),
(440,391,o),
(474,357,o),
(483,304,c),
(720,321,l),
(708,464,o),
(582,553,o),
(367,553,cs),
(161,553,o),
(35,450,o),
(35,283,cs),
(35,257,ls),
(35,89,o),
(160,-13,o),
(367,-13,cs)
);
}
);
width = 746;
},
{
anchors = (
{
name = bottom;
pos = (104,0);
},
{
name = top;
pos = (104,540);
}
);
guides = (
{
angle = 184.086;
pos = (44,375);
},
{
angle = 175.914;
pos = (44,165);
}
);
layerId = "48FF9396-4D7D-4D4D-86EB-84D256671726";
shapes = (
{
closed = 1;
nodes = (
(145,-5,o),
(165,33,o),
(167,114,c),
(163,114,l),
(161,35,o),
(142,-1,o),
(103,-1,cs),
(65,-1,o),
(44,32,o),
(44,95,cs),
(44,445,ls),
(44,508,o),
(65,541,o),
(103,541,cs),
(142,541,o),
(161,505,o),
(163,426,c),
(167,426,l),
(165,507,o),
(145,545,o),
(103,545,cs),
(62,545,o),
(40,510,o),
(40,445,cs),
(40,95,ls),
(40,30,o),
(62,-5,o),
(103,-5,cs)
);
}
);
width = 183;
},
{
anchors = (
{
name = bottom;
pos = (225,0);
},
{
name = top;
pos = (225,540);
}
);
layerId = "486D3314-9C11-443C-84EF-BC26BC6EF4F4";
shapes = (
{
closed = 1;
nodes = (
(312,-7,o),
(368,49,o),
(378,152,c),
(322,156,l),
(315,85,o),
(280,47,o),
(220,47,cs),
(157,47,o),
(120,89,o),
(120,159,cs),
(120,381,ls),
(120,451,o),
(158,493,o),
(220,493,cs),
(280,493,o),
(315,455,o),
(322,384,c),
(378,388,l),
(368,491,o),
(312,547,o),
(216,547,cs),
(118,547,o),
(60,484,o),
(60,377,cs),
(60,163,ls),
(60,55,o),
(117,-7,o),
(216,-7,cs)
);
}
);
width = 423;
},
{
anchors = (
{
name = bottom;
pos = (318,-1);
},
{
name = top;
pos = (318,540);
}
);
guides = (
{
angle = 186.818;
pos = (84,305);
},
{
angle = 44.881;
pos = (328,-5);
},
{
angle = 173.182;
pos = (84,235);
}
);
layerId = "7F19C139-BC3E-4459-8995-898EF937B41C";
shapes = (
{
closed = 1;
nodes = (
(435,-5,o),
(518,64,o),
(539,179,c),
(535,180,l),
(515,67,o),
(433,-1,o),
(308,-1,cs),
(169,-1,o),
(84,89,o),
(84,235,cs),
(84,305,ls),
(84,450,o),
(170,541,o),
(308,541,cs),
(433,541,o),
(515,473,o),
(535,360,c),
(539,361,l),
(518,476,o),
(435,545,o),
(308,545,cs),
(168,545,o),
(80,452,o),
(80,305,cs),
(80,235,ls),
(80,86,o),
(167,-5,o),
(308,-5,cs)
);
}
);
width = 599;
},
{
anchors = (
{
name = bottom;
pos = (317,0);
},
{
name = top;
pos = (317,540);
}
);
layerId = "C8B4B1A0-F191-4142-9AA6-B9AE3C7BFB7E";
shapes = (
{
closed = 1;
nodes = (
(439,-7,o),
(531,65,o),
(543,178,c),
(483,183,l),
(466,94,o),
(406,47,o),
(306,47,cs),
(195,47,o),
(130,109,o),
(130,215,cs),
(130,325,ls),
(130,429,o),
(197,493,o),
(306,493,cs),
(408,493,o),
(466,448,o),
(483,357,c),
(543,362,l),
(531,477,o),
(440,547,o),
(306,547,cs),
(161,547,o),
(70,461,o),
(70,325,cs),
(70,215,ls),
(70,77,o),
(160,-7,o),
(306,-7,cs)
);
}
);
width = 595;
}
);
metricLeft = o;
unicode = 99;
},
{
color = 4;
glyphname = d;
kernLeft = KO_d;
kernRight = KO_d;
lastChange = "2023-01-20 19:21:54 +0000";
layers = (
{
anchors = (
{
name = bottom;
pos = (350,0);
},
{
name = center;
pos = (500,640);
},
{
name = top;
pos = (305,540);
},
{
name = topright;
pos = (690,540);
}
);
layerId = "CE731A6E-4225-469A-B727-F6A72D46F429";
shapes = (
{
closed = 1;
nodes = (
(388,-15,o),
(470,82,o),
(470,256,cs),
(470,284,ls),
(470,457,o),
(387,555,o),
(242,555,cs),
(99,555,o),
(16,458,o),
(16,284,cs),
(16,256,ls),
(16,82,o),
(99,-15,o),
(242,-15,cs)
);
},
{
closed = 1;
nodes = (
(321,195,o),
(316,202,o),
(316,219,cs),
(316,321,ls),
(316,338,o),
(321,345,o),
(331,345,cs),
(343,345,o),
(350,333,o),
(350,311,cs),
(350,229,ls),
(350,207,o),
(343,195,o),
(331,195,cs)
);
},
{
closed = 1;
nodes = (
(457,0,l),
(650,0,l),
(650,740,l),
(350,740,l),
(350,229,l)
);
}
);
width = 690;
},
{
anchors = (
{
name = bottom;
pos = (313,0);
},
{
name = center;
pos = (486,640);
},
{
name = top;
pos = (281,540);
},
{
name = topright;
pos = (646,540);
}
);
layerId = "044BBB63-5120-4E70-970B-668628603B6C";
shapes = (
{
closed = 1;
nodes = (
(380,-12,o),
(465,83,o),
(465,244,cs),
(465,297,ls),
(465,458,o),
(380,552,o),
(241,552,cs),
(107,552,o),
(30,465,o),
(30,310,cs),
(30,230,ls),
(30,74,o),
(106,-12,o),
(239,-12,cs)
);
},
{
closed = 1;
nodes = (
(271,142,o),
(250,167,o),
(250,213,cs),
(250,326,ls),
(250,372,o),
(271,397,o),
(308,397,cs),
(351,397,o),
(376,364,o),
(376,308,cs),
(376,232,ls),
(376,176,o),
(351,142,o),
(308,142,cs)
);
},
{
closed = 1;
nodes = (
(455,0,l),
(596,0,l),
(596,740,l),
(376,740,l),
(376,194,l)
);
}
);
width = 646;
},
{
anchors = (
{
name = bottom;
pos = (402,0);
},
{
name = center;
pos = (629,640);
},
{
name = top;
pos = (326,540);
},
{
name = topright;
pos = (819,540);
}
);
layerId = "2486E969-71F9-4F3C-B4C5-6F2EF4A28847";
shapes = (
{
closed = 1;
nodes = (
(478,-15,o),
(598,92,o),
(599,256,c),
(599,284,l),
(598,448,o),
(481,555,o),
(304,555,cs),
(127,555,o),
(25,456,o),
(25,279,cs),
(25,261,ls),
(25,84,o),
(124,-15,o),
(294,-15,cs)
);
},
{
closed = 1;
nodes = (
(355,195,o),
(325,223,o),
(325,265,cs),
(325,271,ls),
(325,313,o),
(355,341,o),
(400,341,cs),
(449,341,o),
(479,315,o),
(479,271,cs),
(479,265,ls),
(479,221,o),
(450,195,o),
(400,195,cs)
);
},
{
closed = 1;
nodes = (
(586,0,l),
(779,0,l),
(779,740,l),
(479,740,l),
(479,129,l)
);
}
);
width = 819;
},
{
anchors = (
{
name = bottom;
pos = (388,0);
},
{
name = center;
pos = (616,640);
},
{
name = top;
pos = (325,540);
},
{
name = topright;
pos = (793,540);
}
);
layerId = "FE1E8944-1FC7-442F-ADEB-BCCAD8BD5749";
shapes = (
{
closed = 1;
nodes = (
(474,-13,o),
(591,93,o),
(592,257,c),
(592,284,l),
(591,448,o),
(476,553,o),
(302,553,cs),
(133,553,o),
(35,456,o),
(35,283,cs),
(35,257,ls),
(35,84,o),
(130,-13,o),
(294,-13,cs)
);
},
{
closed = 1;
nodes = (
(323,162,o),
(285,200,o),
(285,260,cs),
(285,277,ls),
(285,337,o),
(323,375,o),
(382,375,cs),
(450,375,o),
(491,337,o),
(491,273,cs),
(491,265,ls),
(491,201,o),
(451,162,o),
(382,162,cs)
);
},
{
closed = 1;
nodes = (
(580,0,l),
(741,0,l),
(741,740,l),
(491,740,l),
(491,144,l)
);
}
);
width = 793;
},
{
anchors = (
{
name = bottom;
pos = (106,0);
},
{
name = center;
pos = (170,640);
},
{
name = top;
pos = (101,540);
},
{
name = topright;
pos = (222,540);
}
);
layerId = "48FF9396-4D7D-4D4D-86EB-84D256671726";
shapes = (
{
closed = 1;
nodes = (
(144,-5,o),
(171,61,o),
(171,169,cs),
(171,371,ls),
(171,483,o),
(146,545,o),
(101,545,cs),
(59,545,o),
(40,513,o),
(40,445,cs),
(40,95,ls),
(40,26,o),
(59,-5,o),
(101,-5,cs)
);
},
{
closed = 1;
nodes = (
(62,-1,o),
(44,28,o),
(44,95,cs),
(44,445,ls),
(44,511,o),
(62,541,o),
(101,541,cs),
(144,541,o),
(168,481,o),
(168,371,cs),
(168,169,ls),
(168,64,o),
(142,-1,o),
(101,-1,cs)
);
},
{
closed = 1;
nodes = (
(170,0,l),
(172,0,l),
(172,740,l),
(168,740,l),
(168,156,l)
);
}
);
width = 222;
},
{
anchors = (
{
name = bottom;
pos = (224,0);
},
{
name = center;
pos = (358,640);
},
{
name = top;
pos = (212,540);
},
{
name = topright;
pos = (463,540);
}
);
layerId = "486D3314-9C11-443C-84EF-BC26BC6EF4F4";
shapes = (
{
closed = 1;
nodes = (
(293,-7,o),
(354,76,o),
(354,211,cs),
(354,332,ls),
(354,468,o),
(294,547,o),
(196,547,cs),
(108,547,o),
(60,487,o),
(60,377,cs),
(60,163,ls),
(60,52,o),
(108,-7,o),
(195,-7,cs)
);
},
{
closed = 1;
nodes = (
(153,46,o),
(120,86,o),
(120,160,cs),
(120,379,ls),
(120,453,o),
(153,493,o),
(214,493,cs),
(286,493,o),
(328,435,o),
(328,332,cs),
(328,209,ls),
(328,108,o),
(285,46,o),
(214,46,cs)
);
},
{
closed = 1;
nodes = (
(353,0,l),
(388,0,l),
(388,740,l),
(328,740,l),
(328,178,l)
);
}
);
width = 463;
},
{
anchors = (
{
name = bottom;
pos = (315,0);
},
{
name = center;
pos = (548,640);
},
{
name = top;
pos = (316,540);
},
{
name = topright;
pos = (660,540);
}
);
guides = (
{
angle = 229.025;
pos = (289,235);
}
);
layerId = "7F19C139-BC3E-4459-8995-898EF937B41C";
shapes = (
{
closed = 1;
nodes = (
(449,-5,o),
(550,96,o),
(550,264,cs),
(550,285,ls),
(550,448,o),
(449,545,o),
(289,545,cs),
(156,545,o),
(80,455,o),
(80,305,cs),
(80,235,ls),
(80,83,o),
(157,-5,o),
(289,-5,cs)
);
},
{
closed = 1;
nodes = (
(159,-1,o),
(84,85,o),
(84,235,cs),
(84,305,ls),
(84,454,o),
(160,541,o),
(289,541,cs),
(448,541,o),
(546,444,o),
(546,285,cs),
(546,264,ls),
(546,100,o),
(448,-1,o),
(289,-1,cs)
);
},
{
closed = 1;
nodes = (
(548,0,l),
(550,0,l),
(550,740,l),
(546,740,l),
(546,220,l)
);
}
);
width = 660;
},
{
anchors = (
{
name = bottom;
pos = (313,0);
},
{
name = center;
pos = (524,640);
},
{
name = top;
pos = (289,540);
},
{
name = topright;
pos = (644,540);
}
);
layerId = "C8B4B1A0-F191-4142-9AA6-B9AE3C7BFB7E";
shapes = (
{
closed = 1;
nodes = (
(430,-7,o),
(526,92,o),
(526,244,cs),
(526,301,ls),
(526,452,o),
(431,547,o),
(285,547,cs),
(148,547,o),
(70,466,o),
(70,325,cs),
(70,215,ls),
(70,73,o),
(148,-7,o),
(285,-7,cs)
);
},
{
closed = 1;
nodes = (
(187,41,o),
(130,108,o),
(130,223,cs),
(130,315,ls),
(130,432,o),
(186,498,o),
(285,498,cs),
(416,498,o),
(495,420,o),
(495,289,cs),
(495,254,ls),
(495,122,o),
(415,41,o),
(285,41,cs)
);
},
{
closed = 1;
nodes = (
(520,0,l),
(555,0,l),
(555,740,l),
(495,740,l),
(495,172,l)
);
}
);
width = 645;
}
);
metricLeft = o;
metricRight = l;
unicode = 100;
userData = {
KernOnName = d;
};
},
{
glyphname = eth;
layers = (
{
guides = (
{
angle = 90;
pos = (353,0);
},
{
angle = 189.902;
pos = (184,674);
}
);
layerId = "CE731A6E-4225-469A-B727-F6A72D46F429";
shapes = (
{
closed = 1;
nodes = (
(526,-15,o),
(648,104,o),
(648,257,cs),
(648,283,ls),
(648,455,o),
(605,628,o),
(549,800,c),
(273,753,l),
(312,636,o),
(342,518,o),
(355,401,c),
(582,383,l),
(582,479,o),
(486,555,o),
(331,555,cs),
(136,555,o),
(14,451,o),
(14,283,cs),
(14,257,ls),
(14,104,o),
(136,-15,o),
(331,-15,cs)
);
},
{
closed = 1;
nodes = (
(319,195,o),
(314,203,o),
(314,223,cs),
(314,317,ls),
(314,337,o),
(319,345,o),
(331,345,cs),
(343,345,o),
(348,337,o),
(348,317,cs),
(348,223,ls),
(348,203,o),
(343,195,o),
(331,195,cs)
);
},
{
closed = 1;
nodes = (
(204,587,l),
(668,668,l),
(668,758,l),
(204,677,l)
);
}
);
width = 672;
},
{
layerId = "044BBB63-5120-4E70-970B-668628603B6C";
shapes = (
{
closed = 1;
nodes = (
(485,-12,o),
(593,80,o),
(593,230,cs),
(593,310,ls),
(593,473,o),
(564,637,o),
(527,800,c),
(298,761,l),
(322,664,o),
(340,586,o),
(351,469,c),
(560,383,l),
(560,477,o),
(465,552,o),
(310,552,cs),
(134,552,o),
(26,461,o),
(26,310,cs),
(26,230,ls),
(26,79,o),
(134,-12,o),
(310,-12,cs)
);
},
{
closed = 1;
nodes = (
(270,143,o),
(246,169,o),
(246,215,cs),
(246,325,ls),
(246,371,o),
(270,397,o),
(310,397,cs),
(350,397,o),
(373,371,o),
(373,325,cs),
(373,215,ls),
(373,169,o),
(350,143,o),
(310,143,cs)
);
},
{
closed = 1;
nodes = (
(212,592,l),
(646,668,l),
(646,758,l),
(212,682,l)
);
}
);
width = 651;
},
{
guides = (
{
angle = 92.083;
pos = (781,498);
},
{
angle = 188.824;
pos = (617,800);
}
);
layerId = "2486E969-71F9-4F3C-B4C5-6F2EF4A28847";
shapes = (
{
closed = 1;
nodes = (
(633,-15,o),
(777,103,o),
(777,262,cs),
(777,278,ls),
(777,437,o),
(725,626,o),
(617,800,c),
(341,756,l),
(415,633,o),
(472,510,o),
(491,387,c),
(719,367,l),
(719,475,o),
(597,555,o),
(399,555,cs),
(165,555,o),
(21,437,o),
(21,278,cs),
(21,262,ls),
(21,103,o),
(165,-15,o),
(399,-15,cs)
);
},
{
closed = 1;
nodes = (
(353,200,o),
(321,227,o),
(321,267,cs),
(321,273,ls),
(321,313,o),
(353,340,o),
(399,340,cs),
(445,340,o),
(477,313,o),
(477,273,cs),
(477,267,ls),
(477,227,o),
(445,200,o),
(399,200,cs)
);
},
{
closed = 1;
nodes = (
(273,588,l),
(807,670,l),
(807,760,l),
(273,678,l)
);
}
);
width = 811;
},
{
guides = (
{
pos = (0,222);
},
{
angle = 189.086;
pos = (613,800);
}
);
layerId = "FE1E8944-1FC7-442F-ADEB-BCCAD8BD5749";
shapes = (
{
closed = 1;
nodes = (
(604,-13,o),
(739,88,o),
(739,257,cs),
(739,283,ls),
(739,450,o),
(698,628,o),
(613,800,c),
(357,759,l),
(413,645,o),
(456,531,o),
(470,417,c),
(665,340,l),
(665,463,o),
(558,553,o),
(384,553,cs),
(165,553,o),
(30,450,o),
(30,283,cs),
(30,257,ls),
(30,89,o),
(165,-13,o),
(384,-13,cs)
);
},
{
closed = 1;
nodes = (
(322,166,o),
(280,204,o),
(280,262,cs),
(280,278,ls),
(280,336,o),
(322,374,o),
(384,374,cs),
(447,374,o),
(489,336,o),
(489,278,cs),
(489,262,ls),
(489,204,o),
(447,166,o),
(384,166,cs)
);
},
{
closed = 1;
nodes = (
(289,590,l),
(783,669,l),
(783,759,l),
(289,680,l)
);
}
);
width = 788;
},
{
layerId = "48FF9396-4D7D-4D4D-86EB-84D256671726";
shapes = (
{
closed = 1;
nodes = (
(144,-5,o),
(166,28,o),
(166,95,cs),
(166,420,ls),
(166,527,o),
(156,633,o),
(138,740,c),
(134,740,l),
(150,646,o),
(159,553,o),
(161,460,c),
(163,459,l),
(155,501,o),
(134,520,o),
(100,520,cs),
(56,520,o),
(34,488,o),
(34,420,cs),
(34,95,ls),
(34,28,o),
(56,-5,o),
(100,-5,cs)
);
},
{
closed = 1;
nodes = (
(59,-1,o),
(38,31,o),
(38,95,cs),
(38,420,ls),
(38,485,o),
(58,516,o),
(100,516,cs),
(142,516,o),
(162,485,o),
(162,420,cs),
(162,95,ls),
(162,31,o),
(141,-1,o),
(100,-1,cs)
);
},
{
closed = 1;
nodes = (
(76,622,l),
(192,667,l),
(192,671,l),
(76,626,l)
);
}
);
width = 207;
},
{
guides = (
{
angle = 93.201;
pos = (411,380);
},
{
angle = 284.036;
pos = (253,740);
},
{
angle = 20.623;
pos = (216,705);
},
{
angle = 96.71;
pos = (315,507);
}
);
layerId = "486D3314-9C11-443C-84EF-BC26BC6EF4F4";
shapes = (
{
closed = 1;
nodes = (
(319,-7,o),
(381,55,o),
(381,163,cs),
(381,327,ls),
(381,464,o),
(343,629,o),
(309,740,c),
(257,721,l),
(291,629,o),
(313,537,o),
(322,447,c),
(329,453,l),
(310,482,o),
(267,497,o),
(216,497,cs),
(112,497,o),
(51,435,o),
(51,327,cs),
(51,163,ls),
(51,55,o),
(112,-7,o),
(216,-7,cs)
);
},
{
closed = 1;
nodes = (
(149,47,o),
(111,88,o),
(111,161,cs),
(111,329,ls),
(111,403,o),
(149,443,o),
(216,443,cs),
(282,443,o),
(321,403,o),
(321,329,cs),
(321,161,ls),
(321,88,o),
(282,47,o),
(216,47,cs)
);
},
{
closed = 1;
nodes = (
(175,554,l),
(441,655,l),
(441,705,l),
(175,604,l)
);
}
);
width = 449;
},
{
guides = (
{
pos = (0,317);
}
);
layerId = "7F19C139-BC3E-4459-8995-898EF937B41C";
shapes = (
{
closed = 1;
nodes = (
(452,-5,o),
(542,86,o),
(542,235,cs),
(542,280,ls),
(542,433,o),
(511,587,o),
(452,740,c),
(448,740,l),
(502,600,o),
(532,460,o),
(538,320,c),
(540,317,l),
(526,444,o),
(440,520,o),
(306,520,cs),
(160,520,o),
(68,427,o),
(68,280,cs),
(68,235,ls),
(68,86,o),
(159,-5,o),
(306,-5,cs)
);
},
{
closed = 1;
nodes = (
(161,-1,o),
(72,89,o),
(72,235,cs),
(72,280,ls),
(72,425,o),
(162,516,o),
(306,516,cs),
(450,516,o),
(538,426,o),
(538,280,cs),
(538,235,ls),
(538,89,o),
(450,-1,o),
(306,-1,cs)
);
},
{
closed = 1;
nodes = (
(374,591,l),
(600,667,l),
(600,671,l),
(374,595,l)
);
}
);
width = 611;
},
{
guides = (
{
angle = 93.201;
pos = (585,217);
},
{
angle = 200.556;
pos = (474,740);
}
);
layerId = "C8B4B1A0-F191-4142-9AA6-B9AE3C7BFB7E";
shapes = (
{
closed = 1;
nodes = (
(455,-7,o),
(546,76,o),
(546,215,cs),
(546,275,ls),
(546,430,o),
(522,585,o),
(474,740,c),
(421,721,l),
(452,617,o),
(473,511,o),
(483,408,c),
(491,412,l),
(455,466,o),
(389,497,o),
(303,497,cs),
(153,497,o),
(60,412,o),
(60,275,cs),
(60,215,ls),
(60,76,o),
(151,-7,o),
(303,-7,cs)
);
},
{
closed = 1;
nodes = (
(191,47,o),
(120,112,o),
(120,215,cs),
(120,275,ls),
(120,378,o),
(191,443,o),
(303,443,cs),
(416,443,o),
(486,379,o),
(486,275,cs),
(486,215,ls),
(486,111,o),
(416,47,o),
(303,47,cs)
);
},
{
closed = 1;
nodes = (
(320,547,l),
(616,658,l),
(616,708,l),
(320,597,l)
);
}
);
width = 625;
}
);
unicode = 240;
},
{
color = 1;
glyphname = e;
kernLeft = KO_e;
kernRight = KO_e;
lastChange = "2023-01-16 12:45:16 +0000";
layers = (
{
anchors = (
{
name = "#entry";
pos = (316,540);
},
{
name = bottom;
pos = (334,0);
},
{
name = ogonek;
pos = (451,0);
},
{
name = top;
pos = (334,540);
}
);
guides = (
{
angle = 5.974;
pos = (176,371);
},
{
angle = 250.478;
pos = (353,169);
}
);
layerId = "CE731A6E-4225-469A-B727-F6A72D46F429";
shapes = (
{
closed = 1;
nodes = (
(493,-15,o),
(604,50,o),
(643,160,c),
(360,188,l),
(353,168,o),
(345,160,o),
(333,160,cs),
(321,160,o),
(316,168,o),
(316,188,c),
(316,342,ls),
(316,362,o),
(321,370,o),
(334,370,cs),
(345,370,o),
(350,362,o),
(350,342,cs),
(350,293,l),
(417,319,l),
(262,319,l),
(262,216,l),
(652,216,l),
(652,235,ls),
(652,450,o),
(529,555,o),
(334,555,cs),
(139,555,o),
(16,450,o),
(16,279,cs),
(16,261,ls),
(16,90,o),
(136,-15,o),
(324,-15,cs)
);
}
);
width = 668;
},
{
anchors = (
{
name = "#entry";
pos = (250,540);
},
{
name = bottom;
pos = (308,-1);
},
{
name = ogonek;
pos = (393,-1);
},
{
name = top;
pos = (308,540);
}
);
guides = (
{
angle = 253.35;
pos = (370,174);
}
);
layerId = "044BBB63-5120-4E70-970B-668628603B6C";
shapes = (
{
closed = 1;
nodes = (
(448,-12,o),
(547,48,o),
(579,155,c),
(370,174,l),
(360,140,o),
(345,118,o),
(309,118,cs),
(272,118,o),
(250,150,o),
(250,200,cs),
(250,331,ls),
(250,379,o),
(273,405,o),
(313,405,cs),
(352,405,o),
(375,374,o),
(375,318,cs),
(375,283,l),
(416,319,l),
(211,319,l),
(211,217,l),
(588,217,l),
(588,275,ls),
(588,459,o),
(484,552,o),
(310,552,cs),
(137,552,o),
(30,461,o),
(30,309,cs),
(30,231,ls),
(30,79,o),
(133,-12,o),
(298,-12,cs)
);
}
);
width = 618;
},
{
anchors = (
{
name = "#entry";
pos = (325,540);
},
{
name = bottom;
pos = (385,0);
},
{
name = ogonek;
pos = (501,0);
},
{
name = top;
pos = (385,540);
}
);
guides = (
{
angle = 250.478;
pos = (458,190);
}
);
layerId = "2486E969-71F9-4F3C-B4C5-6F2EF4A28847";
shapes = (
{
closed = 1;
nodes = (
(568,-15,o),
(704,52,o),
(746,170,c),
(458,190,l),
(454,178,o),
(432,160,o),
(392,160,cs),
(353,160,o),
(325,183,o),
(325,227,cs),
(325,303,ls),
(325,342,o),
(356,370,o),
(401,370,cs),
(445,370,o),
(476,342,o),
(476,303,cs),
(476,283,l),
(521,319,l),
(271,319,l),
(271,216,l),
(756,216,l),
(756,227,ls),
(756,440,o),
(628,555,o),
(391,555,cs),
(164,555,o),
(25,450,o),
(25,279,cs),
(25,261,ls),
(25,90,o),
(156,-15,o),
(370,-15,cs)
);
}
);
width = 781;
},
{
anchors = (
{
name = "#entry";
pos = (285,540);
},
{
name = bottom;
pos = (374,-1);
},
{
name = ogonek;
pos = (487,-1);
},
{
name = top;
pos = (374,540);
}
);
guides = (
{
angle = 251.565;
pos = (478,186);
}
);
layerId = "FE1E8944-1FC7-442F-ADEB-BCCAD8BD5749";
shapes = (
{
closed = 1;
nodes = (
(545,-13,o),
(673,52,o),
(712,169,c),
(478,186,l),
(468,155,o),
(435,133,o),
(387,133,cs),
(325,133,o),
(285,170,o),
(285,228,cs),
(285,293,ls),
(285,351,o),
(326,389,o),
(387,389,cs),
(452,389,o),
(494,351,o),
(494,293,cs),
(494,281,l),
(525,321,l),
(240,321,l),
(240,215,l),
(721,215,l),
(721,240,ls),
(721,443,o),
(600,553,o),
(379,553,cs),
(166,553,o),
(35,451,o),
(35,283,cs),
(35,257,ls),
(35,88,o),
(158,-13,o),
(360,-13,cs)
);
}
);
width = 755;
},
{
anchors = (
{
name = "#entry";
pos = (42,540);
},
{
name = bottom;
pos = (104,-3);
},
{
name = ogonek;
pos = (107,-4);
},
{
name = top;
pos = (105,540);
}
);
guides = (
{
angle = 5.974;
pos = (40,360);
},
{
angle = 174.026;
pos = (40,180);
},
{
angle = 174.026;
pos = (353,360);
}
);
layerId = "48FF9396-4D7D-4D4D-86EB-84D256671726";
shapes = (
{
closed = 1;
nodes = (
(145,-5,o),
(165,33,o),
(167,114,c),
(163,114,l),
(161,35,o),
(142,-1,o),
(103,-1,cs),
(65,-1,o),
(44,32,o),
(44,95,cs),
(44,445,ls),
(44,510,o),
(64,541,o),
(106,541,cs),
(148,541,o),
(168,510,o),
(168,445,cs),
(168,268,l),
(169,269,l),
(43,269,l),
(43,265,l),
(172,265,l),
(172,445,ls),
(172,513,o),
(150,545,o),
(106,545,cs),
(62,545,o),
(40,513,o),
(40,445,cs),
(40,95,ls),
(40,30,o),
(62,-5,o),
(103,-5,cs)
);
}
);
width = 212;
},
{
anchors = (
{
name = "#entry";
pos = (120,540);
},
{
name = bottom;
pos = (219,-3);
},
{
name = ogonek;
pos = (245,-4);
},
{
name = top;
pos = (220,540);
}
);
layerId = "486D3314-9C11-443C-84EF-BC26BC6EF4F4";
shapes = (
{
closed = 1;
nodes = (
(304,-7,o),
(359,42,o),
(374,136,c),
(318,140,l),
(309,77,o),
(275,47,o),
(218,47,cs),
(155,47,o),
(120,84,o),
(120,153,cs),
(120,386,ls),
(120,455,o),
(157,493,o),
(223,493,cs),
(285,493,o),
(320,455,o),
(320,384,cs),
(320,262,l),
(330,297,l),
(109,297,l),
(109,247,l),
(380,247,l),
(380,371,ls),
(380,486,o),
(323,547,o),
(223,547,cs),
(120,547,o),
(60,487,o),
(60,379,cs),
(60,161,ls),
(60,54,o),
(118,-7,o),
(218,-7,cs)
);
}
);
width = 440;
},
{
anchors = (
{
name = "#entry";
pos = (82,540);
},
{
name = bottom;
pos = (313,-3);
},
{
name = ogonek;
pos = (312,-4);
},
{
name = top;
pos = (313,540);
}
);
layerId = "7F19C139-BC3E-4459-8995-898EF937B41C";
shapes = (
{
closed = 1;
nodes = (
(428,-5,o),
(514,53,o),
(539,164,c),
(535,165,l),
(510,57,o),
(429,-1,o),
(306,-1,cs),
(163,-1,o),
(84,81,o),
(84,235,cs),
(84,305,ls),
(84,454,o),
(171,541,o),
(315,541,cs),
(455,541,o),
(540,454,o),
(540,305,cs),
(540,269,l),
(542,271,l),
(82,271,l),
(82,267,l),
(544,267,l),
(544,305,ls),
(544,456,o),
(457,545,o),
(315,545,cs),
(168,545,o),
(80,456,o),
(80,305,cs),
(80,235,ls),
(80,80,o),
(161,-5,o),
(306,-5,cs)
);
}
);
width = 624;
},
{
anchors = (
{
name = "#entry";
pos = (130,540);
},
{
name = bottom;
pos = (303,-3);
},
{
name = ogonek;
pos = (330,-4);
},
{
name = top;
pos = (303,540);
}
);
guides = (
{
angle = 258.275;
pos = (476,161);
}
);
layerId = "C8B4B1A0-F191-4142-9AA6-B9AE3C7BFB7E";
shapes = (
{
closed = 1;
nodes = (
(428,-7,o),
(512,52,o),
(534,158,c),
(476,161,l),
(461,87,o),
(399,47,o),
(301,47,cs),
(191,47,o),
(130,104,o),
(130,209,cs),
(130,325,ls),
(130,432,o),
(194,493,o),
(307,493,cs),
(415,493,o),
(480,432,o),
(480,330,cs),
(480,277,l),
(491,297,l),
(118,297,l),
(118,247,l),
(540,247,l),
(540,316,ls),
(540,463,o),
(456,547,o),
(307,547,cs),
(159,547,o),
(70,464,o),
(70,326,cs),
(70,214,ls),
(70,72,o),
(153,-7,o),
(301,-7,cs)
);
}
);
width = 610;
}
);
metricLeft = o;
metricRight = o;
partsSettings = (
{
bottomValue = 0;
name = Op;
topValue = 1000;
},
{
bottomValue = 0;
name = Sl;
topValue = 1000;
},
{
bottomValue = 0;
name = Wd;
topValue = 1000;
},
{
bottomValue = 0;
name = Wt;
topValue = 1000;
}
);
unicode = 101;
},
{
glyphname = f;
kernLeft = KO_f;
kernRight = KO_f;
lastChange = "2023-01-20 19:21:54 +0000";
layers = (
{
layerId = "CE731A6E-4225-469A-B727-F6A72D46F429";
shapes = (
{
closed = 1;
nodes = (
(65,0,l),
(365,0,l),
(365,520,ls),
(365,560,o),
(380,578,o),
(415,578,cs),
(431,578,o),
(449,574,o),
(465,566,c),
(496,744,l),
(450,762,o),
(372,775,o),
(308,775,cs),
(154,775,o),
(65,682,o),
(65,521,cs)
);
},
{
closed = 1;
nodes = (
(5,340,l),
(445,340,l),
(445,540,l),
(5,540,l)
);
}
);
width = 466;
},
{
layerId = "044BBB63-5120-4E70-970B-668628603B6C";
shapes = (
{
closed = 1;
nodes = (
(76,0,l),
(296,0,l),
(296,543,ls),
(296,598,o),
(317,623,o),
(364,623,cs),
(383,623,o),
(404,619,o),
(421,611,c),
(444,742,l),
(405,757,o),
(340,768,o),
(287,768,cs),
(152,768,o),
(76,687,o),
(76,543,cs)
);
},
{
closed = 1;
nodes = (
(10,393,l),
(388,393,l),
(388,540,l),
(10,540,l)
);
}
);
width = 395;
},
{
guides = (
{
angle = 80.121;
pos = (491,655);
}
);
layerId = "2486E969-71F9-4F3C-B4C5-6F2EF4A28847";
shapes = (
{
closed = 1;
nodes = (
(75,0,l),
(375,0,l),
(375,503,ls),
(375,555,o),
(395,578,o),
(440,578,cs),
(461,578,o),
(484,573,o),
(505,562,c),
(536,742,l),
(487,761,o),
(403,775,o),
(335,775,cs),
(170,775,o),
(75,676,o),
(75,503,cs)
);
},
{
closed = 1;
nodes = (
(5,340,l),
(475,340,l),
(475,540,l),
(5,540,l)
);
}
);
width = 476;
},
{
layerId = "FE1E8944-1FC7-442F-ADEB-BCCAD8BD5749";
shapes = (
{
closed = 1;
nodes = (
(89,0,l),
(339,0,l),
(339,518,ls),
(339,579,o),
(364,607,o),
(418,607,cs),
(441,607,o),
(467,602,o),
(489,591,c),
(515,741,l),
(469,759,o),
(393,772,o),
(330,772,cs),
(176,772,o),
(89,680,o),
(89,518,cs)
);
},
{
closed = 1;
nodes = (
(12,373,l),
(450,373,l),
(450,540,l),
(12,540,l)
);
}
);
width = 449;
},
{
layerId = "48FF9396-4D7D-4D4D-86EB-84D256671726";
shapes = (
{
closed = 1;
nodes = (
(50,0,l),
(54,0,l),
(54,643,ls),
(54,710,o),
(77,741,o),
(127,741,cs),
(135,741,o),
(146,739,o),
(153,736,c),
(154,740,l),
(147,743,o),
(136,745,o),
(127,745,cs),
(75,745,o),
(50,712,o),
(50,643,cs)
);
},
{
closed = 1;
nodes = (
(1,536,l),
(112,536,l),
(112,540,l),
(1,540,l)
);
}
);
width = 100;
},
{
layerId = "486D3314-9C11-443C-84EF-BC26BC6EF4F4";
shapes = (
{
closed = 1;
nodes = (
(82,0,l),
(142,0,l),
(142,604,ls),
(142,675,o),
(165,702,o),
(227,702,cs),
(247,702,o),
(270,698,o),
(285,691,c),
(291,738,l),
(272,747,o),
(240,753,o),
(212,753,cs),
(126,753,o),
(82,702,o),
(82,604,cs)
);
},
{
closed = 1;
nodes = (
(14,490,l),
(236,490,l),
(236,540,l),
(14,540,l)
);
}
);
width = 228;
},
{
layerId = "7F19C139-BC3E-4459-8995-898EF937B41C";
shapes = (
{
closed = 1;
nodes = (
(156,0,l),
(160,0,l),
(160,590,ls),
(160,698,o),
(209,751,o),
(307,751,cs),
(342,751,o),
(382,744,o),
(410,733,c),
(411,737,l),
(383,748,o),
(343,755,o),
(307,755,cs),
(206,755,o),
(156,700,o),
(156,590,cs)
);
},
{
closed = 1;
nodes = (
(47,536,l),
(326,536,l),
(326,540,l),
(47,540,l)
);
}
);
width = 316;
},
{
guides = (
{
angle = 345.465;
pos = (360,694);
}
);
layerId = "C8B4B1A0-F191-4142-9AA6-B9AE3C7BFB7E";
shapes = (
{
closed = 1;
nodes = (
(123,0,l),
(183,0,l),
(183,576,ls),
(183,663,o),
(216,700,o),
(292,700,cs),
(314,700,o),
(335,697,o),
(359,690,c),
(370,741,l),
(341,749,o),
(309,753,o),
(284,753,cs),
(178,753,o),
(123,692,o),
(123,576,cs)
);
},
{
closed = 1;
nodes = (
(30,490,l),
(321,490,l),
(321,540,l),
(30,540,l)
);
}
);
width = 304;
}
);
unicode = 102;
userData = {
KernOnName = f;
};
},
{
glyphname = g;
kernLeft = KO_g;
kernRight = KO_g;
layers = (
{
anchors = (
{
name = bottom;
pos = (323,0);
},
{
name = top;
pos = (323,540);
}
);
guides = (
{
angle = 85.674;
pos = (2,362);
},
{
angle = 275.877;
pos = (122,-88);
}
);
layerId = "CE731A6E-4225-469A-B727-F6A72D46F429";
shapes = (
{
closed = 1;
nodes = (
(508,161,o),
(620,233,o),
(620,353,cs),
(620,362,ls),
(620,482,o),
(508,555,o),
(323,555,cs),
(138,555,o),
(26,482,o),
(26,362,cs),
(26,353,ls),
(26,233,o),
(138,161,o),
(323,161,cs)
);
},
{
closed = 1;
nodes = (
(435,-195,ls),
(568,-195,o),
(637,-142,o),
(637,-42,cs),
(637,58,o),
(568,111,o),
(435,111,cs),
(208,111,ls),
(78,111,o),
(8,58,o),
(8,-42,cs),
(8,-142,o),
(77,-195,o),
(209,-195,cs)
);
},
{
closed = 1;
nodes = (
(309,-59,ls),
(295,-59,o),
(288,-54,o),
(288,-42,cs),
(288,-30,o),
(295,-25,o),
(309,-25,cs),
(336,-25,ls),
(350,-25,o),
(357,-30,o),
(357,-42,cs),
(357,-54,o),
(350,-59,o),
(336,-59,cs)
);
},
{
closed = 1;
nodes = (
(323,64,l),
(323,111,l),
(305,111,ls),
(286,111,o),
(275,120,o),
(275,136,cs),
(275,152,o),
(286,161,o),
(305,161,cs),
(323,161,l),
(323,208,l),
(149,208,ls),
(95,208,o),
(65,182,o),
(65,136,cs),
(65,95,o),
(101,64,o),
(149,64,cs)
);
},
{
closed = 1;
nodes = (
(313,326,o),
(306,333,o),
(306,346,cs),
(306,370,ls),
(306,383,o),
(313,390,o),
(323,390,cs),
(333,390,o),
(340,383,o),
(340,370,cs),
(340,346,ls),
(340,333,o),
(333,326,o),
(323,326,cs)
);
},
{
closed = 1;
nodes = (
(436,406,l),
(655,406,l),
(655,582,l),
(596,582,l),
(436,493,l)
);
}
);
width = 658;
},
{
anchors = (
{
name = bottom;
pos = (294,0);
},
{
name = top;
pos = (294,540);
}
);
layerId = "044BBB63-5120-4E70-970B-668628603B6C";
shapes = (
{
closed = 1;
nodes = (
(456,161,o),
(553,227,o),
(553,338,cs),
(553,374,ls),
(553,486,o),
(456,552,o),
(294,552,cs),
(132,552,o),
(35,486,o),
(35,374,cs),
(35,338,ls),
(35,227,o),
(132,161,o),
(294,161,cs)
);
},
{
closed = 1;
nodes = (
(390,-192,ls),
(509,-192,o),
(572,-143,o),
(572,-51,cs),
(572,42,o),
(509,91,o),
(390,91,cs),
(196,91,ls),
(77,91,o),
(15,42,o),
(15,-51,cs),
(15,-143,o),
(78,-192,o),
(197,-192,cs)
);
},
{
closed = 1;
nodes = (
(265,-92,ls),
(236,-92,o),
(221,-78,o),
(221,-51,cs),
(221,-23,o),
(236,-9,o),
(265,-9,cs),
(322,-9,ls),
(351,-9,o),
(366,-23,o),
(366,-51,cs),
(366,-78,o),
(351,-92,o),
(322,-92,cs)
);
},
{
closed = 1;
nodes = (
(294,56,l),
(294,91,l),
(265,91,ls),
(239,91,o),
(227,104,o),
(226,126,c),
(226,147,o),
(240,161,o),
(265,161,cs),
(294,161,l),
(294,196,l),
(146,196,ls),
(92,196,o),
(63,170,o),
(63,126,cs),
(63,85,o),
(96,56,o),
(145,56,cs)
);
},
{
closed = 1;
nodes = (
(262,282,o),
(242,301,o),
(242,336,cs),
(242,377,ls),
(242,412,o),
(262,431,o),
(294,431,cs),
(327,431,o),
(346,412,o),
(346,377,cs),
(346,336,ls),
(346,301,o),
(326,282,o),
(294,282,cs)
);
},
{
closed = 1;
nodes = (
(397,439,l),
(592,445,l),
(592,575,l),
(547,575,l),
(397,503,l)
);
}
);
width = 597;
},
{
anchors = (
{
name = bottom;
pos = (358,0);
},
{
name = top;
pos = (358,540);
}
);
guides = (
{
angle = 266.524;
pos = (131,358);
}
);
layerId = "2486E969-71F9-4F3C-B4C5-6F2EF4A28847";
shapes = (
{
closed = 1;
nodes = (
(566,161,o),
(692,233,o),
(692,353,cs),
(692,362,ls),
(692,483,o),
(566,555,o),
(358,555,cs),
(149,555,o),
(24,483,o),
(24,362,cs),
(24,353,ls),
(24,233,o),
(149,161,o),
(358,161,cs)
);
},
{
closed = 1;
nodes = (
(481,-195,ls),
(625,-195,o),
(702,-143,o),
(702,-42,cs),
(702,59,o),
(625,111,o),
(481,111,cs),
(232,111,ls),
(83,111,o),
(13,58,o),
(13,-42,cs),
(13,-143,o),
(90,-195,o),
(233,-195,cs)
);
},
{
closed = 1;
nodes = (
(313,-59,ls),
(300,-59,o),
(293,-54,o),
(293,-42,cs),
(293,-30,o),
(300,-25,o),
(313,-25,cs),
(403,-25,ls),
(416,-25,o),
(422,-30,o),
(422,-42,cs),
(422,-54,o),
(416,-59,o),
(403,-59,cs)
);
},
{
closed = 1;
nodes = (
(358,64,l),
(358,111,l),
(338,111,ls),
(312,111,o),
(302,118,o),
(301,136,cs),
(300,153,o),
(314,161,o),
(338,161,cs),
(358,161,l),
(358,208,l),
(157,208,ls),
(88,208,o),
(50,182,o),
(50,136,cs),
(50,93,o),
(92,64,o),
(157,64,cs)
);
},
{
closed = 1;
nodes = (
(331,326,o),
(314,337,o),
(314,356,cs),
(314,360,ls),
(314,379,o),
(331,390,o),
(358,390,cs),
(385,390,o),
(402,379,o),
(402,360,cs),
(402,356,ls),
(402,337,o),
(385,326,o),
(358,326,cs)
);
},
{
closed = 1;
nodes = (
(490,406,l),
(735,406,l),
(735,582,l),
(675,582,l),
(490,493,l)
);
}
);
width = 739;
},
{
anchors = (
{
name = bottom;
pos = (343,0);
},
{
name = top;
pos = (343,540);
}
);
layerId = "FE1E8944-1FC7-442F-ADEB-BCCAD8BD5749";
shapes = (
{
closed = 1;
nodes = (
(538,161,o),
(655,232,o),
(655,352,cs),
(655,361,ls),
(655,482,o),
(538,553,o),
(343,553,cs),
(148,553,o),
(32,482,o),
(32,361,cs),
(32,352,ls),
(32,232,o),
(148,161,o),
(343,161,cs)
);
},
{
closed = 1;
nodes = (
(459,-193,ls),
(595,-193,o),
(668,-143,o),
(668,-46,cs),
(668,51,o),
(595,101,o),
(459,101,cs),
(225,101,ls),
(85,101,o),
(18,50,o),
(18,-46,cs),
(18,-143,o),
(91,-193,o),
(226,-193,cs)
);
},
{
closed = 1;
nodes = (
(292,-80,ls),
(266,-80,o),
(251,-69,o),
(251,-46,cs),
(251,-23,o),
(266,-12,o),
(292,-12,cs),
(394,-12,ls),
(421,-12,o),
(434,-23,o),
(434,-46,cs),
(434,-69,o),
(421,-80,o),
(394,-80,cs)
);
},
{
closed = 1;
nodes = (
(343,61,l),
(343,101,l),
(309,101,ls),
(280,101,o),
(268,110,o),
(267,131,cs),
(266,151,o),
(282,161,o),
(309,161,cs),
(343,161,l),
(343,201,l),
(159,201,ls),
(94,201,o),
(58,175,o),
(58,131,cs),
(58,89,o),
(97,61,o),
(159,61,cs)
);
},
{
closed = 1;
nodes = (
(300,299,o),
(273,319,o),
(273,355,cs),
(273,359,ls),
(273,395,o),
(300,416,o),
(343,416,cs),
(387,416,o),
(413,395,o),
(413,359,cs),
(413,355,ls),
(413,319,o),
(387,299,o),
(343,299,cs)
);
},
{
closed = 1;
nodes = (
(468,426,l),
(701,430,l),
(701,577,l),
(650,577,l),
(468,499,l)
);
}
);
width = 707;
},
{
anchors = (
{
name = bottom;
pos = (105,0);
},
{
name = top;
pos = (105,540);
}
);
guides = (
{
angle = 180;
pos = (10,-61);
},
{
angle = 85.674;
pos = (26,151);
},
{
angle = 275.877;
pos = (147,-127);
}
);
layerId = "48FF9396-4D7D-4D4D-86EB-84D256671726";
shapes = (
{
closed = 1;
nodes = (
(149,160,o),
(171,193,o),
(171,260,cs),
(171,445,ls),
(171,513,o),
(149,545,o),
(105,545,cs),
(61,545,o),
(39,513,o),
(39,445,cs),
(39,260,ls),
(39,193,o),
(61,160,o),
(105,160,cs)
);
},
{
closed = 1;
nodes = (
(116,-185,ls),
(169,-185,o),
(198,-148,o),
(198,-81,cs),
(198,-14,o),
(169,23,o),
(116,23,cs),
(92,23,ls),
(38,23,o),
(8,-14,o),
(8,-81,cs),
(8,-148,o),
(38,-185,o),
(92,-185,cs)
);
},
{
closed = 1;
nodes = (
(92,-181,ls),
(40,-181,o),
(12,-146,o),
(12,-81,cs),
(12,-16,o),
(40,19,o),
(92,19,cs),
(116,19,ls),
(166,19,o),
(194,-16,o),
(194,-81,cs),
(194,-146,o),
(166,-181,o),
(116,-181,cs)
);
},
{
closed = 1;
nodes = (
(105,20,l),
(105,23,l),
(85,23,ls),
(52,23,o),
(38,54,o),
(38,92,cs),
(38,129,o),
(52,160,o),
(85,160,cs),
(105,160,l),
(105,163,l),
(84,163,ls),
(50,163,o),
(34,133,o),
(34,92,cs),
(34,50,o),
(50,20,o),
(84,20,cs)
);
},
{
closed = 1;
nodes = (
(64,164,o),
(43,196,o),
(43,260,cs),
(43,445,ls),
(43,510,o),
(63,541,o),
(105,541,cs),
(147,541,o),
(167,510,o),
(167,445,cs),
(167,260,ls),
(167,196,o),
(146,164,o),
(105,164,cs)
);
},
{
closed = 1;
nodes = (
(142,529,l),
(199,551,l),
(199,555,l),
(195,555,l),
(142,532,l)
);
}
);
width = 207;
},
{
anchors = (
{
name = bottom;
pos = (210,0);
},
{
name = top;
pos = (210,540);
}
);
layerId = "486D3314-9C11-443C-84EF-BC26BC6EF4F4";
shapes = (
{
closed = 1;
nodes = (
(305,160,o),
(359,210,o),
(359,301,cs),
(359,406,ls),
(359,497,o),
(305,547,o),
(210,547,cs),
(114,547,o),
(60,497,o),
(60,406,cs),
(60,301,ls),
(60,210,o),
(114,160,o),
(210,160,cs)
);
},
{
closed = 1;
nodes = (
(260,-185,ls),
(343,-185,o),
(387,-144,o),
(387,-69,cs),
(387,7,o),
(343,48,o),
(260,48,cs),
(159,48,ls),
(75,48,o),
(30,7,o),
(30,-69,cs),
(30,-144,o),
(75,-185,o),
(159,-185,cs)
);
},
{
closed = 1;
nodes = (
(156,-135,ls),
(112,-135,o),
(90,-111,o),
(90,-69,cs),
(90,-26,o),
(112,-2,o),
(156,-2,cs),
(263,-2,ls),
(305,-2,o),
(327,-26,o),
(327,-69,cs),
(327,-111,o),
(305,-135,o),
(263,-135,cs)
);
},
{
closed = 1;
nodes = (
(210,26,l),
(210,48,l),
(167,48,ls),
(133,48,o),
(118,71,o),
(118,104,cs),
(118,137,o),
(134,160,o),
(168,160,cs),
(210,160,l),
(210,182,l),
(146,182,ls),
(91,182,o),
(63,151,o),
(63,104,cs),
(63,58,o),
(92,26,o),
(145,26,cs)
);
},
{
closed = 1;
nodes = (
(152,212,o),
(120,243,o),
(120,301,cs),
(120,406,ls),
(120,464,o),
(152,495,o),
(210,495,cs),
(268,495,o),
(299,465,o),
(299,406,cs),
(299,301,ls),
(299,243,o),
(267,212,o),
(210,212,cs)
);
},
{
closed = 1;
nodes = (
(278,485,l),
(399,494,l),
(399,560,l),
(383,560,l),
(278,514,l)
);
}
);
width = 409;
},
{
anchors = (
{
name = bottom;
pos = (268,0);
},
{
name = top;
pos = (268,540);
}
);
guides = (
{
angle = 266.524;
pos = (53,153);
}
);
layerId = "7F19C139-BC3E-4459-8995-898EF937B41C";
shapes = (
{
closed = 1;
nodes = (
(395,160,o),
(470,230,o),
(470,348,cs),
(470,357,ls),
(470,475,o),
(395,545,o),
(268,545,cs),
(142,545,o),
(66,475,o),
(66,357,cs),
(66,348,ls),
(66,230,o),
(142,160,o),
(268,160,cs)
);
},
{
closed = 1;
nodes = (
(349,-185,ls),
(445,-185,o),
(496,-144,o),
(496,-66,cs),
(496,12,o),
(445,53,o),
(349,53,cs),
(188,53,ls),
(91,53,o),
(40,12,o),
(40,-66,cs),
(40,-144,o),
(91,-185,o),
(188,-185,cs)
);
},
{
closed = 1;
nodes = (
(188,-181,ls),
(93,-181,o),
(44,-142,o),
(44,-66,cs),
(44,10,o),
(93,49,o),
(188,49,cs),
(349,49,ls),
(443,49,o),
(492,10,o),
(492,-66,cs),
(492,-142,o),
(443,-181,o),
(349,-181,cs)
);
},
{
closed = 1;
nodes = (
(268,49,l),
(268,53,l),
(164,53,ls),
(121,53,o),
(97,72,o),
(97,105,cs),
(97,140,o),
(121,160,o),
(166,160,cs),
(268,160,l),
(268,164,l),
(166,164,ls),
(119,164,o),
(93,143,o),
(93,105,cs),
(93,69,o),
(119,49,o),
(164,49,cs)
);
},
{
closed = 1;
nodes = (
(144,164,o),
(70,233,o),
(70,348,cs),
(70,357,ls),
(70,472,o),
(144,541,o),
(268,541,cs),
(393,541,o),
(466,473,o),
(466,357,cs),
(466,348,ls),
(466,232,o),
(393,164,o),
(268,164,cs)
);
},
{
closed = 1;
nodes = (
(358,527,l),
(532,551,l),
(532,555,l),
(522,555,l),
(358,530,l)
);
}
);
width = 546;
},
{
anchors = (
{
name = bottom;
pos = (268,0);
},
{
name = top;
pos = (268,540);
}
);
layerId = "C8B4B1A0-F191-4142-9AA6-B9AE3C7BFB7E";
shapes = (
{
closed = 1;
nodes = (
(399,160,o),
(475,223,o),
(475,333,cs),
(475,374,ls),
(475,484,o),
(399,547,o),
(268,547,cs),
(137,547,o),
(60,484,o),
(60,374,cs),
(60,333,ls),
(60,223,o),
(137,160,o),
(268,160,cs)
);
},
{
closed = 1;
nodes = (
(346,-185,ls),
(446,-185,o),
(501,-143,o),
(501,-63,cs),
(501,16,o),
(446,58,o),
(346,58,cs),
(190,58,ls),
(87,58,o),
(35,16,o),
(35,-63,cs),
(35,-143,o),
(89,-185,o),
(190,-185,cs)
);
},
{
closed = 1;
nodes = (
(193,-135,l),
(128,-136,o),
(95,-111,o),
(95,-63,cs),
(95,-17,o),
(128,8,o),
(193,8,cs),
(344,8,ls),
(407,8,o),
(439,-17,o),
(439,-63,cs),
(439,-110,o),
(407,-135,o),
(344,-135,cs)
);
},
{
closed = 1;
nodes = (
(268,36,l),
(268,58,l),
(194,58,ls),
(155,58,o),
(136,76,o),
(136,109,c),
(135,141,o),
(157,160,o),
(196,160,cs),
(268,160,l),
(268,182,l),
(169,182,ls),
(112,182,o),
(81,154,o),
(81,109,cs),
(81,64,o),
(113,36,o),
(168,36,cs)
);
},
{
closed = 1;
nodes = (
(174,212,o),
(120,258,o),
(120,336,cs),
(120,371,ls),
(120,450,o),
(174,495,o),
(268,495,cs),
(362,495,o),
(415,450,o),
(415,371,cs),
(415,336,ls),
(415,257,o),
(362,212,o),
(268,212,cs)
);
},
{
closed = 1;
nodes = (
(380,479,l),
(530,493,l),
(530,559,l),
(512,559,l),
(380,518,l)
);
}
);
width = 542;
}
);
unicode = 103;
},
{
glyphname = h;
kernLeft = KO_l;
kernRight = KO_n;
lastChange = "2023-01-20 19:21:54 +0000";
layers = (
{
anchors = (
{
name = bottom;
pos = (356,0);
},
{
name = center;
pos = (190,640);
},
{
name = top;
pos = (190,700);
}
);
layerId = "CE731A6E-4225-469A-B727-F6A72D46F429";
shapes = (
{
closed = 1;
nodes = (
(372,0,l),
(672,0,l),
(672,330,ls),
(672,487,o),
(618,555,o),
(493,555,cs),
(338,555,o),
(254,446,o),
(254,245,cs),
(254,231,l),
(340,300,l),
(340,322,o),
(346,332,o),
(358,332,cs),
(368,332,o),
(372,326,o),
(372,310,cs)
);
},
{
closed = 1;
nodes = (
(40,0,l),
(340,0,l),
(340,414,l),
(340,740,l),
(40,740,l)
);
}
);
width = 707;
},
{
anchors = (
{
name = bottom;
pos = (327,0);
},
{
name = center;
pos = (160,640);
},
{
name = top;
pos = (160,700);
}
);
layerId = "044BBB63-5120-4E70-970B-668628603B6C";
shapes = (
{
closed = 1;
nodes = (
(385,0,l),
(605,0,l),
(605,342,ls),
(605,487,o),
(551,552,o),
(430,552,cs),
(283,552,o),
(204,447,o),
(204,250,cs),
(204,209,l),
(270,284,l),
(270,353,o),
(291,388,o),
(334,388,cs),
(370,388,o),
(385,367,o),
(385,320,cs)
);
},
{
closed = 1;
nodes = (
(50,0,l),
(270,0,l),
(270,402,l),
(270,740,l),
(50,740,l)
);
}
);
width = 649;
},
{
anchors = (
{
name = bottom;
pos = (405,0);
},
{
name = center;
pos = (190,640);
},
{
name = top;
pos = (190,700);
}
);
layerId = "2486E969-71F9-4F3C-B4C5-6F2EF4A28847";
shapes = (
{
closed = 1;
nodes = (
(470,0,l),
(770,0,l),
(770,295,ls),
(770,477,o),
(699,555,o),
(536,555,cs),
(347,555,o),
(244,421,o),
(244,175,cs),
(244,91,l),
(340,202,l),
(340,290,o),
(364,332,o),
(413,332,cs),
(454,332,o),
(470,308,o),
(470,243,cs)
);
},
{
closed = 1;
nodes = (
(40,0,l),
(340,0,l),
(340,414,l),
(340,740,l),
(40,740,l)
);
}
);
width = 805;
},
{
anchors = (
{
name = bottom;
pos = (392,0);
},
{
name = center;
pos = (177,640);
},
{
name = top;
pos = (177,700);
}
);
layerId = "FE1E8944-1FC7-442F-ADEB-BCCAD8BD5749";
shapes = (
{
closed = 1;
nodes = (
(483,0,l),
(733,0,l),
(733,298,ls),
(733,475,o),
(663,553,o),
(504,553,cs),
(322,553,o),
(222,426,o),
(222,193,c),
(221,118,l),
(302,216,l),
(302,316,o),
(336,367,o),
(402,367,cs),
(459,367,o),
(483,334,o),
(483,255,cs)
);
},
{
closed = 1;
nodes = (
(52,0,l),
(302,0,l),
(302,399,l),
(302,740,l),
(52,740,l)
);
}
);
width = 779;
},
{
anchors = (
{
name = bottom;
pos = (110,0);
},
{
name = center;
pos = (52,640);
},
{
name = top;
pos = (52,700);
}
);
layerId = "48FF9396-4D7D-4D4D-86EB-84D256671726";
shapes = (
{
closed = 1;
nodes = (
(166,0,l),
(170,0,l),
(170,475,ls),
(170,520,o),
(154,545,o),
(125,545,cs),
(72,545,o),
(51,491,o),
(51,355,c),
(52,280,l),
(54,355,l),
(54,486,o),
(75,541,o),
(124,541,cs),
(151,541,o),
(166,518,o),
(166,475,cs)
);
},
{
closed = 1;
nodes = (
(50,0,l),
(54,0,l),
(54,404,l),
(54,740,l),
(50,740,l)
);
}
);
width = 215;
},
{
anchors = (
{
name = bottom;
pos = (231,0);
},
{
name = center;
pos = (105,640);
},
{
name = top;
pos = (105,700);
}
);
layerId = "486D3314-9C11-443C-84EF-BC26BC6EF4F4";
shapes = (
{
closed = 1;
nodes = (
(328,0,l),
(388,0,l),
(388,401,ls),
(388,499,o),
(349,547,o),
(270,547,cs),
(161,547,o),
(106,467,o),
(106,309,cs),
(106,250,l),
(135,317,l),
(135,437,o),
(172,498,o),
(245,498,cs),
(301,498,o),
(328,464,o),
(328,394,cs)
);
},
{
closed = 1;
nodes = (
(75,0,l),
(135,0,l),
(135,357,l),
(135,740,l),
(75,740,l)
);
}
);
width = 458;
},
{
anchors = (
{
name = bottom;
pos = (330,0);
},
{
name = center;
pos = (112,640);
},
{
name = top;
pos = (112,700);
}
);
layerId = "7F19C139-BC3E-4459-8995-898EF937B41C";
shapes = (
{
closed = 1;
nodes = (
(546,0,l),
(550,0,l),
(550,313,ls),
(550,469,o),
(484,545,o),
(348,545,cs),
(199,545,o),
(111,448,o),
(111,284,c),
(110,250,l),
(114,285,l),
(114,446,o),
(202,541,o),
(349,541,cs),
(482,541,o),
(546,466,o),
(546,313,cs)
);
},
{
closed = 1;
nodes = (
(110,0,l),
(114,0,l),
(114,326,l),
(114,740,l),
(110,740,l)
);
}
);
width = 650;
},
{
anchors = (
{
name = bottom;
pos = (317,0);
},
{
name = center;
pos = (120,640);
},
{
name = top;
pos = (120,700);
}
);
layerId = "C8B4B1A0-F191-4142-9AA6-B9AE3C7BFB7E";
shapes = (
{
closed = 1;
nodes = (
(484,0,l),
(544,0,l),
(544,331,ls),
(544,477,o),
(483,547,o),
(355,547,cs),
(203,547,o),
(118,446,o),
(118,264,c),
(117,199,l),
(150,264,l),
(150,415,o),
(216,498,o),
(335,498,cs),
(438,498,o),
(484,447,o),
(484,331,cs)
);
},
{
closed = 1;
nodes = (
(90,0,l),
(150,0,l),
(150,357,l),
(150,740,l),
(90,740,l)
);
}
);
width = 624;
}
);
metricLeft = l;
metricRight = n;
unicode = 104;
userData = {
KernOnName = h;
};
},
{
glyphname = idotless;
kernLeft = KO_n;
kernRight = KO_u;
layers = (
{
anchors = (
{
name = bottom;
pos = (190,0);
},
{
name = ogonek;
pos = (340,0);
},
{
name = top;
pos = (190,540);
}
);
layerId = "CE731A6E-4225-469A-B727-F6A72D46F429";
shapes = (
{
closed = 1;
nodes = (
(40,540,l),
(40,0,l),
(340,0,l),
(340,540,l)
);
}
);
width = 380;
},
{
anchors = (
{
name = bottom;
pos = (160,0);
},
{
name = ogonek;
pos = (270,0);
},
{
name = top;
pos = (160,540);
}
);
layerId = "044BBB63-5120-4E70-970B-668628603B6C";
shapes = (
{
closed = 1;
nodes = (
(50,540,l),
(50,0,l),
(270,0,l),
(270,540,l)
);
}
);
width = 320;
},
{
anchors = (
{
name = bottom;
pos = (190,0);
},
{
name = ogonek;
pos = (340,0);
},
{
name = top;
pos = (190,540);
}
);
layerId = "2486E969-71F9-4F3C-B4C5-6F2EF4A28847";
shapes = (
{
closed = 1;
nodes = (
(40,540,l),
(40,0,l),
(340,0,l),
(340,540,l)
);
}
);
width = 380;
},
{
anchors = (
{
name = bottom;
pos = (177,0);
},
{
name = ogonek;
pos = (302,0);
},
{
name = top;
pos = (177,540);
}
);
layerId = "FE1E8944-1FC7-442F-ADEB-BCCAD8BD5749";
shapes = (
{
closed = 1;
nodes = (
(52,540,l),
(52,0,l),
(302,0,l),
(302,540,l)
);
}
);
width = 354;
},
{
anchors = (
{
name = bottom;
pos = (52,0);
},
{
name = ogonek;
pos = (54,0);
},
{
name = top;
pos = (52,540);
}
);
layerId = "48FF9396-4D7D-4D4D-86EB-84D256671726";
shapes = (
{
closed = 1;
nodes = (
(50,540,l),
(50,0,l),
(54,0,l),
(54,540,l)
);
}
);
width = 104;
},
{
anchors = (
{
name = bottom;
pos = (105,0);
},
{
name = ogonek;
pos = (135,0);
},
{
name = top;
pos = (105,540);
}
);
layerId = "486D3314-9C11-443C-84EF-BC26BC6EF4F4";
shapes = (
{
closed = 1;
nodes = (
(75,540,l),
(75,0,l),
(135,0,l),
(135,540,l)
);
}
);
width = 210;
},
{
anchors = (
{
name = bottom;
pos = (112,0);
},
{
name = ogonek;
pos = (114,0);
},
{
name = top;
pos = (112,540);
}
);
layerId = "7F19C139-BC3E-4459-8995-898EF937B41C";
shapes = (
{
closed = 1;
nodes = (
(110,540,l),
(110,0,l),
(114,0,l),
(114,540,l)
);
}
);
width = 224;
},
{
anchors = (
{
name = bottom;
pos = (120,0);
},
{
name = ogonek;
pos = (150,0);
},
{
name = top;
pos = (120,540);
}
);
layerId = "C8B4B1A0-F191-4142-9AA6-B9AE3C7BFB7E";
shapes = (
{
closed = 1;
nodes = (
(90,540,l),
(90,0,l),
(150,0,l),
(150,540,l)
);
}
);
width = 240;
}
);
metricLeft = l;
metricRight = l;
unicode = 305;
},
{
glyphname = jdotless;
layers = (
{
anchors = (
{
name = bottom;
pos = (190,0);
},
{
name = top;
pos = (190,540);
}
);
layerId = "CE731A6E-4225-469A-B727-F6A72D46F429";
shapes = (
{
closed = 1;
nodes = (
(279,-195,o),
(340,-126,o),
(340,29,cs),
(340,540,l),
(40,540,l),
(40,30,ls),
(40,-10,o),
(29,-25,o),
(-2,-25,cs),
(-8,-25,o),
(-15,-24,o),
(-22,-22,c),
(-22,-171,l),
(33,-187,o),
(92,-195,o),
(144,-195,cs)
);
}
);
width = 380;
},
{
anchors = (
{
name = bottom;
pos = (160,0);
},
{
name = top;
pos = (160,540);
}
);
layerId = "044BBB63-5120-4E70-970B-668628603B6C";
shapes = (
{
closed = 1;
nodes = (
(215,-194,o),
(270,-130,o),
(270,5,cs),
(270,540,l),
(50,540,l),
(50,9,ls),
(50,-45,o),
(31,-68,o),
(-15,-68,cs),
(-27,-68,o),
(-40,-66,o),
(-52,-62,c),
(-52,-172,l),
(-5,-186,o),
(47,-194,o),
(93,-194,cs)
);
}
);
width = 320;
},
{
anchors = (
{
name = bottom;
pos = (190,0);
},
{
name = top;
pos = (190,540);
}
);
layerId = "2486E969-71F9-4F3C-B4C5-6F2EF4A28847";
shapes = (
{
closed = 1;
nodes = (
(274,-195,o),
(340,-126,o),
(340,29,cs),
(340,540,l),
(40,540,l),
(40,45,ls),
(40,-6,o),
(23,-25,o),
(-22,-25,cs),
(-31,-25,o),
(-41,-24,o),
(-52,-22,c),
(-52,-171,l),
(8,-187,o),
(71,-195,o),
(128,-195,cs)
);
}
);
width = 380;
},
{
anchors = (
{
name = bottom;
pos = (177,0);
},
{
name = top;
pos = (177,540);
}
);
layerId = "FE1E8944-1FC7-442F-ADEB-BCCAD8BD5749";
shapes = (
{
closed = 1;
nodes = (
(239,-195,o),
(302,-128,o),
(302,19,cs),
(302,540,l),
(52,540,l),
(52,32,ls),
(52,-28,o),
(29,-53,o),
(-25,-53,cs),
(-38,-53,o),
(-53,-51,o),
(-67,-48,c),
(-67,-172,l),
(-12,-187,o),
(47,-195,o),
(100,-195,cs)
);
}
);
width = 354;
},
{
anchors = (
{
name = bottom;
pos = (50,0);
},
{
name = top;
pos = (50,540);
}
);
guides = (
{
angle = 5.541;
pos = (7,-30);
},
{
angle = 289.592;
pos = (-48,-119);
}
);
layerId = "48FF9396-4D7D-4D4D-86EB-84D256671726";
shapes = (
{
closed = 1;
nodes = (
(31,-185,o),
(52,-145,o),
(52,-83,cs),
(52,540,l),
(48,540,l),
(48,-83,ls),
(48,-150,o),
(23,-181,o),
(-28,-181,cs),
(-45,-181,o),
(-66,-175,o),
(-81,-167,c),
(-82,-171,l),
(-67,-179,o),
(-46,-185,o),
(-28,-185,cs)
);
}
);
width = 102;
},
{
anchors = (
{
name = bottom;
pos = (93,0);
},
{
name = top;
pos = (93,540);
}
);
layerId = "486D3314-9C11-443C-84EF-BC26BC6EF4F4";
shapes = (
{
closed = 1;
nodes = (
(79,-185,o),
(123,-134,o),
(123,-36,cs),
(123,540,l),
(63,540,l),
(63,-36,ls),
(63,-107,o),
(40,-134,o),
(-22,-134,cs),
(-42,-134,o),
(-65,-130,o),
(-80,-123,c),
(-86,-170,l),
(-67,-179,o),
(-35,-185,o),
(-7,-185,cs)
);
}
);
width = 198;
},
{
anchors = (
{
name = bottom;
pos = (112,0);
},
{
name = top;
pos = (112,540);
}
);
guides = (
{
pos = (0,-119);
}
);
layerId = "7F19C139-BC3E-4459-8995-898EF937B41C";
shapes = (
{
closed = 1;
nodes = (
(64,-185,o),
(114,-130,o),
(114,-20,cs),
(114,540,l),
(110,540,l),
(110,-20,ls),
(110,-128,o),
(61,-181,o),
(-37,-181,cs),
(-73,-181,o),
(-112,-174,o),
(-140,-163,c),
(-141,-167,l),
(-113,-178,o),
(-73,-185,o),
(-37,-185,cs)
);
}
);
width = 224;
},
{
anchors = (
{
name = bottom;
pos = (121,0);
},
{
name = top;
pos = (121,540);
}
);
layerId = "C8B4B1A0-F191-4142-9AA6-B9AE3C7BFB7E";
shapes = (
{
closed = 1;
nodes = (
(95,-185,o),
(150,-124,o),
(150,-8,cs),
(150,540,l),
(90,540,l),
(90,-8,ls),
(90,-95,o),
(57,-132,o),
(-19,-132,cs),
(-41,-132,o),
(-62,-129,o),
(-86,-122,c),
(-97,-173,l),
(-68,-181,o),
(-36,-185,o),
(-11,-185,cs)
);
}
);
width = 240;
}
);
metricRight = l;
unicode = 567;
},
{
glyphname = k;
kernLeft = KO_l;
kernRight = KO_k;
layers = (
{
anchors = (
{
name = bottom;
pos = (360,0);
},
{
name = top;
pos = (362,540);
}
);
layerId = "CE731A6E-4225-469A-B727-F6A72D46F429";
shapes = (
{
closed = 1;
nodes = (
(330,53,l),
(720,540,l),
(400,540,l),
(119,189,l)
);
},
{
closed = 1;
nodes = (
(40,0,l),
(340,0,l),
(340,740,l),
(40,740,l)
);
},
{
closed = 1;
nodes = (
(431,0,l),
(708,0,l),
(517,394,l),
(327,212,l)
);
}
);
width = 722;
},
{
anchors = (
{
name = bottom;
pos = (317,0);
},
{
name = top;
pos = (310,540);
}
);
layerId = "044BBB63-5120-4E70-970B-668628603B6C";
shapes = (
{
closed = 1;
nodes = (
(260,72,l),
(619,540,l),
(366,540,l),
(88,168,l)
);
},
{
closed = 1;
nodes = (
(50,0,l),
(270,0,l),
(270,740,l),
(50,740,l)
);
},
{
closed = 1;
nodes = (
(383,0,l),
(607,0,l),
(428,351,l),
(265,230,l)
);
}
);
width = 622;
},
{
anchors = (
{
name = bottom;
pos = (390,0);
},
{
name = top;
pos = (396,540);
}
);
layerId = "2486E969-71F9-4F3C-B4C5-6F2EF4A28847";
shapes = (
{
closed = 1;
nodes = (
(335,47,l),
(770,540,l),
(410,540,l),
(72,162,l)
);
},
{
closed = 1;
nodes = (
(40,0,l),
(340,0,l),
(340,740,l),
(40,740,l)
);
},
{
closed = 1;
nodes = (
(460,0,l),
(772,0,l),
(568,341,l),
(346,178,l)
);
}
);
width = 774;
},
{
anchors = (
{
name = bottom;
pos = (361,0);
},
{
name = top;
pos = (361,540);
}
);
layerId = "FE1E8944-1FC7-442F-ADEB-BCCAD8BD5749";
shapes = (
{
closed = 1;
nodes = (
(287,56,l),
(697,540,l),
(422,540,l),
(103,163,l)
);
},
{
closed = 1;
nodes = (
(52,0,l),
(302,0,l),
(302,740,l),
(52,740,l)
);
},
{
closed = 1;
nodes = (
(450,0,l),
(698,0,l),
(489,332,l),
(312,220,l)
);
}
);
width = 701;
},
{
anchors = (
{
name = bottom;
pos = (113,0);
},
{
name = top;
pos = (106,540);
}
);
layerId = "48FF9396-4D7D-4D4D-86EB-84D256671726";
shapes = (
{
closed = 1;
nodes = (
(54,152,l),
(183,540,l),
(179,540,l),
(50,153,l)
);
},
{
closed = 1;
nodes = (
(50,0,l),
(54,0,l),
(54,740,l),
(50,740,l)
);
},
{
closed = 1;
nodes = (
(181,0,l),
(185,0,l),
(102,301,l),
(99,298,l)
);
}
);
width = 188;
},
{
anchors = (
{
name = bottom;
pos = (216,0);
},
{
name = top;
pos = (206,540);
}
);
layerId = "486D3314-9C11-443C-84EF-BC26BC6EF4F4";
shapes = (
{
closed = 1;
nodes = (
(109,96,l),
(372,540,l),
(306,540,l),
(97,185,l)
);
},
{
closed = 1;
nodes = (
(75,0,l),
(135,0,l),
(135,740,l),
(75,740,l)
);
},
{
closed = 1;
nodes = (
(311,0,l),
(373,0,l),
(225,335,l),
(187,282,l)
);
}
);
width = 377;
},
{
anchors = (
{
name = bottom;
pos = (270,0);
},
{
name = top;
pos = (250,540);
}
);
guides = (
{
angle = 227.661;
pos = (538,540);
},
{
angle = 126.838;
pos = (567,0);
}
);
layerId = "7F19C139-BC3E-4459-8995-898EF937B41C";
shapes = (
{
closed = 1;
nodes = (
(114,173,l),
(454,540,l),
(449,540,l),
(112,176,l)
);
},
{
closed = 1;
nodes = (
(110,0,l),
(114,0,l),
(114,740,l),
(110,740,l)
);
},
{
closed = 1;
nodes = (
(455,0,l),
(460,0,l),
(241,311,l),
(238,309,l)
);
}
);
width = 466;
},
{
anchors = (
{
name = bottom;
pos = (272,0);
},
{
name = top;
pos = (258,540);
}
);
layerId = "C8B4B1A0-F191-4142-9AA6-B9AE3C7BFB7E";
shapes = (
{
closed = 1;
nodes = (
(116,104,l),
(474,540,l),
(400,540,l),
(102,175,l)
);
},
{
closed = 1;
nodes = (
(90,0,l),
(150,0,l),
(150,740,l),
(90,740,l)
);
},
{
closed = 1;
nodes = (
(412,0,l),
(479,0,l),
(272,326,l),
(228,290,l)
);
}
);
width = 484;
}
);
metricLeft = l;
unicode = 107;
},
